# This file uses centimeters as units for non-parametric coordinates.

mtllib gunrack.mtl
g default
v -0.830418 -0.175003 0.725992
v -0.478645 -0.175003 0.725992
v 0.468964 -0.175003 0.725992
v 0.830418 -0.175003 0.725992
v -0.830418 0.175003 0.725992
v -0.478645 0.175003 0.725992
v 0.468964 0.175003 0.725992
v 0.830418 0.175003 0.725992
v -0.830418 0.175003 0.241997
v -0.478645 0.175003 0.241997
v 0.468964 0.175003 0.241997
v 0.830418 0.175003 0.241997
v -0.830418 0.175003 -0.511074
v -0.478645 0.175003 -0.511074
v 0.468964 0.175003 -0.511074
v 0.830418 0.175003 -0.511074
v -0.830418 0.175003 -0.725992
v -0.478645 0.175003 -0.725992
v 0.468964 0.175003 -0.725992
v 0.830418 0.175003 -0.725992
v -0.830418 -0.175003 -0.725992
v -0.478645 -0.175003 -0.725992
v 0.468964 -0.175003 -0.725992
v 0.830418 -0.175003 -0.725992
v -0.830418 -0.175003 -0.511074
v -0.478645 -0.175003 -0.511074
v 0.468964 -0.175003 -0.511074
v 0.830418 -0.175003 -0.511074
v -0.830418 -0.175003 0.241997
v -0.478645 -0.175003 0.241997
v 0.468964 -0.175003 0.241997
v 0.830418 -0.175003 0.241997
v -0.830418 2.013306 0.725992
v -0.478645 2.013306 0.725992
v -0.478645 2.013306 0.241997
v -0.830418 2.013306 0.241997
v 0.468964 2.013306 0.725992
v 0.830418 2.013306 0.725992
v 0.830418 2.013306 0.241997
v 0.468964 2.013306 0.241997
v -0.478645 2.013306 -0.511074
v -0.830418 2.013306 -0.511074
v 0.830418 2.013306 -0.511074
v 0.468964 2.013306 -0.511074
v -0.478645 2.013306 -0.725992
v -0.830418 2.013306 -0.725992
v 0.468964 2.013306 -0.725992
v 0.830418 2.013306 -0.725992
v -0.478645 3.778274 -0.511074
v 0.468964 3.778274 -0.511074
v 0.468964 3.778274 -0.725992
v -0.478645 3.778274 -0.725992
v -0.236557 3.552139 -0.195096
v 0.226877 3.552139 -0.195096
v 0.468964 3.552139 -0.725992
v -0.478645 3.552139 -0.725992
v -0.236557 3.552139 0.409787
v 0.226877 3.552139 0.409787
v 0.468964 3.778274 0.725765
v -0.478645 3.778274 0.725765
vt 0.375000 0.000000
vt 0.458333 0.000000
vt 0.541667 0.000000
vt 0.625000 0.000000
vt 0.375000 0.250000
vt 0.458333 0.250000
vt 0.541667 0.250000
vt 0.625000 0.250000
vt 0.375000 0.333333
vt 0.458333 0.333333
vt 0.541667 0.333333
vt 0.625000 0.333333
vt 0.375000 0.416667
vt 0.458333 0.416667
vt 0.541667 0.416667
vt 0.625000 0.416667
vt 0.375000 0.500000
vt 0.458333 0.500000
vt 0.541667 0.500000
vt 0.625000 0.500000
vt 0.375000 0.750000
vt 0.458333 0.750000
vt 0.541667 0.750000
vt 0.625000 0.750000
vt 0.375000 0.833333
vt 0.458333 0.833333
vt 0.541667 0.833333
vt 0.625000 0.833333
vt 0.375000 0.916667
vt 0.458333 0.916667
vt 0.541667 0.916667
vt 0.625000 0.916667
vt 0.375000 1.000000
vt 0.458333 1.000000
vt 0.541667 1.000000
vt 0.625000 1.000000
vt 0.875000 0.000000
vt 0.791667 0.000000
vt 0.708333 0.000000
vt 0.875000 0.250000
vt 0.791667 0.250000
vt 0.708333 0.250000
vt 0.125000 0.000000
vt 0.208333 0.000000
vt 0.291667 0.000000
vt 0.125000 0.250000
vt 0.208333 0.250000
vt 0.291667 0.250000
vt 0.375000 0.250000
vt 0.458333 0.250000
vt 0.458333 0.333333
vt 0.375000 0.333333
vt 0.541667 0.250000
vt 0.625000 0.250000
vt 0.625000 0.333333
vt 0.541667 0.333333
vt 0.458333 0.416667
vt 0.375000 0.416667
vt 0.625000 0.416667
vt 0.541667 0.416667
vt 0.458333 0.500000
vt 0.375000 0.500000
vt 0.541667 0.500000
vt 0.625000 0.500000
vt 0.458333 0.416667
vt 0.541667 0.416667
vt 0.541667 0.500000
vt 0.458333 0.500000
vt 0.458333 0.416667
vt 0.541667 0.416667
vt 0.541667 0.500000
vt 0.458333 0.500000
vt 0.458333 0.416667
vt 0.541667 0.416667
vt 0.541667 0.416667
vt 0.458333 0.416667
vn 0.000000 0.000000 1.000000
vn 0.000000 0.000000 1.000000
vn 0.000000 0.000000 1.000000
vn 0.000000 0.000000 1.000000
vn 0.000000 0.000000 1.000000
vn 0.000000 0.000000 1.000000
vn 0.000000 0.000000 1.000000
vn 0.000000 0.000000 1.000000
vn 0.000000 1.000000 0.000000
vn 0.000000 1.000000 0.000000
vn 0.000000 1.000000 0.000000
vn 0.000000 1.000000 0.000000
vn 0.000000 1.000000 0.000000
vn 0.000000 1.000000 0.000000
vn 0.000000 1.000000 0.000000
vn 0.000000 1.000000 0.000000
vn 0.000000 1.000000 0.000000
vn 0.000000 1.000000 0.000000
vn 0.000000 1.000000 0.000000
vn 0.000000 1.000000 0.000000
vn 0.000000 1.000000 0.000000
vn 0.000000 1.000000 0.000000
vn 0.000000 1.000000 0.000000
vn 0.000000 1.000000 0.000000
vn 0.000000 1.000000 0.000000
vn 0.000000 1.000000 0.000000
vn 0.000000 1.000000 0.000000
vn 0.000000 1.000000 0.000000
vn 0.000000 1.000000 0.000000
vn 0.000000 1.000000 0.000000
vn 0.000000 1.000000 0.000000
vn 0.000000 1.000000 0.000000
vn 0.000000 1.000000 0.000000
vn 0.000000 1.000000 0.000000
vn 0.000000 0.000000 -1.000000
vn 0.000000 0.000000 -1.000000
vn 0.000000 0.000000 -1.000000
vn 0.000000 0.000000 -1.000000
vn 0.000000 0.000000 -1.000000
vn 0.000000 0.000000 -1.000000
vn 0.000000 0.000000 -1.000000
vn 0.000000 0.000000 -1.000000
vn 0.000000 -1.000000 0.000000
vn 0.000000 -1.000000 0.000000
vn 0.000000 -1.000000 0.000000
vn 0.000000 -1.000000 0.000000
vn 0.000000 -1.000000 0.000000
vn 0.000000 -1.000000 0.000000
vn 0.000000 -1.000000 0.000000
vn 0.000000 -1.000000 0.000000
vn 0.000000 -1.000000 0.000000
vn 0.000000 -1.000000 0.000000
vn 0.000000 -1.000000 0.000000
vn 0.000000 -1.000000 0.000000
vn 0.000000 -1.000000 0.000000
vn 0.000000 -1.000000 0.000000
vn 0.000000 -1.000000 0.000000
vn 0.000000 -1.000000 0.000000
vn 1.000000 0.000000 0.000000
vn 1.000000 0.000000 0.000000
vn 1.000000 0.000000 0.000000
vn 1.000000 0.000000 0.000000
vn 1.000000 0.000000 0.000000
vn 1.000000 0.000000 0.000000
vn 1.000000 -0.000000 0.000000
vn 1.000000 -0.000000 0.000000
vn -1.000000 0.000000 0.000000
vn -1.000000 0.000000 0.000000
vn -1.000000 0.000000 0.000000
vn -1.000000 0.000000 0.000000
vn -1.000000 0.000000 0.000000
vn -1.000000 0.000000 0.000000
vn -1.000000 -0.000000 0.000000
vn -1.000000 -0.000000 0.000000
vn 0.000000 0.000000 1.000000
vn 0.000000 0.000000 1.000000
vn 0.000000 0.000000 1.000000
vn 0.000000 0.000000 1.000000
vn 1.000000 0.000000 0.000000
vn 1.000000 0.000000 0.000000
vn 1.000000 0.000000 0.000000
vn 1.000000 0.000000 0.000000
vn -1.000000 0.000000 0.000000
vn -1.000000 0.000000 0.000000
vn -1.000000 0.000000 0.000000
vn -1.000000 0.000000 0.000000
vn 0.000000 0.000000 1.000000
vn 0.000000 0.000000 1.000000
vn 0.000000 0.000000 1.000000
vn 0.000000 0.000000 1.000000
vn 1.000000 0.000000 0.000000
vn 1.000000 0.000000 0.000000
vn 1.000000 0.000000 0.000000
vn 1.000000 0.000000 0.000000
vn -1.000000 0.000000 0.000000
vn -1.000000 0.000000 0.000000
vn -1.000000 0.000000 0.000000
vn -1.000000 0.000000 0.000000
vn 1.000000 0.000000 0.000000
vn 1.000000 0.000000 0.000000
vn 1.000000 0.000000 0.000000
vn 1.000000 0.000000 0.000000
vn -1.000000 0.000000 0.000000
vn -1.000000 0.000000 0.000000
vn -1.000000 0.000000 0.000000
vn -1.000000 0.000000 0.000000
vn 1.000000 0.000000 0.000000
vn 1.000000 0.000000 0.000000
vn 1.000000 0.000000 0.000000
vn 1.000000 0.000000 0.000000
vn -1.000000 0.000000 0.000000
vn -1.000000 0.000000 0.000000
vn -1.000000 0.000000 0.000000
vn -1.000000 0.000000 0.000000
vn 0.000000 0.000000 -1.000000
vn 0.000000 0.000000 -1.000000
vn 0.000000 0.000000 -1.000000
vn 0.000000 0.000000 -1.000000
vn -1.000000 0.000000 0.000000
vn -1.000000 0.000000 0.000000
vn -1.000000 0.000000 0.000000
vn -1.000000 0.000000 0.000000
vn 0.000000 0.000000 1.000000
vn 0.000000 0.000000 1.000000
vn 0.000000 0.000000 1.000000
vn 0.000000 0.000000 1.000000
vn 0.000000 0.000000 -1.000000
vn 0.000000 0.000000 -1.000000
vn 0.000000 0.000000 -1.000000
vn 0.000000 0.000000 -1.000000
vn 1.000000 0.000000 0.000000
vn 1.000000 0.000000 0.000000
vn 1.000000 0.000000 0.000000
vn 1.000000 0.000000 0.000000
vn 0.000000 0.000000 -1.000000
vn 0.000000 0.000000 -1.000000
vn 0.000000 0.000000 -1.000000
vn 0.000000 0.000000 -1.000000
vn 0.000000 -0.813203 0.581980
vn 0.000000 -0.813203 0.581980
vn 0.000000 -0.813203 0.581980
vn 0.000000 -0.813203 0.581980
vn 0.951122 0.007260 0.308730
vn 0.951147 0.000000 0.308738
vn 0.912669 -0.281554 0.296248
vn 0.912669 -0.281554 0.296248
vn 0.000000 0.000000 -1.000000
vn 0.000000 0.000000 -1.000000
vn 0.000000 0.000000 -1.000000
vn 0.000000 0.000000 -1.000000
vn -0.951147 -0.000000 0.308738
vn -0.951122 0.007260 0.308730
vn -0.912669 -0.281554 0.296248
vn -0.912669 -0.281554 0.296248
vn 0.000000 -0.201139 0.979563
vn 0.000000 -0.201139 0.979563
vn 0.000000 -0.201139 0.979563
vn 0.000000 -0.201139 0.979563
vn 0.950264 0.043079 0.308451
vn 0.950264 0.043079 0.308451
vn 0.000000 0.000000 -1.000000
vn 0.000000 0.000000 -1.000000
vn -0.950264 0.043079 0.308451
vn -0.950264 0.043079 0.308451
vn 0.000000 -1.000000 0.000000
vn 0.000000 -1.000000 0.000000
vn 0.000000 -1.000000 0.000000
vn 0.000000 -1.000000 0.000000
vn 0.682618 -0.730775 0.000000
vn 0.682618 -0.730775 0.000000
vn 0.682618 -0.730775 0.000000
vn 0.682618 -0.730775 0.000000
vn 0.000000 1.000000 0.000000
vn 0.000000 1.000000 0.000000
vn 0.000000 1.000000 0.000000
vn 0.000000 1.000000 0.000000
vn -0.682618 -0.730775 0.000000
vn -0.682618 -0.730775 0.000000
vn -0.682618 -0.730775 0.000000
vn -0.682618 -0.730775 0.000000
s 1
g pCube1
usemtl initialShadingGroup
f 1/1/1 2/2/2 6/6/3 5/5/4
f 2/2/2 3/3/5 7/7/6 6/6/3
f 3/3/5 4/4/7 8/8/8 7/7/6
s 2
f 33/49/9 34/50/10 35/51/11 36/52/12
s 3
f 6/6/13 7/7/14 11/11/15 10/10/16
s 4
f 37/53/17 38/54/18 39/55/19 40/56/20
s 2
f 36/52/12 35/51/11 41/57/21 42/58/22
s 3
f 10/10/16 11/11/15 15/15/23 14/14/24
s 4
f 40/56/20 39/55/19 43/59/25 44/60/26
s 2
f 42/58/22 41/57/21 45/61/27 46/62/28
s off
f 49/65/29 50/66/30 51/67/31 52/68/32
s 4
f 44/60/26 43/59/25 48/64/33 47/63/34
s 5
f 17/17/35 18/18/36 22/22/37 21/21/38
f 18/18/36 19/19/39 23/23/40 22/22/37
f 19/19/39 20/20/41 24/24/42 23/23/40
s 6
f 21/21/43 22/22/44 26/26/45 25/25/46
f 22/22/44 23/23/47 27/27/48 26/26/45
f 23/23/47 24/24/49 28/28/50 27/27/48
f 25/25/46 26/26/45 30/30/51 29/29/52
f 26/26/45 27/27/48 31/31/53 30/30/51
f 27/27/48 28/28/50 32/32/54 31/31/53
f 29/29/52 30/30/51 2/34/55 1/33/56
f 30/30/51 31/31/53 3/35/57 2/34/55
f 31/31/53 32/32/54 4/36/58 3/35/57
s 7
f 28/38/59 24/37/60 20/40/61 16/41/62
f 32/39/63 28/38/59 16/41/62 12/42/64
f 4/4/65 32/39/63 12/42/64 8/8/66
s 8
f 21/43/67 25/44/68 13/47/69 17/46/70
f 25/44/68 29/45/71 9/48/72 13/47/69
f 29/45/71 1/1/73 5/5/74 9/48/72
s off
f 5/5/75 6/6/76 34/50/77 33/49/78
f 6/6/79 10/10/80 35/51/81 34/50/82
f 9/9/83 5/5/84 33/49/85 36/52/86
f 7/7/87 8/8/88 38/54/89 37/53/90
f 8/8/91 12/12/92 39/55/93 38/54/94
f 11/11/95 7/7/96 37/53/97 40/56/98
f 10/10/99 14/14/100 41/57/101 35/51/102
f 13/13/103 9/9/104 36/52/105 42/58/106
f 12/12/107 16/16/108 43/59/109 39/55/110
f 15/15/111 11/11/112 40/56/113 44/60/114
f 18/18/115 17/17/116 46/62/117 45/61/118
f 17/17/119 13/13/120 42/58/121 46/62/122
f 14/14/123 15/15/124 44/60/125 41/57/126
f 19/19/127 18/18/128 45/61/129 47/63/130
f 16/16/131 20/20/132 48/64/133 43/59/134
f 20/20/135 19/19/136 47/63/137 48/64/138
f 57/73/139 58/74/140 59/75/141 60/76/142
s 9
f 54/70/143 55/71/144 51/67/145 50/66/146
s 10
f 55/71/147 56/72/148 52/68/149 51/67/150
s 11
f 56/72/151 53/69/152 49/65/153 52/68/154
s off
f 41/57/155 44/60/156 54/70/157 53/69/158
s 9
f 44/60/159 47/63/160 55/71/144 54/70/143
s 10
f 47/63/161 45/61/162 56/72/148 55/71/147
s 11
f 45/61/163 41/57/164 53/69/152 56/72/151
s off
f 53/69/165 54/70/166 58/74/167 57/73/168
f 54/70/169 50/66/170 59/75/171 58/74/172
f 50/66/173 49/65/174 60/76/175 59/75/176
f 49/65/177 53/69/178 57/73/179 60/76/180
