# This file uses centimeters as units for non-parametric coordinates.

mtllib target.mtl
g default
v -0.073688 -0.892740 0.085004
v 0.073688 -0.892740 0.085004
v -0.073688 2.186816 0.085004
v 0.073688 2.186816 0.085004
v -0.073688 2.186816 -0.085004
v 0.073688 2.186816 -0.085004
v -0.073688 -0.892740 -0.085004
v 0.073688 -0.892740 -0.085004
vt 0.075659 0.911175
vt 0.075659 0.075746
vt 0.190824 0.075746
vt 0.190824 0.911175
vt 0.073872 0.084684
vt 0.189037 0.084684
vt 0.189037 0.920113
vt 0.073872 0.920113
vt 0.075104 0.066038
vt 0.190269 0.066038
vt 0.190269 0.901467
vt 0.075104 0.901467
vt 0.075122 0.079830
vt 0.190287 0.079830
vt 0.190287 0.915259
vt 0.075122 0.915259
vt 0.074427 0.057099
vt 0.189592 0.057099
vt 0.189592 0.892528
vt 0.074427 0.892528
vt 0.075270 0.915258
vt 0.075270 0.079830
vt 0.190435 0.079830
vt 0.190435 0.915258
vn 0.000000 0.000000 1.000000
vn 0.000000 0.000000 1.000000
vn 0.000000 0.000000 1.000000
vn 0.000000 0.000000 1.000000
vn 0.000000 1.000000 0.000000
vn 0.000000 1.000000 0.000000
vn 0.000000 1.000000 0.000000
vn 0.000000 1.000000 0.000000
vn 0.000000 0.000000 -1.000000
vn 0.000000 0.000000 -1.000000
vn 0.000000 0.000000 -1.000000
vn 0.000000 0.000000 -1.000000
vn 0.000000 -1.000000 0.000000
vn 0.000000 -1.000000 0.000000
vn 0.000000 -1.000000 0.000000
vn 0.000000 -1.000000 0.000000
vn 1.000000 0.000000 0.000000
vn 1.000000 0.000000 0.000000
vn 1.000000 0.000000 0.000000
vn 1.000000 0.000000 0.000000
vn -1.000000 0.000000 0.000000
vn -1.000000 0.000000 0.000000
vn -1.000000 0.000000 0.000000
vn -1.000000 0.000000 0.000000
s off
g pCube1
usemtl initialShadingGroup
f 1/17/1 2/18/2 4/19/3 3/20/4
f 3/9/5 4/10/6 6/11/7 5/12/8
f 5/21/9 6/22/10 8/23/11 7/24/12
f 7/13/13 8/14/14 2/15/15 1/16/16
f 2/1/17 8/2/18 6/3/19 4/4/20
f 7/5/21 1/6/22 3/7/23 5/8/24
g default
v -1.023952 0.611348 0.197538
v 1.023952 0.611348 0.197538
v -1.023952 3.909330 0.197538
v 1.023952 3.909330 0.197538
v -1.023952 3.909330 0.063836
v 1.023952 3.909330 0.063836
v -1.023952 0.611348 0.063836
v 1.023952 0.611348 0.063836
vt 0.076212 0.902237
vt 0.076212 0.066808
vt 0.190254 0.066808
vt 0.190254 0.902237
vt 0.075662 0.075746
vt 0.189704 0.075746
vt 0.189704 0.911175
vt 0.075662 0.911175
vt 0.074442 0.048162
vt 0.188484 0.048162
vt 0.188484 0.883591
vt 0.074442 0.883591
vt 0.075680 0.070892
vt 0.189722 0.070892
vt 0.189722 0.906321
vt 0.075680 0.906321
vt 0.282638 0.077865
vt 0.946828 0.077865
vt 0.946828 0.742054
vt 0.282638 0.742054
vt 0.074186 0.915258
vt 0.074186 0.079830
vt 0.189351 0.079830
vt 0.189351 0.915258
vn 0.000000 0.000000 1.000000
vn 0.000000 0.000000 1.000000
vn 0.000000 0.000000 1.000000
vn 0.000000 0.000000 1.000000
vn 0.000000 1.000000 0.000000
vn 0.000000 1.000000 0.000000
vn 0.000000 1.000000 0.000000
vn 0.000000 1.000000 0.000000
vn 0.000000 0.000000 -1.000000
vn 0.000000 0.000000 -1.000000
vn 0.000000 0.000000 -1.000000
vn 0.000000 0.000000 -1.000000
vn 0.000000 -1.000000 0.000000
vn 0.000000 -1.000000 0.000000
vn 0.000000 -1.000000 0.000000
vn 0.000000 -1.000000 0.000000
vn 1.000000 0.000000 0.000000
vn 1.000000 0.000000 0.000000
vn 1.000000 0.000000 0.000000
vn 1.000000 0.000000 0.000000
vn -1.000000 0.000000 0.000000
vn -1.000000 0.000000 0.000000
vn -1.000000 0.000000 0.000000
vn -1.000000 0.000000 0.000000
s off
g pCube2
usemtl initialShadingGroup
f 9/41/25 10/42/26 12/43/27 11/44/28
f 11/33/29 12/34/30 14/35/31 13/36/32
f 13/45/33 14/46/34 16/47/35 15/48/36
f 15/37/37 16/38/38 10/39/39 9/40/40
f 10/25/41 16/26/42 14/27/43 12/28/44
f 15/29/45 9/30/46 11/31/47 13/32/48
