# This file uses centimeters as units for non-parametric coordinates.

mtllib healingTube.mtl
g default
v 0.897178 -2.236924 -0.291511
v 0.763185 -2.236924 -0.554486
v 0.554486 -2.236924 -0.763185
v 0.291511 -2.236924 -0.897177
v -0.000000 -2.236924 -0.943348
v -0.291511 -2.236924 -0.897177
v -0.554486 -2.236924 -0.763185
v -0.763184 -2.236924 -0.554486
v -0.897177 -2.236924 -0.291511
v -0.943348 -2.236924 -0.000000
v -0.897177 -2.236924 0.291511
v -0.763184 -2.236924 0.554486
v -0.554486 -2.236924 0.763184
v -0.291511 -2.236924 0.897177
v -0.000000 -2.236924 0.943348
v 0.291510 -2.236924 0.897177
v 0.554486 -2.236924 0.763184
v 0.763184 -2.236924 0.554486
v 0.897177 -2.236924 0.291510
v 0.943348 -2.236924 -0.000000
v 0.897178 2.236924 -0.291511
v 0.763185 2.236924 -0.554486
v 0.554486 2.236924 -0.763185
v 0.291511 2.236924 -0.897177
v -0.000000 2.236924 -0.943348
v -0.291511 2.236924 -0.897177
v -0.554486 2.236924 -0.763185
v -0.763184 2.236924 -0.554486
v -0.897177 2.236924 -0.291511
v -0.943348 2.236924 -0.000000
v -0.897177 2.236924 0.291511
v -0.763184 2.236924 0.554486
v -0.554486 2.236924 0.763184
v -0.291511 2.236924 0.897177
v -0.000000 2.236924 0.943348
v 0.291510 2.236924 0.897177
v 0.554486 2.236924 0.763184
v 0.763184 2.236924 0.554486
v 0.897177 2.236924 0.291510
v 0.943348 2.236924 -0.000000
v 1.102041 -3.238181 -0.358075
v 0.937452 -3.238181 -0.681099
v 0.937452 -2.747710 -0.681099
v 1.102041 -2.747710 -0.358075
v 0.681099 -3.238181 -0.937452
v 0.681099 -2.747710 -0.937452
v 0.358075 -3.238181 -1.102041
v 0.358075 -2.747710 -1.102041
v 0.000000 -3.238181 -1.158755
v 0.000000 -2.747710 -1.158755
v -0.358075 -3.238181 -1.102041
v -0.358075 -2.747710 -1.102041
v -0.681099 -3.238181 -0.937452
v -0.681099 -2.747710 -0.937452
v -0.937452 -3.238181 -0.681099
v -0.937452 -2.747710 -0.681099
v -1.102041 -3.238181 -0.358075
v -1.102041 -2.747710 -0.358075
v -1.158755 -3.238181 0.000000
v -1.158755 -2.747710 0.000000
v -1.102041 -3.238181 0.358075
v -1.102041 -2.747710 0.358075
v -0.937452 -3.238181 0.681099
v -0.937452 -2.747710 0.681099
v -0.681099 -3.238181 0.937452
v -0.681099 -2.747710 0.937452
v -0.358075 -3.238181 1.102041
v -0.358075 -2.747710 1.102041
v -0.000000 -3.238181 1.158754
v -0.000000 -2.747710 1.158754
v 0.358075 -3.238181 1.102041
v 0.358075 -2.747710 1.102041
v 0.681099 -3.238181 0.937452
v 0.681099 -2.747710 0.937452
v 0.937452 -3.238181 0.681099
v 0.937452 -2.747710 0.681099
v 1.102041 -3.238181 0.358075
v 1.102041 -2.747710 0.358075
v 1.158754 -3.238181 0.000000
v 1.158754 -2.747710 0.000000
v 1.102041 2.747710 -0.358075
v 0.937452 2.747710 -0.681099
v 0.937452 3.238181 -0.681099
v 1.102041 3.238181 -0.358075
v 0.681099 2.747710 -0.937452
v 0.681099 3.238181 -0.937452
v 0.358075 2.747710 -1.102041
v 0.358075 3.238181 -1.102041
v 0.000000 2.747710 -1.158755
v 0.000000 3.238181 -1.158755
v -0.358075 2.747710 -1.102041
v -0.358075 3.238181 -1.102041
v -0.681099 2.747710 -0.937452
v -0.681099 3.238181 -0.937452
v -0.937452 2.747710 -0.681099
v -0.937452 3.238181 -0.681099
v -1.102041 2.747710 -0.358075
v -1.102041 3.238181 -0.358075
v -1.158755 2.747710 0.000000
v -1.158755 3.238181 0.000000
v -1.102041 2.747710 0.358075
v -1.102041 3.238181 0.358075
v -0.937452 2.747710 0.681099
v -0.937452 3.238181 0.681099
v -0.681099 2.747710 0.937452
v -0.681099 3.238181 0.937452
v -0.358075 2.747710 1.102041
v -0.358075 3.238181 1.102041
v -0.000000 2.747710 1.158754
v -0.000000 3.238181 1.158754
v 0.358075 2.747710 1.102041
v 0.358075 3.238181 1.102041
v 0.681099 2.747710 0.937452
v 0.681099 3.238181 0.937452
v 0.937452 2.747710 0.681099
v 0.937452 3.238181 0.681099
v 1.102041 2.747710 0.358075
v 1.102041 3.238181 0.358075
v 1.158754 2.747710 0.000000
v 1.158754 3.238181 0.000000
vt 0.253095 0.001947
vt 0.301639 0.001947
vt 0.301639 0.075654
vt 0.253095 0.075654
vt 0.340163 0.001947
vt 0.340163 0.075654
vt 0.282611 0.152415
vt 0.243091 0.152415
vt 0.199283 0.001947
vt 0.199283 0.075654
vt 0.313975 0.152415
vt 0.282611 0.824744
vt 0.243091 0.824744
vt 0.199283 0.152415
vt 0.145472 0.001947
vt 0.145472 0.075654
vt 0.313975 0.824744
vt 0.301639 0.901505
vt 0.253095 0.901505
vt 0.199283 0.824744
vt 0.155475 0.152415
vt 0.096928 0.001947
vt 0.096928 0.075654
vt 0.340163 0.901505
vt 0.301639 0.975213
vt 0.253095 0.975213
vt 0.199283 0.901505
vt 0.155475 0.824744
vt 0.115955 0.152415
vt 0.058403 0.001947
vt 0.058403 0.075654
vt 0.340163 0.975213
vt 0.199283 0.975213
vt 0.145472 0.901505
vt 0.115955 0.824744
vt 0.084592 0.152415
vt 0.145472 0.975213
vt 0.096928 0.901505
vt 0.084592 0.824744
vt 0.096928 0.975213
vt 0.058403 0.901505
vt 0.058403 0.975213
vt 0.097425 0.001947
vt 0.145969 0.001947
vt 0.145969 0.075654
vt 0.097425 0.075654
vt 0.199781 0.001947
vt 0.199781 0.075654
vt 0.155973 0.152415
vt 0.116453 0.152415
vt 0.058901 0.001947
vt 0.058901 0.075654
vt 0.253592 0.001947
vt 0.253592 0.075654
vt 0.199781 0.152415
vt 0.155973 0.824744
vt 0.116453 0.824744
vt 0.085090 0.152415
vt 0.302136 0.001947
vt 0.302136 0.075654
vt 0.243589 0.152415
vt 0.199781 0.824744
vt 0.145969 0.901505
vt 0.097425 0.901505
vt 0.085090 0.824744
vt 0.340661 0.001947
vt 0.340661 0.075654
vt 0.283109 0.152415
vt 0.243589 0.824744
vt 0.199781 0.901505
vt 0.145969 0.975213
vt 0.097425 0.975213
vt 0.058901 0.901505
vt 0.314472 0.152415
vt 0.283109 0.824744
vt 0.253592 0.901505
vt 0.199781 0.975213
vt 0.058901 0.975213
vt 0.314472 0.824744
vt 0.302136 0.901505
vt 0.253592 0.975213
vt 0.340661 0.901505
vt 0.302136 0.975213
vt 0.340661 0.975213
vt 0.552697 0.975213
vt 0.504153 0.975213
vt 0.504153 0.901505
vt 0.552697 0.901505
vt 0.450342 0.975213
vt 0.450342 0.901505
vt 0.494150 0.824744
vt 0.533670 0.824744
vt 0.396530 0.975213
vt 0.396530 0.901505
vt 0.450342 0.824744
vt 0.494150 0.152415
vt 0.533670 0.152415
vt 0.347986 0.975213
vt 0.347986 0.901505
vt 0.406534 0.824744
vt 0.450342 0.152415
vt 0.504153 0.075654
vt 0.552697 0.075654
vt 0.367014 0.824744
vt 0.406534 0.152415
vt 0.450342 0.075654
vt 0.504153 0.001947
vt 0.552697 0.001947
vt 0.367014 0.152415
vt 0.396530 0.075654
vt 0.450342 0.001947
vt 0.347986 0.075654
vt 0.396530 0.001947
vt 0.347986 0.001947
vt 0.350365 0.001947
vt 0.398909 0.001947
vt 0.398909 0.075654
vt 0.350365 0.075654
vt 0.452720 0.001947
vt 0.452720 0.075654
vt 0.408912 0.152415
vt 0.369392 0.152415
vt 0.506532 0.001947
vt 0.506532 0.075654
vt 0.452720 0.152415
vt 0.408912 0.824744
vt 0.369392 0.824744
vt 0.555076 0.001947
vt 0.555076 0.075654
vt 0.496529 0.152415
vt 0.452720 0.824744
vt 0.398909 0.901505
vt 0.350365 0.901505
vt 0.536048 0.152415
vt 0.496529 0.824744
vt 0.452720 0.901505
vt 0.398909 0.975213
vt 0.350365 0.975213
vt 0.536048 0.824744
vt 0.506532 0.901505
vt 0.452720 0.975213
vt 0.555076 0.901505
vt 0.506532 0.975213
vt 0.555076 0.975213
vn 0.951057 0.000000 -0.309016
vn 0.809017 0.000000 -0.587785
vn 0.809017 0.000000 -0.587785
vn 0.951057 0.000000 -0.309016
vn 0.587785 0.000000 -0.809017
vn 0.587785 0.000000 -0.809017
vn 0.309017 0.000000 -0.951057
vn 0.309017 0.000000 -0.951057
vn -0.000000 0.000000 -1.000000
vn -0.000000 0.000000 -1.000000
vn -0.309017 0.000000 -0.951057
vn -0.309017 0.000000 -0.951057
vn -0.587786 0.000000 -0.809017
vn -0.587786 0.000000 -0.809017
vn -0.809017 0.000000 -0.587785
vn -0.809017 0.000000 -0.587785
vn -0.951056 0.000000 -0.309017
vn -0.951056 0.000000 -0.309017
vn -1.000000 0.000000 0.000000
vn -1.000000 0.000000 0.000000
vn -0.951056 0.000000 0.309017
vn -0.951056 0.000000 0.309017
vn -0.809017 0.000000 0.587785
vn -0.809017 0.000000 0.587785
vn -0.587785 0.000000 0.809017
vn -0.587785 0.000000 0.809017
vn -0.309017 0.000000 0.951057
vn -0.309017 0.000000 0.951057
vn 0.000000 0.000000 1.000000
vn 0.000000 0.000000 1.000000
vn 0.309017 0.000000 0.951057
vn 0.309017 0.000000 0.951057
vn 0.587785 0.000000 0.809017
vn 0.587785 0.000000 0.809017
vn 0.809017 0.000000 0.587785
vn 0.809017 0.000000 0.587785
vn 0.951057 0.000000 0.309017
vn 0.951057 0.000000 0.309017
vn 1.000000 0.000000 0.000001
vn 1.000000 0.000000 0.000001
vn 0.951057 0.000000 -0.309016
vn 0.809017 0.000000 -0.587785
vn 0.809017 0.000000 -0.587785
vn 0.951057 0.000000 -0.309016
vn 0.587785 0.000000 -0.809017
vn 0.587785 0.000000 -0.809017
vn 0.309017 0.000000 -0.951057
vn 0.309017 0.000000 -0.951057
vn -0.000000 0.000000 -1.000000
vn -0.000000 0.000000 -1.000000
vn -0.309017 0.000000 -0.951057
vn -0.309017 0.000000 -0.951057
vn -0.587786 0.000000 -0.809017
vn -0.587786 0.000000 -0.809017
vn -0.809017 0.000000 -0.587785
vn -0.809017 0.000000 -0.587785
vn -0.951057 0.000000 -0.309017
vn -0.951057 0.000000 -0.309017
vn -1.000000 0.000000 0.000000
vn -1.000000 0.000000 0.000000
vn -0.951057 0.000000 0.309017
vn -0.951057 0.000000 0.309017
vn -0.809017 0.000000 0.587785
vn -0.809017 0.000000 0.587785
vn -0.587785 0.000000 0.809017
vn -0.587785 0.000000 0.809017
vn -0.309017 0.000000 0.951057
vn -0.309017 0.000000 0.951057
vn 0.000000 0.000000 1.000000
vn 0.000000 0.000000 1.000000
vn 0.309017 0.000000 0.951057
vn 0.309017 0.000000 0.951057
vn 0.587785 0.000000 0.809017
vn 0.587785 0.000000 0.809017
vn 0.809017 0.000000 0.587785
vn 0.809017 0.000000 0.587785
vn 0.951057 0.000000 0.309017
vn 0.951057 0.000000 0.309017
vn 1.000000 0.000000 0.000001
vn 1.000000 0.000000 0.000001
vn 0.951057 0.000000 -0.309016
vn 0.809017 0.000000 -0.587785
vn 0.809017 0.000000 -0.587785
vn 0.951057 0.000000 -0.309016
vn 0.587785 0.000000 -0.809017
vn 0.587785 0.000000 -0.809017
vn 0.309017 0.000000 -0.951057
vn 0.309017 0.000000 -0.951057
vn -0.000000 0.000000 -1.000000
vn -0.000000 0.000000 -1.000000
vn -0.309017 0.000000 -0.951056
vn -0.309017 0.000000 -0.951056
vn -0.587785 0.000000 -0.809017
vn -0.587785 0.000000 -0.809017
vn -0.809017 0.000000 -0.587785
vn -0.809017 0.000000 -0.587785
vn -0.951056 0.000000 -0.309017
vn -0.951056 0.000000 -0.309017
vn -1.000000 0.000000 0.000000
vn -1.000000 0.000000 0.000000
vn -0.951056 0.000000 0.309017
vn -0.951056 0.000000 0.309017
vn -0.809017 0.000000 0.587785
vn -0.809017 0.000000 0.587785
vn -0.587785 0.000000 0.809017
vn -0.587785 0.000000 0.809017
vn -0.309017 0.000000 0.951056
vn -0.309017 0.000000 0.951056
vn 0.000000 0.000000 1.000000
vn 0.000000 0.000000 1.000000
vn 0.309017 0.000000 0.951057
vn 0.309017 0.000000 0.951057
vn 0.587785 0.000000 0.809017
vn 0.587785 0.000000 0.809017
vn 0.809017 0.000000 0.587785
vn 0.809017 0.000000 0.587785
vn 0.951056 0.000000 0.309017
vn 0.951056 0.000000 0.309017
vn 1.000000 0.000000 0.000001
vn 1.000000 0.000000 0.000001
vn 0.822509 0.384504 -0.419089
vn 0.822509 0.384504 -0.419089
vn 0.822509 0.384504 -0.419089
vn 0.822509 0.384504 -0.419089
vn 0.652747 0.384504 -0.652747
vn 0.652747 0.384504 -0.652747
vn 0.652747 0.384504 -0.652747
vn 0.652747 0.384504 -0.652747
vn 0.419089 0.384503 -0.822509
vn 0.419089 0.384503 -0.822509
vn 0.419089 0.384503 -0.822509
vn 0.419089 0.384503 -0.822509
vn 0.144408 0.384504 -0.911758
vn 0.144408 0.384504 -0.911758
vn 0.144408 0.384504 -0.911758
vn 0.144408 0.384504 -0.911758
vn -0.144409 0.384503 -0.911758
vn -0.144409 0.384503 -0.911758
vn -0.144409 0.384504 -0.911758
vn -0.144409 0.384503 -0.911758
vn -0.419090 0.384503 -0.822509
vn -0.419090 0.384503 -0.822509
vn -0.419090 0.384503 -0.822509
vn -0.419090 0.384503 -0.822509
vn -0.652747 0.384503 -0.652747
vn -0.652747 0.384503 -0.652747
vn -0.652747 0.384503 -0.652747
vn -0.652747 0.384503 -0.652747
vn -0.822509 0.384503 -0.419089
vn -0.822509 0.384503 -0.419089
vn -0.822509 0.384503 -0.419089
vn -0.822509 0.384503 -0.419089
vn -0.911758 0.384503 -0.144408
vn -0.911758 0.384503 -0.144408
vn -0.911758 0.384503 -0.144408
vn -0.911759 0.384503 -0.144408
vn -0.911758 0.384503 0.144408
vn -0.911758 0.384503 0.144408
vn -0.911759 0.384503 0.144408
vn -0.911759 0.384503 0.144408
vn -0.822509 0.384503 0.419089
vn -0.822509 0.384503 0.419089
vn -0.822509 0.384503 0.419089
vn -0.822509 0.384503 0.419089
vn -0.652747 0.384503 0.652747
vn -0.652747 0.384503 0.652747
vn -0.652747 0.384504 0.652747
vn -0.652747 0.384504 0.652747
vn -0.419090 0.384503 0.822509
vn -0.419090 0.384503 0.822509
vn -0.419090 0.384503 0.822509
vn -0.419089 0.384503 0.822509
vn -0.144408 0.384503 0.911758
vn -0.144408 0.384503 0.911758
vn -0.144408 0.384504 0.911758
vn -0.144408 0.384504 0.911758
vn 0.144409 0.384503 0.911758
vn 0.144409 0.384503 0.911758
vn 0.144409 0.384503 0.911758
vn 0.144409 0.384503 0.911758
vn 0.419090 0.384503 0.822509
vn 0.419090 0.384503 0.822509
vn 0.419090 0.384503 0.822509
vn 0.419090 0.384504 0.822509
vn 0.652747 0.384503 0.652747
vn 0.652747 0.384503 0.652747
vn 0.652747 0.384503 0.652747
vn 0.652747 0.384503 0.652747
vn 0.822509 0.384503 0.419089
vn 0.822509 0.384503 0.419089
vn 0.822509 0.384503 0.419089
vn 0.822509 0.384503 0.419089
vn 0.911758 0.384503 0.144408
vn 0.911758 0.384503 0.144408
vn 0.911758 0.384503 0.144408
vn 0.911758 0.384503 0.144408
vn 0.911759 0.384504 -0.144407
vn 0.911759 0.384504 -0.144407
vn 0.911759 0.384504 -0.144407
vn 0.911759 0.384504 -0.144407
vn 0.822509 -0.384504 -0.419089
vn 0.822509 -0.384504 -0.419089
vn 0.822509 -0.384504 -0.419089
vn 0.822509 -0.384504 -0.419089
vn 0.652747 -0.384504 -0.652747
vn 0.652747 -0.384504 -0.652747
vn 0.652747 -0.384504 -0.652747
vn 0.652747 -0.384504 -0.652747
vn 0.419089 -0.384504 -0.822509
vn 0.419089 -0.384503 -0.822509
vn 0.419089 -0.384503 -0.822509
vn 0.419089 -0.384503 -0.822509
vn 0.144408 -0.384504 -0.911758
vn 0.144408 -0.384504 -0.911758
vn 0.144408 -0.384504 -0.911758
vn 0.144408 -0.384504 -0.911758
vn -0.144409 -0.384503 -0.911758
vn -0.144409 -0.384503 -0.911758
vn -0.144409 -0.384503 -0.911758
vn -0.144409 -0.384503 -0.911758
vn -0.419090 -0.384503 -0.822509
vn -0.419090 -0.384503 -0.822509
vn -0.419090 -0.384503 -0.822509
vn -0.419090 -0.384503 -0.822509
vn -0.652747 -0.384503 -0.652747
vn -0.652747 -0.384503 -0.652747
vn -0.652747 -0.384503 -0.652747
vn -0.652747 -0.384503 -0.652747
vn -0.822509 -0.384503 -0.419090
vn -0.822509 -0.384503 -0.419090
vn -0.822509 -0.384503 -0.419090
vn -0.822509 -0.384503 -0.419090
vn -0.911758 -0.384503 -0.144408
vn -0.911758 -0.384503 -0.144408
vn -0.911758 -0.384503 -0.144408
vn -0.911758 -0.384503 -0.144408
vn -0.911758 -0.384503 0.144408
vn -0.911758 -0.384503 0.144408
vn -0.911758 -0.384503 0.144408
vn -0.911759 -0.384503 0.144408
vn -0.822509 -0.384503 0.419090
vn -0.822509 -0.384503 0.419090
vn -0.822509 -0.384503 0.419090
vn -0.822509 -0.384503 0.419090
vn -0.652747 -0.384503 0.652747
vn -0.652747 -0.384503 0.652747
vn -0.652747 -0.384504 0.652747
vn -0.652747 -0.384504 0.652747
vn -0.419090 -0.384503 0.822509
vn -0.419089 -0.384503 0.822509
vn -0.419089 -0.384503 0.822509
vn -0.419089 -0.384503 0.822509
vn -0.144408 -0.384504 0.911758
vn -0.144408 -0.384504 0.911758
vn -0.144408 -0.384504 0.911758
vn -0.144408 -0.384504 0.911758
vn 0.144409 -0.384503 0.911758
vn 0.144409 -0.384503 0.911758
vn 0.144409 -0.384503 0.911758
vn 0.144409 -0.384503 0.911759
vn 0.419089 -0.384503 0.822509
vn 0.419089 -0.384503 0.822509
vn 0.419089 -0.384503 0.822509
vn 0.419089 -0.384503 0.822509
vn 0.652747 -0.384503 0.652747
vn 0.652747 -0.384503 0.652747
vn 0.652747 -0.384503 0.652747
vn 0.652747 -0.384503 0.652747
vn 0.822509 -0.384503 0.419090
vn 0.822509 -0.384503 0.419090
vn 0.822509 -0.384503 0.419090
vn 0.822509 -0.384503 0.419090
vn 0.911758 -0.384503 0.144408
vn 0.911759 -0.384503 0.144408
vn 0.911758 -0.384503 0.144408
vn 0.911758 -0.384503 0.144408
vn 0.911759 -0.384504 -0.144407
vn 0.911759 -0.384504 -0.144407
vn 0.911759 -0.384504 -0.144407
vn 0.911759 -0.384504 -0.144407
s 1
g pCylinder1
usemtl initialShadingGroup
f 41/1/1 42/2/2 43/3/3 44/4/4
f 42/2/2 45/5/5 46/6/6 43/3/3
f 45/85/5 47/86/7 48/87/8 46/88/6
f 47/86/7 49/89/9 50/90/10 48/87/8
f 49/89/9 51/93/11 52/94/12 50/90/10
f 51/93/11 53/98/13 54/99/14 52/94/12
f 53/51/13 55/43/15 56/46/16 54/52/14
f 55/43/15 57/44/17 58/45/18 56/46/16
f 57/44/17 59/47/19 60/48/20 58/45/18
f 59/47/19 61/53/21 62/54/22 60/48/20
f 61/53/21 63/59/23 64/60/24 62/54/22
f 63/59/23 65/66/25 66/67/26 64/60/24
f 65/115/25 67/116/27 68/117/28 66/118/26
f 67/116/27 69/119/29 70/120/30 68/117/28
f 69/119/29 71/123/31 72/124/32 70/120/30
f 71/123/31 73/128/33 74/129/34 72/124/32
f 73/30/33 75/22/35 76/23/36 74/31/34
f 75/22/35 77/15/37 78/16/38 76/23/36
f 77/15/37 79/9/39 80/10/40 78/16/38
f 79/9/39 41/1/1 44/4/4 80/10/40
s 2
f 1/8/41 2/7/42 22/12/43 21/13/44
f 2/7/42 3/11/45 23/17/46 22/12/43
f 3/92/45 4/91/47 24/96/48 23/97/46
f 4/91/47 5/95/49 25/101/50 24/96/48
f 5/95/49 6/100/51 26/105/52 25/101/50
f 6/100/51 7/104/53 27/109/54 26/105/52
f 7/58/53 8/50/55 28/57/56 27/65/54
f 8/50/55 9/49/57 29/56/58 28/57/56
f 9/49/57 10/55/59 30/62/60 29/56/58
f 10/55/59 11/61/61 31/69/62 30/62/60
f 11/61/61 12/68/63 32/75/64 31/69/62
f 12/68/63 13/74/65 33/79/66 32/75/64
f 13/122/65 14/121/67 34/126/68 33/127/66
f 14/121/67 15/125/69 35/131/70 34/126/68
f 15/125/69 16/130/71 36/135/72 35/131/70
f 16/130/71 17/134/73 37/139/74 36/135/72
f 17/36/73 18/29/75 38/35/76 37/39/74
f 18/29/75 19/21/77 39/28/78 38/35/76
f 19/21/77 20/14/79 40/20/80 39/28/78
f 20/14/79 1/8/41 21/13/44 40/20/80
s 3
f 81/19/81 82/18/82 83/25/83 84/26/84
f 82/18/82 85/24/85 86/32/86 83/25/83
f 85/103/85 87/102/87 88/107/88 86/108/86
f 87/102/87 89/106/89 90/111/90 88/107/88
f 89/106/89 91/110/91 92/113/92 90/111/90
f 91/110/91 93/112/93 94/114/94 92/113/92
f 93/73/93 95/64/95 96/72/96 94/78/94
f 95/64/95 97/63/97 98/71/98 96/72/96
f 97/63/97 99/70/99 100/77/100 98/71/98
f 99/70/99 101/76/101 102/81/102 100/77/100
f 101/76/101 103/80/103 104/83/104 102/81/102
f 103/80/103 105/82/105 106/84/106 104/83/104
f 105/133/105 107/132/107 108/137/108 106/138/106
f 107/132/107 109/136/109 110/141/110 108/137/108
f 109/136/109 111/140/111 112/143/112 110/141/110
f 111/140/111 113/142/113 114/144/114 112/143/112
f 113/41/113 115/38/115 116/40/116 114/42/114
f 115/38/115 117/34/117 118/37/118 116/40/116
f 117/34/117 119/27/119 120/33/120 118/37/118
f 119/27/119 81/19/81 84/26/84 120/33/120
s off
f 2/7/121 1/8/122 44/4/123 43/3/124
f 3/11/125 2/7/126 43/3/127 46/6/128
f 4/91/129 3/92/130 46/88/131 48/87/132
f 5/95/133 4/91/134 48/87/135 50/90/136
f 6/100/137 5/95/138 50/90/139 52/94/140
f 7/104/141 6/100/142 52/94/143 54/99/144
f 8/50/145 7/58/146 54/52/147 56/46/148
f 9/49/149 8/50/150 56/46/151 58/45/152
f 10/55/153 9/49/154 58/45/155 60/48/156
f 11/61/157 10/55/158 60/48/159 62/54/160
f 12/68/161 11/61/162 62/54/163 64/60/164
f 13/74/165 12/68/166 64/60/167 66/67/168
f 14/121/169 13/122/170 66/118/171 68/117/172
f 15/125/173 14/121/174 68/117/175 70/120/176
f 16/130/177 15/125/178 70/120/179 72/124/180
f 17/134/181 16/130/182 72/124/183 74/129/184
f 18/29/185 17/36/186 74/31/187 76/23/188
f 19/21/189 18/29/190 76/23/191 78/16/192
f 20/14/193 19/21/194 78/16/195 80/10/196
f 1/8/197 20/14/198 80/10/199 44/4/200
f 21/13/201 22/12/202 82/18/203 81/19/204
f 22/12/205 23/17/206 85/24/207 82/18/208
f 23/97/209 24/96/210 87/102/211 85/103/212
f 24/96/213 25/101/214 89/106/215 87/102/216
f 25/101/217 26/105/218 91/110/219 89/106/220
f 26/105/221 27/109/222 93/112/223 91/110/224
f 27/65/225 28/57/226 95/64/227 93/73/228
f 28/57/229 29/56/230 97/63/231 95/64/232
f 29/56/233 30/62/234 99/70/235 97/63/236
f 30/62/237 31/69/238 101/76/239 99/70/240
f 31/69/241 32/75/242 103/80/243 101/76/244
f 32/75/245 33/79/246 105/82/247 103/80/248
f 33/127/249 34/126/250 107/132/251 105/133/252
f 34/126/253 35/131/254 109/136/255 107/132/256
f 35/131/257 36/135/258 111/140/259 109/136/260
f 36/135/261 37/139/262 113/142/263 111/140/264
f 37/39/265 38/35/266 115/38/267 113/41/268
f 38/35/269 39/28/270 117/34/271 115/38/272
f 39/28/273 40/20/274 119/27/275 117/34/276
f 40/20/277 21/13/278 81/19/279 119/27/280
