# This file uses centimeters as units for non-parametric coordinates.

mtllib mazeTreasureRmLeftWall2.mtl
g default
v -2.856922 -1.467034 -40.226931
v -2.233232 -1.467034 -39.445261
v -2.233232 1.532966 -39.445261
v -2.856922 1.532966 -40.226931
v -13.958338 1.532966 -30.089942
v -14.582024 1.532966 -30.871618
v -13.958338 -1.467034 -30.089942
v -14.582024 -1.467034 -30.871618
vt 0.375000 0.000000
vt 0.375000 0.250000
vt 0.625000 0.250000
vt 0.625000 0.000000
vt 0.375000 0.500000
vt 0.625000 0.500000
vt 0.375000 0.750000
vt 0.625000 0.750000
vt 0.375000 1.000000
vt 0.625000 1.000000
vt 0.875000 0.250000
vt 0.875000 0.000000
vt 0.125000 0.000000
vt 0.125000 0.250000
vn 0.781671 0.000000 -0.623691
vn 0.781671 0.000000 -0.623691
vn 0.781671 0.000000 -0.623691
vn 0.781671 0.000000 -0.623691
vn -0.000000 1.000000 0.000000
vn -0.000000 1.000000 0.000000
vn -0.000000 1.000000 0.000000
vn -0.000000 1.000000 0.000000
vn -0.781676 0.000000 0.623685
vn -0.781676 0.000000 0.623685
vn -0.781676 0.000000 0.623685
vn -0.781676 0.000000 0.623685
vn 0.000000 -1.000000 0.000000
vn 0.000000 -1.000000 0.000000
vn 0.000000 -1.000000 0.000000
vn 0.000000 -1.000000 0.000000
vn 0.623688 0.000000 0.781674
vn 0.623688 0.000000 0.781674
vn 0.623688 0.000000 0.781674
vn 0.623688 0.000000 0.781674
vn -0.623688 0.000000 -0.781674
vn -0.623688 0.000000 -0.781674
vn -0.623688 0.000000 -0.781674
vn -0.623688 0.000000 -0.781674
s off
g polySurface4 pCube15
usemtl initialShadingGroup
f 1/1/1 4/2/2 3/3/3 2/4/4
f 4/2/5 6/5/6 5/6/7 3/3/8
f 6/5/9 8/7/10 7/8/11 5/6/12
f 8/7/13 1/9/14 2/10/15 7/8/16
f 2/4/17 3/3/18 5/11/19 7/12/20
f 8/13/21 6/14/22 4/2/23 1/1/24
