# This file uses centimeters as units for non-parametric coordinates.

mtllib mazeTreasureRmLeftWall1.mtl
g default
v -224.238796 -22.500000 -456.418419
v -212.748127 -22.500000 -466.060238
v -212.748127 22.500000 -466.060238
v -224.238796 22.500000 -456.418419
v -68.120928 22.500000 -293.700256
v -79.611597 22.500000 -284.058437
v -68.120928 -22.500000 -293.700256
v -79.611597 -22.500000 -284.058437
vt 0.375000 0.000000
vt 0.375000 0.250000
vt 0.625000 0.250000
vt 0.625000 0.000000
vt 0.375000 0.500000
vt 0.625000 0.500000
vt 0.375000 0.750000
vt 0.625000 0.750000
vt 0.375000 1.000000
vt 0.625000 1.000000
vt 0.875000 0.250000
vt 0.875000 0.000000
vt 0.125000 0.000000
vt 0.125000 0.250000
vn -0.642788 0.000000 -0.766044
vn -0.642788 0.000000 -0.766044
vn -0.642788 0.000000 -0.766044
vn -0.642788 0.000000 -0.766044
vn 0.000000 1.000000 0.000000
vn 0.000000 1.000000 0.000000
vn 0.000000 1.000000 0.000000
vn 0.000000 1.000000 0.000000
vn 0.642788 0.000000 0.766044
vn 0.642788 0.000000 0.766044
vn 0.642788 0.000000 0.766044
vn 0.642788 0.000000 0.766044
vn 0.000000 -1.000000 0.000000
vn 0.000000 -1.000000 0.000000
vn 0.000000 -1.000000 0.000000
vn 0.000000 -1.000000 0.000000
vn 0.766044 0.000000 -0.642788
vn 0.766044 0.000000 -0.642788
vn 0.766044 0.000000 -0.642788
vn 0.766044 0.000000 -0.642788
vn -0.766044 0.000000 0.642788
vn -0.766044 0.000000 0.642788
vn -0.766044 0.000000 0.642788
vn -0.766044 0.000000 0.642788
s off
g polySurface19 pCube17
usemtl initialShadingGroup
f 1/1/1 4/2/2 3/3/3 2/4/4
f 4/2/5 6/5/6 5/6/7 3/3/8
f 6/5/9 8/7/10 7/8/11 5/6/12
f 8/7/13 1/9/14 2/10/15 7/8/16
f 2/4/17 3/3/18 5/11/19 7/12/20
f 8/13/21 6/14/22 4/2/23 1/1/24
