# This file uses centimeters as units for non-parametric coordinates.

mtllib pedastal.mtl
g default
v -0.995555 -0.071927 0.995555
v -0.331852 -0.071927 0.995555
v 0.331852 -0.071927 0.995555
v 0.995555 -0.071927 0.995555
v -0.995555 0.071927 0.995555
v -0.331852 0.071927 0.995555
v 0.331852 0.071927 0.995555
v 0.995555 0.071927 0.995555
v -0.995555 0.071927 0.331852
v -0.548004 0.071927 0.548004
v 0.548004 0.071927 0.548004
v 0.995555 0.071927 0.331852
v -0.995555 0.071927 -0.331852
v -0.548004 0.071927 -0.548004
v 0.548004 0.071927 -0.548004
v 0.995555 0.071927 -0.331852
v -0.995555 0.071927 -0.995555
v -0.331852 0.071927 -0.995555
v 0.331852 0.071927 -0.995555
v 0.995555 0.071927 -0.995555
v -0.995555 -0.071927 -0.995555
v -0.331852 -0.071927 -0.995555
v 0.331852 -0.071927 -0.995555
v 0.995555 -0.071927 -0.995555
v -0.995555 -0.071927 -0.331852
v -0.331852 -0.071927 -0.331852
v 0.331852 -0.071927 -0.331852
v 0.995555 -0.071927 -0.331852
v -0.995555 -0.071927 0.331852
v -0.331852 -0.071927 0.331852
v 0.331852 -0.071927 0.331852
v 0.995555 -0.071927 0.331852
v -0.548004 1.288300 0.548004
v 0.548004 1.288300 0.548004
v 0.548004 1.288300 -0.548004
v -0.548004 1.288300 -0.548004
v -0.548004 1.103228 0.548004
v 0.548004 1.103228 0.548004
v 0.548004 1.103228 -0.548004
v -0.548004 1.103228 -0.548004
v -0.821891 1.112547 0.821891
v 0.821892 1.112547 0.821891
v 0.821892 1.278981 0.821891
v -0.821891 1.278981 0.821891
v 0.821892 1.112547 -0.821892
v 0.821892 1.278981 -0.821892
v -0.821891 1.112547 -0.821892
v -0.821891 1.278981 -0.821892
vt 0.319915 0.475362
vt 0.319915 0.422092
vt 0.479725 0.422092
vt 0.479725 0.475362
vt 0.319915 0.528633
vt 0.479725 0.528633
vt 0.319915 0.581903
vt 0.479725 0.581903
vt 0.319136 0.581902
vt 0.319136 0.528632
vt 0.478947 0.528632
vt 0.478947 0.581902
vt 0.319136 0.475362
vt 0.478947 0.475362
vt 0.319136 0.422092
vt 0.478947 0.422092
vt 0.524427 0.142420
vt 0.656360 0.142420
vt 0.656360 0.327315
vt 0.524427 0.327315
vt 0.521317 0.142420
vt 0.653250 0.142420
vt 0.653250 0.327315
vt 0.521317 0.327315
vt 0.154399 0.062582
vt 0.222706 0.062582
vt 0.222706 0.952217
vt 0.154399 0.952217
vt 0.153846 0.062582
vt 0.222153 0.062582
vt 0.222153 0.952217
vt 0.153846 0.952217
vt 0.721257 0.410175
vt 0.774527 0.410175
vt 0.757178 0.446096
vt 0.721257 0.463445
vt 0.827797 0.410175
vt 0.845145 0.446096
vt 0.757178 0.534064
vt 0.721257 0.516715
vt 0.881067 0.410175
vt 0.881067 0.463445
vt 0.774527 0.569985
vt 0.721257 0.569985
vt 0.881067 0.516715
vt 0.845145 0.534064
vt 0.827797 0.569985
vt 0.881067 0.569985
vt 0.345775 0.760166
vt 0.433742 0.760166
vt 0.433742 0.848134
vt 0.345775 0.848134
vt 0.323792 0.738183
vt 0.455725 0.738183
vt 0.455725 0.870116
vt 0.323792 0.870116
vt 0.708565 0.722351
vt 0.761835 0.722351
vt 0.761835 0.775621
vt 0.708565 0.775621
vt 0.815106 0.722351
vt 0.815106 0.775621
vt 0.761835 0.828891
vt 0.708565 0.828891
vt 0.868376 0.722351
vt 0.868376 0.775621
vt 0.815106 0.828891
vt 0.761835 0.882161
vt 0.708565 0.882161
vt 0.868376 0.828891
vt 0.815106 0.882161
vt 0.868376 0.882161
vt 0.343276 0.848134
vt 0.431244 0.848134
vt 0.453226 0.870116
vt 0.321293 0.870116
vt 0.431244 0.760166
vt 0.453226 0.738183
vt 0.343276 0.760166
vt 0.321293 0.738183
vt 0.321278 0.580286
vt 0.321278 0.527016
vt 0.481088 0.527016
vt 0.481088 0.580286
vt 0.321278 0.473746
vt 0.481088 0.473746
vt 0.321278 0.420476
vt 0.481088 0.420476
vt 0.321825 0.582254
vt 0.321590 0.528985
vt 0.481399 0.528280
vt 0.481634 0.581549
vt 0.321355 0.475715
vt 0.481164 0.475010
vt 0.321120 0.422446
vt 0.480929 0.421741
vt 0.520601 0.142420
vt 0.652534 0.142420
vt 0.652534 0.327315
vt 0.520601 0.327315
vt 0.652114 0.327315
vt 0.520181 0.327315
vt 0.520181 0.142420
vt 0.652114 0.142420
vt 0.154483 0.062582
vt 0.222790 0.062582
vt 0.222790 0.952217
vt 0.154483 0.952217
vt 0.222429 0.952217
vt 0.154122 0.952217
vt 0.154122 0.062582
vt 0.222429 0.062582
vn 0.000000 0.000000 1.000000
vn 0.000000 0.000000 1.000000
vn 0.000000 0.000000 1.000000
vn 0.000000 0.000000 1.000000
vn 0.000000 0.000000 1.000000
vn 0.000000 0.000000 1.000000
vn 0.000000 0.000000 1.000000
vn 0.000000 0.000000 1.000000
vn 0.000000 1.000000 0.000000
vn 0.000000 1.000000 -0.000000
vn 0.000000 1.000000 -0.000000
vn 0.000000 1.000000 0.000000
vn 0.000000 1.000000 -0.000000
vn 0.000000 1.000000 -0.000000
vn 0.000000 1.000000 0.000000
vn 0.000000 1.000000 0.000000
vn 0.000000 1.000000 0.000000
vn 0.000000 1.000000 0.000000
vn 0.000000 1.000000 0.000000
vn 0.000000 1.000000 0.000000
vn 0.000000 1.000000 0.000000
vn 0.000000 1.000000 0.000000
vn 0.000000 1.000000 0.000000
vn 0.000000 1.000000 0.000000
vn 0.000000 1.000000 0.000000
vn 0.000000 1.000000 0.000000
vn 0.000000 1.000000 0.000000
vn 0.000000 1.000000 0.000000
vn 0.000000 0.000000 -1.000000
vn 0.000000 0.000000 -1.000000
vn 0.000000 0.000000 -1.000000
vn 0.000000 0.000000 -1.000000
vn 0.000000 0.000000 -1.000000
vn 0.000000 0.000000 -1.000000
vn 0.000000 0.000000 -1.000000
vn 0.000000 0.000000 -1.000000
vn 0.000000 -1.000000 0.000000
vn 0.000000 -1.000000 0.000000
vn 0.000000 -1.000000 0.000000
vn 0.000000 -1.000000 0.000000
vn 0.000000 -1.000000 0.000000
vn 0.000000 -1.000000 0.000000
vn 0.000000 -1.000000 0.000000
vn 0.000000 -1.000000 0.000000
vn 0.000000 -1.000000 0.000000
vn 0.000000 -1.000000 0.000000
vn 0.000000 -1.000000 0.000000
vn 0.000000 -1.000000 0.000000
vn 0.000000 -1.000000 0.000000
vn 0.000000 -1.000000 0.000000
vn 0.000000 -1.000000 0.000000
vn 0.000000 -1.000000 0.000000
vn 1.000000 -0.000000 0.000000
vn 1.000000 -0.000000 0.000000
vn 1.000000 -0.000000 0.000000
vn 1.000000 -0.000000 0.000000
vn 1.000000 -0.000000 0.000000
vn 1.000000 -0.000000 0.000000
vn 1.000000 0.000000 0.000000
vn 1.000000 0.000000 0.000000
vn -1.000000 0.000000 0.000000
vn -1.000000 0.000000 0.000000
vn -1.000000 0.000000 0.000000
vn -1.000000 0.000000 0.000000
vn -1.000000 0.000000 0.000000
vn -1.000000 0.000000 0.000000
vn -1.000000 0.000000 0.000000
vn -1.000000 0.000000 0.000000
vn 0.000000 0.000000 1.000000
vn 0.000000 0.000000 1.000000
vn 0.000000 0.000000 1.000000
vn 0.000000 0.000000 1.000000
vn 1.000000 0.000000 0.000000
vn 1.000000 0.000000 0.000000
vn 1.000000 0.000000 0.000000
vn 1.000000 0.000000 0.000000
vn 0.000000 0.000000 -1.000000
vn 0.000000 0.000000 -1.000000
vn 0.000000 0.000000 -1.000000
vn 0.000000 0.000000 -1.000000
vn -1.000000 0.000000 0.000000
vn -1.000000 0.000000 0.000000
vn -1.000000 0.000000 0.000000
vn -1.000000 0.000000 0.000000
vn 0.000000 0.000000 1.000000
vn 0.000000 0.000000 1.000000
vn 0.000000 0.000000 1.000000
vn 0.000000 0.000000 1.000000
vn 1.000000 0.000000 0.000000
vn 1.000000 0.000000 0.000000
vn 1.000000 0.000000 0.000000
vn 1.000000 0.000000 0.000000
vn 0.000000 0.000000 -1.000000
vn 0.000000 0.000000 -1.000000
vn 0.000000 0.000000 -1.000000
vn 0.000000 0.000000 -1.000000
vn -1.000000 0.000000 0.000000
vn -1.000000 0.000000 0.000000
vn -1.000000 0.000000 0.000000
vn -1.000000 0.000000 0.000000
vn 0.000000 -0.999422 0.034007
vn 0.000000 -0.999422 0.034007
vn 0.000000 -0.999422 0.034007
vn 0.000000 -0.999422 0.034007
vn 0.000000 0.999422 0.034006
vn 0.000000 0.999422 0.034006
vn 0.000000 0.999422 0.034006
vn 0.000000 0.999422 0.034006
vn 0.034007 -0.999422 0.000000
vn 0.034007 -0.999422 0.000000
vn 0.034007 -0.999422 0.000000
vn 0.034007 -0.999422 0.000000
vn 0.034007 0.999422 0.000000
vn 0.034007 0.999422 0.000000
vn 0.034007 0.999422 0.000000
vn 0.034007 0.999422 0.000000
vn 0.000000 -0.999422 -0.034007
vn 0.000000 -0.999422 -0.034007
vn 0.000000 -0.999422 -0.034007
vn 0.000000 -0.999422 -0.034007
vn 0.000000 0.999422 -0.034006
vn 0.000000 0.999422 -0.034006
vn 0.000000 0.999422 -0.034006
vn 0.000000 0.999422 -0.034006
vn -0.034007 -0.999422 0.000000
vn -0.034007 -0.999422 0.000000
vn -0.034007 -0.999422 0.000000
vn -0.034007 -0.999422 0.000000
vn -0.034007 0.999422 0.000000
vn -0.034007 0.999422 0.000000
vn -0.034007 0.999422 0.000000
vn -0.034007 0.999422 0.000000
s 1
g pCube1
usemtl initialShadingGroup
f 1/81/1 2/82/2 6/83/3 5/84/4
f 2/82/2 3/85/5 7/86/6 6/83/3
f 3/85/5 4/87/7 8/88/8 7/86/6
s 2
f 5/33/9 6/34/10 10/35/11 9/36/12
f 6/34/10 7/37/13 11/38/14 10/35/11
f 7/37/13 8/41/15 12/42/16 11/38/14
f 9/36/12 10/35/11 14/39/17 13/40/18
s off
f 33/49/19 34/50/20 35/51/21 36/52/22
s 2
f 11/38/14 12/42/16 16/45/23 15/46/24
f 13/40/18 14/39/17 18/43/25 17/44/26
f 14/39/17 15/46/24 19/47/27 18/43/25
f 15/46/24 16/45/23 20/48/28 19/47/27
s 3
f 17/89/29 18/90/30 22/91/31 21/92/32
f 18/90/30 19/93/33 23/94/34 22/91/31
f 19/93/33 20/95/35 24/96/36 23/94/34
s 4
f 21/57/37 22/58/38 26/59/39 25/60/40
f 22/58/38 23/61/41 27/62/42 26/59/39
f 23/61/41 24/65/43 28/66/44 27/62/42
f 25/60/40 26/59/39 30/63/45 29/64/46
f 26/59/39 27/62/42 31/67/47 30/63/45
f 27/62/42 28/66/44 32/70/48 31/67/47
f 29/64/46 30/63/45 2/68/49 1/69/50
f 30/63/45 31/67/47 3/71/51 2/68/49
f 31/67/47 32/70/48 4/72/52 3/71/51
s 5
f 28/1/53 24/2/54 20/3/55 16/4/56
f 32/5/57 28/1/53 16/4/56 12/6/58
f 4/7/59 32/5/57 12/6/58 8/8/60
s 6
f 21/9/61 25/10/62 13/11/63 17/12/64
f 25/10/62 29/13/65 9/14/66 13/11/63
f 29/13/65 1/15/67 5/16/68 9/14/66
s off
f 41/97/69 42/98/70 43/99/71 44/100/72
f 42/17/73 45/18/74 46/19/75 43/20/76
f 45/101/77 47/102/78 48/103/79 46/104/80
f 47/21/81 41/22/82 44/23/83 48/24/84
f 10/105/85 11/106/86 38/107/87 37/108/88
f 11/25/89 15/26/90 39/27/91 38/28/92
f 15/109/93 14/110/94 40/111/95 39/112/96
f 14/29/97 10/30/98 37/31/99 40/32/100
f 37/73/101 38/74/102 42/75/103 41/76/104
f 34/50/105 33/49/106 44/53/107 43/54/108
f 38/74/109 39/77/110 45/78/111 42/75/112
f 35/51/113 34/50/114 43/54/115 46/55/116
f 39/77/117 40/79/118 47/80/119 45/78/120
f 36/52/121 35/51/122 46/55/123 48/56/124
f 40/79/125 37/73/126 41/76/127 47/80/128
f 33/49/129 36/52/130 48/56/131 44/53/132
