# This file uses centimeters as units for non-parametric coordinates.

mtllib Chair.mtl
g default
v -0.880586 5.290537 0.729113
v -0.880586 3.741788 0.729113
v -0.462764 5.290537 0.729113
v -0.462764 3.741788 0.729113
v -0.462764 5.290537 -1.646992
v -0.462764 3.741788 -1.646992
v -0.880586 5.290537 -1.646992
v -0.880586 3.741788 -1.646992
v -1.089282 1.936948 0.729113
v 1.169867 1.936948 0.729113
v -1.089282 2.408899 0.729113
v 1.169867 2.408899 0.729113
v -1.089282 2.408899 -1.646992
v 1.169867 2.408899 -1.646992
v -1.089282 1.936948 -1.646992
v 1.169867 1.936948 -1.646992
v -0.832298 -1.911085 0.489575
v -0.481232 -1.911085 0.489575
v -0.832298 4.280627 0.489575
v -0.481232 4.280627 0.489575
v -0.832298 4.280627 0.156936
v -0.481232 4.280627 0.156936
v -0.832298 -1.911085 0.156936
v -0.481232 -1.911085 0.156936
v -0.832298 -1.911085 -1.099790
v -0.481232 -1.911085 -1.099790
v -0.832298 4.280627 -1.099790
v -0.481232 4.280627 -1.099790
v -0.832298 4.280627 -1.432429
v -0.481232 4.280627 -1.432429
v -0.832298 -1.911085 -1.432429
v -0.481232 -1.911085 -1.432429
v 0.627031 0.058139 0.489575
v 0.978096 0.058139 0.489575
v 0.627031 2.311402 0.489575
v 0.978096 2.311402 0.489575
v 0.627031 2.311402 0.156936
v 0.978096 2.311402 0.156936
v 0.627031 0.058139 0.156936
v 0.978096 0.058139 0.156936
v 0.627031 0.058139 -1.099790
v 0.978096 0.058139 -1.099790
v 0.627031 2.311402 -1.099790
v 0.978096 2.311402 -1.099790
v 0.627031 2.311402 -1.432429
v 0.978096 2.311402 -1.432429
v 0.627031 0.058139 -1.432429
v 0.978096 0.058139 -1.432429
vt 0.386569 0.043485
vt 0.613431 0.043485
vt 0.613431 0.270347
vt 0.386569 0.270347
vt 0.613431 0.497209
vt 0.386569 0.497209
vt 0.613431 0.724071
vt 0.386569 0.724071
vt 0.613431 0.950932
vt 0.386569 0.950932
vt 0.840293 0.043485
vt 0.840293 0.270347
vt 0.159707 0.043485
vt 0.159707 0.270347
vt 0.386569 0.043485
vt 0.613431 0.043485
vt 0.386569 0.270347
vt 0.613431 0.270347
vt 0.386569 0.497209
vt 0.613431 0.497209
vt 0.386569 0.724071
vt 0.613431 0.724071
vt 0.386569 0.950932
vt 0.613431 0.950932
vt 0.840293 0.043485
vt 0.840293 0.270347
vt 0.159707 0.043485
vt 0.159707 0.270347
vt 0.151266 0.621507
vt 0.233515 0.621507
vt 0.151266 0.703756
vt 0.233515 0.703756
vt 0.151266 0.786005
vt 0.233515 0.786005
vt 0.151266 0.868253
vt 0.233515 0.868253
vt 0.151266 0.950502
vt 0.233515 0.950502
vt 0.315764 0.621507
vt 0.315764 0.703756
vt 0.069018 0.621507
vt 0.069018 0.703756
vt 0.149379 0.628952
vt 0.231628 0.628952
vt 0.149379 0.711200
vt 0.231628 0.711200
vt 0.149379 0.793449
vt 0.231628 0.793449
vt 0.149379 0.875698
vt 0.231628 0.875698
vt 0.149379 0.957947
vt 0.231628 0.957947
vt 0.313876 0.628952
vt 0.313876 0.711200
vt 0.067130 0.628952
vt 0.067130 0.711200
vt 0.151266 0.621507
vt 0.233515 0.621507
vt 0.151266 0.703756
vt 0.233515 0.703756
vt 0.151266 0.786005
vt 0.233515 0.786005
vt 0.151266 0.868253
vt 0.233515 0.868253
vt 0.151266 0.950502
vt 0.233515 0.950502
vt 0.315764 0.621507
vt 0.315764 0.703756
vt 0.069018 0.621507
vt 0.069018 0.703756
vt 0.151266 0.621507
vt 0.233515 0.621507
vt 0.151266 0.703756
vt 0.233515 0.703756
vt 0.151266 0.786005
vt 0.233515 0.786005
vt 0.151266 0.868253
vt 0.233515 0.868253
vt 0.151266 0.950502
vt 0.233515 0.950502
vt 0.315764 0.621507
vt 0.315764 0.703756
vt 0.069018 0.621507
vt 0.069018 0.703756
vn 0.000000 0.000000 1.000000
vn 0.000000 0.000000 1.000000
vn 0.000000 0.000000 1.000000
vn 0.000000 0.000000 1.000000
vn 1.000000 0.000000 0.000000
vn 1.000000 0.000000 0.000000
vn 1.000000 0.000000 0.000000
vn 1.000000 0.000000 0.000000
vn 0.000000 0.000000 -1.000000
vn 0.000000 0.000000 -1.000000
vn 0.000000 0.000000 -1.000000
vn 0.000000 0.000000 -1.000000
vn -1.000000 0.000000 0.000000
vn -1.000000 0.000000 0.000000
vn -1.000000 0.000000 0.000000
vn -1.000000 0.000000 0.000000
vn 0.000000 -1.000000 0.000000
vn 0.000000 -1.000000 0.000000
vn 0.000000 -1.000000 0.000000
vn 0.000000 -1.000000 0.000000
vn 0.000000 1.000000 0.000000
vn 0.000000 1.000000 0.000000
vn 0.000000 1.000000 0.000000
vn 0.000000 1.000000 0.000000
vn 0.000000 0.000000 1.000000
vn 0.000000 0.000000 1.000000
vn 0.000000 0.000000 1.000000
vn 0.000000 0.000000 1.000000
vn 0.000000 1.000000 0.000000
vn 0.000000 1.000000 0.000000
vn 0.000000 1.000000 0.000000
vn 0.000000 1.000000 0.000000
vn 0.000000 0.000000 -1.000000
vn 0.000000 0.000000 -1.000000
vn 0.000000 0.000000 -1.000000
vn 0.000000 0.000000 -1.000000
vn 0.000000 -1.000000 0.000000
vn 0.000000 -1.000000 0.000000
vn 0.000000 -1.000000 0.000000
vn 0.000000 -1.000000 0.000000
vn 1.000000 0.000000 0.000000
vn 1.000000 0.000000 0.000000
vn 1.000000 0.000000 0.000000
vn 1.000000 0.000000 0.000000
vn -1.000000 0.000000 0.000000
vn -1.000000 0.000000 0.000000
vn -1.000000 0.000000 0.000000
vn -1.000000 0.000000 0.000000
vn 0.000000 0.000000 1.000000
vn 0.000000 0.000000 1.000000
vn 0.000000 0.000000 1.000000
vn 0.000000 0.000000 1.000000
vn 0.000000 1.000000 0.000000
vn 0.000000 1.000000 0.000000
vn 0.000000 1.000000 0.000000
vn 0.000000 1.000000 0.000000
vn 0.000000 0.000000 -1.000000
vn 0.000000 0.000000 -1.000000
vn 0.000000 0.000000 -1.000000
vn 0.000000 0.000000 -1.000000
vn 0.000000 -1.000000 0.000000
vn 0.000000 -1.000000 0.000000
vn 0.000000 -1.000000 0.000000
vn 0.000000 -1.000000 0.000000
vn 1.000000 0.000000 0.000000
vn 1.000000 0.000000 0.000000
vn 1.000000 0.000000 0.000000
vn 1.000000 0.000000 0.000000
vn -1.000000 0.000000 0.000000
vn -1.000000 0.000000 0.000000
vn -1.000000 0.000000 0.000000
vn -1.000000 0.000000 0.000000
vn 0.000000 0.000000 1.000000
vn 0.000000 0.000000 1.000000
vn 0.000000 0.000000 1.000000
vn 0.000000 0.000000 1.000000
vn 0.000000 1.000000 0.000000
vn 0.000000 1.000000 0.000000
vn 0.000000 1.000000 0.000000
vn 0.000000 1.000000 0.000000
vn 0.000000 0.000000 -1.000000
vn 0.000000 0.000000 -1.000000
vn 0.000000 0.000000 -1.000000
vn 0.000000 0.000000 -1.000000
vn 0.000000 -1.000000 0.000000
vn 0.000000 -1.000000 0.000000
vn 0.000000 -1.000000 0.000000
vn 0.000000 -1.000000 0.000000
vn 1.000000 0.000000 0.000000
vn 1.000000 0.000000 0.000000
vn 1.000000 0.000000 0.000000
vn 1.000000 0.000000 0.000000
vn -1.000000 0.000000 0.000000
vn -1.000000 0.000000 0.000000
vn -1.000000 0.000000 0.000000
vn -1.000000 0.000000 0.000000
vn 0.000000 0.000000 1.000000
vn 0.000000 0.000000 1.000000
vn 0.000000 0.000000 1.000000
vn 0.000000 0.000000 1.000000
vn 0.000000 1.000000 0.000000
vn 0.000000 1.000000 0.000000
vn 0.000000 1.000000 0.000000
vn 0.000000 1.000000 0.000000
vn 0.000000 0.000000 -1.000000
vn 0.000000 0.000000 -1.000000
vn 0.000000 0.000000 -1.000000
vn 0.000000 0.000000 -1.000000
vn 0.000000 -1.000000 0.000000
vn 0.000000 -1.000000 0.000000
vn 0.000000 -1.000000 0.000000
vn 0.000000 -1.000000 0.000000
vn 1.000000 0.000000 0.000000
vn 1.000000 0.000000 0.000000
vn 1.000000 0.000000 0.000000
vn 1.000000 0.000000 0.000000
vn -1.000000 0.000000 0.000000
vn -1.000000 0.000000 0.000000
vn -1.000000 0.000000 0.000000
vn -1.000000 0.000000 0.000000
vn 0.000000 0.000000 1.000000
vn 0.000000 0.000000 1.000000
vn 0.000000 0.000000 1.000000
vn 0.000000 0.000000 1.000000
vn 0.000000 1.000000 0.000000
vn 0.000000 1.000000 0.000000
vn 0.000000 1.000000 0.000000
vn 0.000000 1.000000 0.000000
vn 0.000000 0.000000 -1.000000
vn 0.000000 0.000000 -1.000000
vn 0.000000 0.000000 -1.000000
vn 0.000000 0.000000 -1.000000
vn 0.000000 -1.000000 0.000000
vn 0.000000 -1.000000 0.000000
vn 0.000000 -1.000000 0.000000
vn 0.000000 -1.000000 0.000000
vn 1.000000 0.000000 0.000000
vn 1.000000 0.000000 0.000000
vn 1.000000 0.000000 0.000000
vn 1.000000 0.000000 0.000000
vn -1.000000 0.000000 0.000000
vn -1.000000 0.000000 0.000000
vn -1.000000 0.000000 0.000000
vn -1.000000 0.000000 0.000000
s 1
g polySurface38
usemtl lambert5SG
f 1/1/1 2/2/2 3/4/3
f 3/4/3 2/2/2 4/3/4
s 2
f 3/4/5 4/3/6 5/6/7
f 5/6/7 4/3/6 6/5/8
s 3
f 5/6/9 6/5/10 7/8/11
f 7/8/11 6/5/10 8/7/12
s 4
f 7/8/13 8/7/14 1/10/15
f 1/10/15 8/7/14 2/9/16
s 5
f 2/2/17 8/11/18 4/3/19
f 4/3/19 8/11/18 6/12/20
s 6
f 7/13/21 1/1/22 5/14/23
f 5/14/23 1/1/22 3/4/24
s 7
f 9/15/25 10/16/26 11/17/27
f 11/17/27 10/16/26 12/18/28
s 8
f 11/17/29 12/18/30 13/19/31
f 13/19/31 12/18/30 14/20/32
s 9
f 13/19/33 14/20/34 15/21/35
f 15/21/35 14/20/34 16/22/36
s 10
f 15/21/37 16/22/38 9/23/39
f 9/23/39 16/22/38 10/24/40
s 11
f 10/16/41 16/25/42 12/18/43
f 12/18/43 16/25/42 14/26/44
s 12
f 15/27/45 9/15/46 13/28/47
f 13/28/47 9/15/46 11/17/48
s 13
f 17/29/49 18/30/50 19/31/51
f 19/31/51 18/30/50 20/32/52
s 14
f 19/31/53 20/32/54 21/33/55
f 21/33/55 20/32/54 22/34/56
s 15
f 21/33/57 22/34/58 23/35/59
f 23/35/59 22/34/58 24/36/60
s 16
f 23/35/61 24/36/62 17/37/63
f 17/37/63 24/36/62 18/38/64
s 17
f 18/30/65 24/39/66 20/32/67
f 20/32/67 24/39/66 22/40/68
s 18
f 23/41/69 17/29/70 21/42/71
f 21/42/71 17/29/70 19/31/72
s 19
f 25/43/73 26/44/74 27/45/75
f 27/45/75 26/44/74 28/46/76
s 20
f 27/45/77 28/46/78 29/47/79
f 29/47/79 28/46/78 30/48/80
s 21
f 29/47/81 30/48/82 31/49/83
f 31/49/83 30/48/82 32/50/84
s 22
f 31/49/85 32/50/86 25/51/87
f 25/51/87 32/50/86 26/52/88
s 23
f 26/44/89 32/53/90 28/46/91
f 28/46/91 32/53/90 30/54/92
s 24
f 31/55/93 25/43/94 29/56/95
f 29/56/95 25/43/94 27/45/96
s 25
f 33/57/97 34/58/98 35/59/99
f 35/59/99 34/58/98 36/60/100
s 26
f 35/59/101 36/60/102 37/61/103
f 37/61/103 36/60/102 38/62/104
s 27
f 37/61/105 38/62/106 39/63/107
f 39/63/107 38/62/106 40/64/108
s 28
f 39/63/109 40/64/110 33/65/111
f 33/65/111 40/64/110 34/66/112
s 29
f 34/58/113 40/67/114 36/60/115
f 36/60/115 40/67/114 38/68/116
s 30
f 39/69/117 33/57/118 37/70/119
f 37/70/119 33/57/118 35/59/120
s 31
f 41/71/121 42/72/122 43/73/123
f 43/73/123 42/72/122 44/74/124
s 32
f 43/73/125 44/74/126 45/75/127
f 45/75/127 44/74/126 46/76/128
s 33
f 45/75/129 46/76/130 47/77/131
f 47/77/131 46/76/130 48/78/132
s 34
f 47/77/133 48/78/134 41/79/135
f 41/79/135 48/78/134 42/80/136
s 35
f 42/72/137 48/81/138 44/74/139
f 44/74/139 48/81/138 46/82/140
s 36
f 47/83/141 41/71/142 45/84/143
f 45/84/143 41/71/142 43/73/144
