# This file uses centimeters as units for non-parametric coordinates.

mtllib door.mtl
g default
v -1.240712 -1.130840 0.446261
v -0.624468 -1.130840 0.446261
v -1.240712 1.130840 0.446261
v -0.624468 1.130840 0.446261
v -1.240712 1.130840 -0.446261
v -0.624468 1.130840 -0.446261
v -1.240712 -1.130840 -0.446261
v -0.624468 -1.130840 -0.446261
v 0.599861 -1.130840 0.446261
v 1.216105 -1.130840 0.446261
v 0.599861 1.130840 0.446261
v 1.216105 1.130840 0.446261
v 0.599861 1.130840 -0.446261
v 1.216105 1.130840 -0.446261
v 0.599861 -1.130840 -0.446261
v 1.216105 -1.130840 -0.446261
v 0.614156 1.112874 -0.446687
v 0.584097 1.233175 -0.446687
v 0.496863 1.341701 -0.446687
v 0.360992 1.427827 -0.446687
v 0.189785 1.483124 -0.446687
v -0.000000 1.502177 -0.446687
v -0.189785 1.483124 -0.446687
v -0.360992 1.427827 -0.446687
v -0.496863 1.341701 -0.446687
v -0.584097 1.233175 -0.446687
v -0.614156 1.112874 -0.446687
v 0.614156 1.112874 0.446687
v 0.584097 1.233175 0.446687
v 0.496863 1.341701 0.446687
v 0.360992 1.427827 0.446687
v 0.189785 1.483124 0.446687
v -0.000000 1.502177 0.446687
v -0.189785 1.483124 0.446687
v -0.360992 1.427827 0.446687
v -0.496863 1.341701 0.446687
v -0.584097 1.233175 0.446687
v -0.614156 1.112874 0.446687
v 1.228312 1.112874 0.446687
v 1.168194 1.353477 0.446687
v 0.993725 1.570528 0.446687
v 0.721984 1.742780 0.446687
v 0.379569 1.853374 0.446687
v -0.000000 1.891481 0.446687
v -0.379569 1.853374 0.446687
v -0.721984 1.742781 0.446687
v -0.993726 1.570528 0.446687
v -1.168195 1.353477 0.446687
v -1.228312 1.112874 0.446687
v 1.228312 1.112874 -0.446687
v 1.168194 1.353477 -0.446687
v 0.993725 1.570528 -0.446687
v 0.721984 1.742780 -0.446687
v 0.379569 1.853374 -0.446687
v -0.000000 1.891481 -0.446687
v -0.379569 1.853374 -0.446687
v -0.721984 1.742781 -0.446687
v -0.993726 1.570528 -0.446687
v -1.168195 1.353477 -0.446687
v -1.228312 1.112874 -0.446687
vt 0.144191 0.030756
vt 0.296243 0.030756
vt 0.296243 0.525622
vt 0.144191 0.525622
vt 0.145801 0.025962
vt 0.297854 0.025962
vt 0.297854 0.520828
vt 0.145801 0.520828
vt 0.147543 0.028359
vt 0.299596 0.028359
vt 0.299596 0.523225
vt 0.147543 0.523225
vt 0.153215 0.028635
vt 0.305268 0.028635
vt 0.305268 0.523501
vt 0.153215 0.523501
vt 0.089344 0.727354
vt 0.063021 0.727354
vt 0.063021 0.575157
vt 0.089344 0.575157
vt 0.113090 0.727354
vt 0.113090 0.575157
vt 0.131935 0.727354
vt 0.131935 0.575157
vt 0.083006 0.572760
vt 0.106752 0.572760
vt 0.106752 0.724957
vt 0.083006 0.724957
vt 0.125597 0.572760
vt 0.125597 0.724957
vt 0.056684 0.572760
vt 0.056684 0.724957
vt 0.157709 0.931484
vt 0.105064 0.931484
vt 0.105064 0.779286
vt 0.157709 0.779286
vt 0.205201 0.931484
vt 0.205201 0.779286
vt 0.242891 0.931484
vt 0.242891 0.779286
vt 0.158305 0.779286
vt 0.205797 0.779286
vt 0.205797 0.931484
vt 0.158305 0.931484
vt 0.243486 0.779286
vt 0.243486 0.931484
vt 0.105660 0.779286
vt 0.105660 0.931484
vt 0.133815 0.575157
vt 0.056886 0.575157
vt 0.056886 0.727354
vt 0.133815 0.727354
vt 0.107493 0.575157
vt 0.107493 0.727354
vt 0.081170 0.575157
vt 0.081170 0.727354
vt 0.057424 0.575157
vt 0.057424 0.727354
vt 0.087032 0.931041
vt 0.039540 0.930926
vt 0.039909 0.778728
vt 0.087401 0.778844
vt 0.139676 0.931169
vt 0.140046 0.778971
vt 0.192321 0.931296
vt 0.192691 0.779099
vt 0.239813 0.931412
vt 0.240182 0.779215
vt 0.057124 0.028359
vt 0.142595 0.028359
vt 0.142595 0.523225
vt 0.057124 0.523225
vt 0.050641 0.030756
vt 0.136112 0.030756
vt 0.136112 0.525622
vt 0.050641 0.525622
vt 0.056325 0.030756
vt 0.141796 0.030756
vt 0.141796 0.525622
vt 0.056325 0.525622
vt 0.049199 0.023565
vt 0.134671 0.023565
vt 0.134671 0.518431
vt 0.049199 0.518431
vt 0.695780 0.590199
vt 0.669457 0.586030
vt 0.669457 0.500849
vt 0.722102 0.509187
vt 0.719526 0.602298
vt 0.769594 0.533385
vt 0.738370 0.621143
vt 0.807284 0.571075
vt 0.750470 0.644889
vt 0.831482 0.618567
vt 0.754639 0.671212
vt 0.839820 0.671212
vt 0.750470 0.697534
vt 0.831482 0.723857
vt 0.738370 0.721280
vt 0.807284 0.771348
vt 0.719526 0.740125
vt 0.769594 0.809038
vt 0.695780 0.752224
vt 0.722102 0.833236
vt 0.669457 0.756393
vt 0.669457 0.841575
vt 0.610677 0.509187
vt 0.663322 0.500849
vt 0.663322 0.586030
vt 0.636999 0.590199
vt 0.563185 0.533385
vt 0.613254 0.602298
vt 0.525495 0.571075
vt 0.594409 0.621143
vt 0.501297 0.618567
vt 0.582310 0.644889
vt 0.492959 0.671212
vt 0.578140 0.671212
vt 0.501297 0.723857
vt 0.582310 0.697534
vt 0.525495 0.771348
vt 0.594409 0.721280
vt 0.563185 0.809038
vt 0.613254 0.740125
vt 0.610677 0.833236
vt 0.636999 0.752224
vt 0.663322 0.841574
vt 0.663322 0.756393
vn 0.000000 0.000000 1.000000
vn 0.000000 0.000000 1.000000
vn 0.000000 0.000000 1.000000
vn 0.000000 0.000000 1.000000
vn 0.000000 0.000000 -1.000000
vn 0.000000 0.000000 -1.000000
vn 0.000000 0.000000 -1.000000
vn 0.000000 0.000000 -1.000000
vn 1.000000 0.000000 0.000000
vn 1.000000 0.000000 0.000000
vn 1.000000 0.000000 0.000000
vn 1.000000 0.000000 0.000000
vn -1.000000 0.000000 0.000000
vn -1.000000 0.000000 0.000000
vn -1.000000 0.000000 0.000000
vn -1.000000 0.000000 0.000000
vn 0.000000 0.000000 1.000000
vn 0.000000 0.000000 1.000000
vn 0.000000 0.000000 1.000000
vn 0.000000 0.000000 1.000000
vn 0.000000 0.000000 -1.000000
vn 0.000000 0.000000 -1.000000
vn 0.000000 0.000000 -1.000000
vn 0.000000 0.000000 -1.000000
vn 1.000000 0.000000 0.000000
vn 1.000000 0.000000 0.000000
vn 1.000000 0.000000 0.000000
vn 1.000000 0.000000 0.000000
vn -1.000000 0.000000 0.000000
vn -1.000000 0.000000 0.000000
vn -1.000000 0.000000 0.000000
vn -1.000000 0.000000 0.000000
vn -0.889902 -0.456151 0.000000
vn -0.970174 -0.242411 0.000000
vn -0.970174 -0.242411 0.000000
vn -0.889902 -0.456151 0.000000
vn -0.657423 -0.753522 0.000000
vn -0.657423 -0.753522 0.000000
vn -0.418313 -0.908303 0.000000
vn -0.418313 -0.908303 0.000000
vn -0.201727 -0.979442 0.000000
vn -0.201727 -0.979442 0.000000
vn -0.000000 -1.000000 0.000000
vn -0.000000 -1.000000 0.000000
vn 0.201727 -0.979442 0.000000
vn 0.201727 -0.979442 0.000000
vn 0.418313 -0.908303 0.000000
vn 0.418313 -0.908303 0.000000
vn 0.657423 -0.753522 0.000000
vn 0.657423 -0.753522 0.000000
vn 0.889902 -0.456151 0.000000
vn 0.889902 -0.456151 0.000000
vn 0.970174 -0.242411 0.000000
vn 0.970174 -0.242411 0.000000
vn 0.000000 0.000000 1.000000
vn 0.000000 0.000000 1.000000
vn 0.000000 0.000000 1.000000
vn 0.000000 0.000000 1.000000
vn -0.000000 0.000000 1.000000
vn -0.000000 0.000000 1.000000
vn -0.000000 0.000000 1.000000
vn -0.000000 0.000000 1.000000
vn -0.000000 0.000000 1.000000
vn -0.000000 0.000000 1.000000
vn -0.000000 0.000000 1.000000
vn -0.000000 0.000000 1.000000
vn 0.000000 0.000000 1.000000
vn 0.000000 0.000000 1.000000
vn 0.000000 0.000000 1.000000
vn 0.000000 0.000000 1.000000
vn 0.000000 0.000000 1.000000
vn 0.000000 0.000000 1.000000
vn 0.000000 0.000000 1.000000
vn 0.000000 0.000000 1.000000
vn 0.000000 0.000000 1.000000
vn 0.000000 0.000000 1.000000
vn 0.889902 0.456151 0.000000
vn 0.970174 0.242411 0.000000
vn 0.970174 0.242411 0.000000
vn 0.889902 0.456151 0.000000
vn 0.657423 0.753522 0.000000
vn 0.657423 0.753522 0.000000
vn 0.418313 0.908303 0.000000
vn 0.418313 0.908303 0.000000
vn 0.201728 0.979442 0.000000
vn 0.201728 0.979442 0.000000
vn -0.000000 1.000000 0.000000
vn -0.000000 1.000000 0.000000
vn -0.201727 0.979442 0.000000
vn -0.201727 0.979442 0.000000
vn -0.418313 0.908303 0.000000
vn -0.418313 0.908303 0.000000
vn -0.657423 0.753522 0.000000
vn -0.657423 0.753522 0.000000
vn -0.889902 0.456151 0.000000
vn -0.889902 0.456151 0.000000
vn -0.970174 0.242411 0.000000
vn -0.970174 0.242411 0.000000
vn 0.000000 0.000000 -1.000000
vn 0.000000 0.000000 -1.000000
vn 0.000000 0.000000 -1.000000
vn 0.000000 0.000000 -1.000000
vn -0.000000 0.000000 -1.000000
vn -0.000000 0.000000 -1.000000
vn -0.000000 0.000000 -1.000000
vn -0.000000 0.000000 -1.000000
vn -0.000000 0.000000 -1.000000
vn 0.000000 0.000000 -1.000000
vn -0.000000 0.000000 -1.000000
vn -0.000000 0.000000 -1.000000
vn 0.000000 0.000000 -1.000000
vn 0.000000 0.000000 -1.000000
vn 0.000000 0.000000 -1.000000
vn 0.000000 0.000000 -1.000000
vn 0.000000 0.000000 -1.000000
vn 0.000000 0.000000 -1.000000
vn 0.000000 0.000000 -1.000000
vn 0.000000 0.000000 -1.000000
vn 0.000000 0.000000 -1.000000
vn 0.000000 0.000000 -1.000000
s off
g pCube3
usemtl initialShadingGroup
f 1/69/1 2/70/2 4/71/3 3/72/4
f 5/73/5 6/74/6 8/75/7 7/76/8
f 2/1/9 8/2/10 6/3/11 4/4/12
f 7/5/13 1/6/14 3/7/15 5/8/16
f 9/77/17 10/78/18 12/79/19 11/80/20
f 13/81/21 14/82/22 16/83/23 15/84/24
f 10/9/25 16/10/26 14/11/27 12/12/28
f 15/13/29 9/14/30 11/15/31 13/16/32
s 1
f 18/17/33 17/18/34 28/19/35 29/20/36
f 19/21/37 18/17/33 29/20/36 30/22/38
f 20/23/39 19/21/37 30/22/38 31/24/40
f 21/49/41 20/50/39 31/51/40 32/52/42
f 22/53/43 21/49/41 32/52/42 33/54/44
f 23/55/45 22/53/43 33/54/44 34/56/46
f 24/57/47 23/55/45 34/56/46 35/58/48
f 25/26/49 24/29/47 35/30/48 36/27/50
f 26/25/51 25/26/49 36/27/50 37/28/52
f 27/31/53 26/25/51 37/28/52 38/32/54
s 2
f 29/85/55 28/86/56 39/87/57 40/88/58
f 30/89/59 29/85/55 40/88/58 41/90/60
f 31/91/61 30/89/59 41/90/60 42/92/62
f 32/93/63 31/91/61 42/92/62 43/94/64
f 33/95/65 32/93/63 43/94/64 44/96/66
f 34/97/67 33/95/65 44/96/66 45/98/68
f 35/99/69 34/97/67 45/98/68 46/100/70
f 36/101/71 35/99/69 46/100/70 47/102/72
f 37/103/73 36/101/71 47/102/72 48/104/74
f 38/105/75 37/103/73 48/104/74 49/106/76
s 3
f 40/33/77 39/34/78 50/35/79 51/36/80
f 41/37/81 40/33/77 51/36/80 52/38/82
f 42/39/83 41/37/81 52/38/82 53/40/84
f 43/59/85 42/60/83 53/61/84 54/62/86
f 44/63/87 43/59/85 54/62/86 55/64/88
f 45/65/89 44/63/87 55/64/88 56/66/90
f 46/67/91 45/65/89 56/66/90 57/68/92
f 47/42/93 46/45/91 57/46/92 58/43/94
f 48/41/95 47/42/93 58/43/94 59/44/96
f 49/47/97 48/41/95 59/44/96 60/48/98
s 4
f 51/107/99 50/108/100 17/109/101 18/110/102
f 52/111/103 51/107/99 18/110/102 19/112/104
f 53/113/105 52/111/103 19/112/104 20/114/106
f 54/115/107 53/113/105 20/114/106 21/116/108
f 55/117/109 54/115/107 21/116/108 22/118/110
f 56/119/111 55/117/109 22/118/110 23/120/112
f 57/121/113 56/119/111 23/120/112 24/122/114
f 58/123/115 57/121/113 24/122/114 25/124/116
f 59/125/117 58/123/115 25/124/116 26/126/118
f 60/127/119 59/125/117 26/126/118 27/128/120
g default
v -0.743222 -1.116309 0.156157
v 0.743222 -1.116309 0.156157
v -0.743222 1.511316 0.156157
v 0.743222 1.511316 0.156157
v -0.743222 1.511316 -0.156157
v 0.743222 1.511316 -0.156157
v -0.743222 -1.116309 -0.156157
v 0.743222 -1.116309 -0.156157
vt 0.414179 0.047536
vt 0.743659 0.047536
vt 0.743659 0.377015
vt 0.414179 0.377015
vt 0.416309 0.045220
vt 0.745789 0.045220
vt 0.745789 0.374700
vt 0.416309 0.374700
vn 0.000000 0.000000 1.000000
vn 0.000000 0.000000 1.000000
vn 0.000000 0.000000 1.000000
vn 0.000000 0.000000 1.000000
vn 0.000000 0.000000 -1.000000
vn 0.000000 0.000000 -1.000000
vn 0.000000 0.000000 -1.000000
vn 0.000000 0.000000 -1.000000
s off
g pCube4
usemtl initialShadingGroup
f 61/129/121 62/130/122 64/131/123 63/132/124
f 65/133/125 66/134/126 68/135/127 67/136/128
