# This file uses centimeters as units for non-parametric coordinates.

mtllib gate.mtl
g default
v -0.009333 -1.598605 -2.009333
v -0.009333 -1.598605 -1.990667
v -0.075000 1.500000 -2.075000
v -0.075000 1.500000 -1.925000
v 0.075000 1.500000 -2.075000
v 0.075000 1.500000 -1.925000
v 0.009333 -1.598605 -2.009333
v 0.009333 -1.598605 -1.990667
v -0.075000 -1.377204 -2.075000
v -0.075000 -1.377204 -1.925000
v 0.075000 -1.377204 -1.925000
v 0.075000 -1.377204 -2.075000
v -0.075000 1.502429 -2.070773
v -0.075000 1.352429 -2.070773
v -0.075000 1.502429 2.077085
v -0.075000 1.352429 2.077085
v 0.075000 1.502429 2.077085
v 0.075000 1.352429 2.077085
v 0.075000 1.502429 -2.070773
v 0.075000 1.352429 -2.070773
v -0.075000 0.792154 -2.070773
v -0.075000 0.642155 -2.070773
v -0.075000 0.792154 2.077085
v -0.075000 0.642155 2.077085
v 0.075000 0.792154 2.077085
v 0.075000 0.642155 2.077085
v 0.075000 0.792154 -2.070773
v 0.075000 0.642155 -2.070773
v -0.075000 0.050998 -2.070773
v -0.075000 -0.099002 -2.070773
v -0.075000 0.050998 2.077085
v -0.075000 -0.099002 2.077085
v 0.075000 0.050998 2.077085
v 0.075000 -0.099002 2.077085
v 0.075000 0.050998 -2.070773
v 0.075000 -0.099002 -2.070773
v -0.075000 -0.655939 -2.070773
v -0.075000 -0.805939 -2.070773
v -0.075000 -0.655939 2.077085
v -0.075000 -0.805939 2.077085
v 0.075000 -0.655939 2.077085
v 0.075000 -0.805939 2.077085
v 0.075000 -0.655939 -2.070773
v 0.075000 -0.805939 -2.070773
v -0.075000 2.213395 -1.074081
v -0.075000 2.063395 -1.074081
v -0.075000 2.213395 1.077084
v -0.075000 2.063395 1.077084
v 0.075000 2.213395 1.077084
v 0.075000 2.063395 1.077085
v 0.075000 2.213395 -1.074081
v 0.075000 2.063395 -1.074081
v -0.009333 -1.598605 -1.009333
v -0.009333 -1.598605 -0.990667
v -0.075000 2.065870 -1.075000
v -0.075000 2.065870 -0.925000
v 0.075000 2.065870 -1.075000
v 0.075000 2.065870 -0.925000
v 0.009333 -1.598605 -1.009333
v 0.009333 -1.598605 -0.990667
v -0.075000 -1.377204 -1.075000
v -0.075000 -1.377204 -0.925000
v 0.075000 -1.377204 -0.925000
v 0.075000 -1.377204 -1.075000
v -0.009333 -1.598605 -0.009333
v -0.009333 -1.598605 0.009333
v -0.075000 2.066805 -0.075000
v -0.075000 2.066805 0.075000
v 0.075000 2.066805 -0.075000
v 0.075000 2.066805 0.075000
v 0.009333 -1.598605 -0.009333
v 0.009333 -1.598605 0.009333
v -0.075000 -1.377204 -0.075000
v -0.075000 -1.377204 0.075000
v 0.075000 -1.377204 0.075000
v 0.075000 -1.377204 -0.075000
v -0.009333 -1.598605 1.990667
v -0.009333 -1.598605 2.009333
v -0.075000 1.500000 1.925000
v -0.075000 1.500000 2.075000
v 0.075000 1.500000 1.925000
v 0.075000 1.500000 2.075000
v 0.009333 -1.598605 1.990667
v 0.009333 -1.598605 2.009333
v -0.075000 -1.377204 1.925000
v -0.075000 -1.377204 2.075000
v 0.075000 -1.377204 2.075000
v 0.075000 -1.377204 1.925000
v -0.009333 -1.598605 0.990667
v -0.009333 -1.598605 1.009333
v -0.075000 2.064000 0.925000
v -0.075000 2.064000 1.075000
v 0.075000 2.064000 0.925000
v 0.075000 2.064000 1.075000
v 0.009333 -1.598605 0.990667
v 0.009333 -1.598605 1.009333
v -0.075000 -1.377204 0.925000
v -0.075000 -1.377204 1.075000
v 0.075000 -1.377204 1.075000
v 0.075000 -1.377204 0.925000
vt 0.375000 0.000000
vt 0.625000 0.000000
vt 0.375000 0.250000
vt 0.625000 0.250000
vt 0.375000 0.500000
vt 0.625000 0.500000
vt 0.375000 0.750000
vt 0.625000 0.750000
vt 0.375000 1.000000
vt 0.625000 1.000000
vt 0.875000 0.000000
vt 0.875000 0.250000
vt 0.125000 0.000000
vt 0.125000 0.250000
vt 0.375000 0.010233
vt 0.625000 0.010233
vt 0.625000 0.739767
vt 0.875000 0.010233
vt 0.125000 0.010233
vt 0.375000 0.739767
vt 0.375000 0.000000
vt 0.625000 0.000000
vt 0.625000 0.250000
vt 0.375000 0.250000
vt 0.625000 0.500000
vt 0.375000 0.500000
vt 0.625000 0.750000
vt 0.375000 0.750000
vt 0.625000 1.000000
vt 0.375000 1.000000
vt 0.875000 0.000000
vt 0.875000 0.250000
vt 0.125000 0.000000
vt 0.125000 0.250000
vt 0.375000 0.000000
vt 0.625000 0.000000
vt 0.625000 0.250000
vt 0.375000 0.250000
vt 0.625000 0.500000
vt 0.375000 0.500000
vt 0.625000 0.750000
vt 0.375000 0.750000
vt 0.625000 1.000000
vt 0.375000 1.000000
vt 0.875000 0.000000
vt 0.875000 0.250000
vt 0.125000 0.000000
vt 0.125000 0.250000
vt 0.375000 0.000000
vt 0.625000 0.000000
vt 0.625000 0.250000
vt 0.375000 0.250000
vt 0.625000 0.500000
vt 0.375000 0.500000
vt 0.625000 0.750000
vt 0.375000 0.750000
vt 0.625000 1.000000
vt 0.375000 1.000000
vt 0.875000 0.000000
vt 0.875000 0.250000
vt 0.125000 0.000000
vt 0.125000 0.250000
vt 0.375000 0.000000
vt 0.625000 0.000000
vt 0.625000 0.250000
vt 0.375000 0.250000
vt 0.625000 0.500000
vt 0.375000 0.500000
vt 0.625000 0.750000
vt 0.375000 0.750000
vt 0.625000 1.000000
vt 0.375000 1.000000
vt 0.875000 0.000000
vt 0.875000 0.250000
vt 0.125000 0.000000
vt 0.125000 0.250000
vt 0.375000 0.000000
vt 0.625000 0.000000
vt 0.625000 0.250000
vt 0.375000 0.250000
vt 0.625000 0.500000
vt 0.375000 0.500000
vt 0.625000 0.750000
vt 0.375000 0.750000
vt 0.625000 1.000000
vt 0.375000 1.000000
vt 0.875000 0.000000
vt 0.875000 0.250000
vt 0.125000 0.000000
vt 0.125000 0.250000
vt 0.375000 0.010233
vt 0.625000 0.010233
vt 0.625000 0.250000
vt 0.375000 0.250000
vt 0.625000 0.500000
vt 0.375000 0.500000
vt 0.625000 0.739767
vt 0.375000 0.739767
vt 0.375000 0.750000
vt 0.625000 0.750000
vt 0.625000 1.000000
vt 0.375000 1.000000
vt 0.875000 0.010233
vt 0.875000 0.250000
vt 0.125000 0.010233
vt 0.125000 0.250000
vt 0.375000 0.000000
vt 0.625000 0.000000
vt 0.875000 0.000000
vt 0.125000 0.000000
vt 0.375000 0.010233
vt 0.625000 0.010233
vt 0.625000 0.250000
vt 0.375000 0.250000
vt 0.625000 0.500000
vt 0.375000 0.500000
vt 0.625000 0.739767
vt 0.375000 0.739767
vt 0.375000 0.750000
vt 0.625000 0.750000
vt 0.625000 1.000000
vt 0.375000 1.000000
vt 0.875000 0.010233
vt 0.875000 0.250000
vt 0.125000 0.010233
vt 0.125000 0.250000
vt 0.375000 0.000000
vt 0.625000 0.000000
vt 0.875000 0.000000
vt 0.125000 0.000000
vt 0.375000 0.010233
vt 0.625000 0.010233
vt 0.625000 0.250000
vt 0.375000 0.250000
vt 0.625000 0.500000
vt 0.375000 0.500000
vt 0.625000 0.739767
vt 0.375000 0.739767
vt 0.375000 0.750000
vt 0.625000 0.750000
vt 0.625000 1.000000
vt 0.375000 1.000000
vt 0.875000 0.010233
vt 0.875000 0.250000
vt 0.125000 0.010233
vt 0.125000 0.250000
vt 0.375000 0.000000
vt 0.625000 0.000000
vt 0.875000 0.000000
vt 0.125000 0.000000
vt 0.375000 0.010233
vt 0.625000 0.010233
vt 0.625000 0.250000
vt 0.375000 0.250000
vt 0.625000 0.500000
vt 0.375000 0.500000
vt 0.625000 0.739767
vt 0.375000 0.739767
vt 0.375000 0.750000
vt 0.625000 0.750000
vt 0.625000 1.000000
vt 0.375000 1.000000
vt 0.875000 0.010233
vt 0.875000 0.250000
vt 0.125000 0.010233
vt 0.125000 0.250000
vt 0.375000 0.000000
vt 0.625000 0.000000
vt 0.875000 0.000000
vt 0.125000 0.000000
vn -0.999948 -0.010204 0.000000
vn -0.999948 -0.010204 0.000000
vn -1.000000 0.000000 0.000000
vn -1.000000 0.000000 0.000000
vn 0.000000 1.000000 0.000000
vn 0.000000 1.000000 0.000000
vn 0.000000 1.000000 0.000000
vn 0.000000 1.000000 0.000000
vn 1.000000 0.000000 -0.000000
vn 1.000000 0.000000 -0.000000
vn 0.999948 -0.010204 -0.000000
vn 0.999948 -0.010204 -0.000000
vn 0.000000 -1.000000 0.000000
vn 0.000000 -1.000000 0.000000
vn 0.000000 -1.000000 0.000000
vn 0.000000 -1.000000 0.000000
vn 0.000000 -0.010204 0.999948
vn 0.000000 -0.010204 0.999948
vn 0.000000 -0.000000 1.000000
vn 0.000000 -0.000000 1.000000
vn -0.000000 -0.010204 -0.999948
vn -0.000000 -0.010204 -0.999948
vn -0.000000 -0.000000 -1.000000
vn -0.000000 -0.000000 -1.000000
vn -0.958720 -0.284353 0.000000
vn -0.958720 -0.284353 0.000000
vn 0.000000 -0.284353 0.958720
vn 0.000000 -0.284353 0.958720
vn 0.958720 -0.284353 -0.000000
vn 0.958720 -0.284353 -0.000000
vn -0.000000 -0.284353 -0.958720
vn -0.000000 -0.284353 -0.958720
vn -1.000000 0.000000 0.000000
vn -1.000000 0.000000 0.000000
vn -1.000000 0.000000 0.000000
vn -1.000000 0.000000 0.000000
vn 0.000000 0.000000 1.000000
vn 0.000000 0.000000 1.000000
vn 0.000000 0.000000 1.000000
vn 0.000000 0.000000 1.000000
vn 1.000000 0.000000 -0.000000
vn 1.000000 0.000000 -0.000000
vn 1.000000 0.000000 -0.000000
vn 1.000000 0.000000 -0.000000
vn -0.000000 0.000000 -1.000000
vn -0.000000 0.000000 -1.000000
vn -0.000000 0.000000 -1.000000
vn -0.000000 0.000000 -1.000000
vn 0.000000 -1.000000 0.000000
vn 0.000000 -1.000000 0.000000
vn 0.000000 -1.000000 0.000000
vn 0.000000 -1.000000 0.000000
vn 0.000000 1.000000 0.000000
vn 0.000000 1.000000 0.000000
vn 0.000000 1.000000 0.000000
vn 0.000000 1.000000 0.000000
vn -1.000000 0.000000 0.000000
vn -1.000000 0.000000 0.000000
vn -1.000000 0.000000 0.000000
vn -1.000000 0.000000 0.000000
vn 0.000000 0.000000 1.000000
vn 0.000000 0.000000 1.000000
vn 0.000000 0.000000 1.000000
vn 0.000000 0.000000 1.000000
vn 1.000000 0.000000 -0.000000
vn 1.000000 0.000000 -0.000000
vn 1.000000 0.000000 -0.000000
vn 1.000000 0.000000 -0.000000
vn -0.000000 0.000000 -1.000000
vn -0.000000 0.000000 -1.000000
vn -0.000000 0.000000 -1.000000
vn -0.000000 0.000000 -1.000000
vn 0.000000 -1.000000 0.000000
vn 0.000000 -1.000000 0.000000
vn 0.000000 -1.000000 0.000000
vn 0.000000 -1.000000 0.000000
vn 0.000000 1.000000 0.000000
vn 0.000000 1.000000 0.000000
vn 0.000000 1.000000 0.000000
vn 0.000000 1.000000 0.000000
vn -1.000000 0.000000 0.000000
vn -1.000000 0.000000 0.000000
vn -1.000000 0.000000 0.000000
vn -1.000000 0.000000 0.000000
vn 0.000000 0.000000 1.000000
vn 0.000000 0.000000 1.000000
vn 0.000000 0.000000 1.000000
vn 0.000000 0.000000 1.000000
vn 1.000000 0.000000 -0.000000
vn 1.000000 0.000000 -0.000000
vn 1.000000 0.000000 -0.000000
vn 1.000000 0.000000 -0.000000
vn -0.000000 0.000000 -1.000000
vn -0.000000 0.000000 -1.000000
vn -0.000000 0.000000 -1.000000
vn -0.000000 0.000000 -1.000000
vn 0.000000 -1.000000 0.000000
vn 0.000000 -1.000000 0.000000
vn 0.000000 -1.000000 0.000000
vn 0.000000 -1.000000 0.000000
vn 0.000000 1.000000 0.000000
vn 0.000000 1.000000 0.000000
vn 0.000000 1.000000 0.000000
vn 0.000000 1.000000 0.000000
vn -1.000000 0.000000 0.000000
vn -1.000000 0.000000 0.000000
vn -1.000000 0.000000 0.000000
vn -1.000000 0.000000 0.000000
vn 0.000000 0.000000 1.000000
vn 0.000000 0.000000 1.000000
vn 0.000000 0.000000 1.000000
vn 0.000000 0.000000 1.000000
vn 1.000000 0.000000 -0.000000
vn 1.000000 0.000000 -0.000000
vn 1.000000 0.000000 -0.000000
vn 1.000000 0.000000 -0.000000
vn -0.000000 0.000000 -1.000000
vn -0.000000 0.000000 -1.000000
vn -0.000000 0.000000 -1.000000
vn -0.000000 0.000000 -1.000000
vn 0.000000 -1.000000 0.000000
vn 0.000000 -1.000000 0.000000
vn 0.000000 -1.000000 0.000000
vn 0.000000 -1.000000 0.000000
vn 0.000000 1.000000 0.000000
vn 0.000000 1.000000 0.000000
vn 0.000000 1.000000 0.000000
vn 0.000000 1.000000 0.000000
vn -1.000000 0.000000 0.000000
vn -1.000000 0.000000 0.000000
vn -1.000000 0.000000 0.000000
vn -1.000000 0.000000 0.000000
vn -0.000001 0.000001 1.000000
vn -0.000001 0.000001 1.000000
vn -0.000001 0.000001 1.000000
vn -0.000001 0.000001 1.000000
vn 1.000000 0.000000 -0.000000
vn 1.000000 0.000000 -0.000000
vn 1.000000 0.000000 -0.000000
vn 1.000000 0.000000 -0.000000
vn -0.000000 0.000000 -1.000000
vn -0.000000 0.000000 -1.000000
vn -0.000000 0.000000 -1.000000
vn -0.000000 0.000000 -1.000000
vn 0.000000 -1.000000 0.000000
vn 0.000000 -1.000000 0.000000
vn 0.000000 -1.000000 0.000000
vn 0.000000 -1.000000 0.000000
vn 0.000000 1.000000 0.000000
vn 0.000000 1.000000 0.000000
vn 0.000000 1.000000 0.000000
vn 0.000000 1.000000 0.000000
vn -0.999963 -0.008576 0.000000
vn -0.999963 -0.008576 0.000000
vn -1.000000 0.000000 0.000000
vn -1.000000 0.000000 0.000000
vn 0.000000 1.000000 0.000000
vn 0.000000 1.000000 0.000000
vn 0.000000 1.000000 0.000000
vn 0.000000 1.000000 0.000000
vn 1.000000 0.000000 -0.000000
vn 1.000000 0.000000 -0.000000
vn 0.999963 -0.008576 -0.000000
vn 0.999963 -0.008576 -0.000000
vn 0.000000 -1.000000 0.000000
vn 0.000000 -1.000000 0.000000
vn 0.000000 -1.000000 0.000000
vn 0.000000 -1.000000 0.000000
vn 0.000000 -0.008576 0.999963
vn 0.000000 -0.008576 0.999963
vn 0.000000 -0.000000 1.000000
vn 0.000000 -0.000000 1.000000
vn -0.000000 -0.008576 -0.999963
vn -0.000000 -0.008576 -0.999963
vn -0.000000 -0.000000 -1.000000
vn -0.000000 -0.000000 -1.000000
vn -0.958720 -0.284353 0.000000
vn -0.958720 -0.284353 0.000000
vn 0.000000 -0.284353 0.958720
vn 0.000000 -0.284353 0.958720
vn 0.958720 -0.284352 -0.000000
vn 0.958720 -0.284353 -0.000000
vn -0.000000 -0.284353 -0.958720
vn -0.000000 -0.284353 -0.958720
vn -0.999963 -0.008574 0.000000
vn -0.999963 -0.008574 0.000000
vn -1.000000 0.000000 0.000000
vn -1.000000 0.000000 0.000000
vn 0.000000 1.000000 0.000000
vn 0.000000 1.000000 0.000000
vn 0.000000 1.000000 0.000000
vn 0.000000 1.000000 0.000000
vn 1.000000 0.000000 -0.000000
vn 1.000000 0.000000 -0.000000
vn 0.999963 -0.008574 -0.000000
vn 0.999963 -0.008574 -0.000000
vn 0.000000 -1.000000 0.000000
vn 0.000000 -1.000000 0.000000
vn 0.000000 -1.000000 0.000000
vn 0.000000 -1.000000 0.000000
vn 0.000000 -0.008574 0.999963
vn 0.000000 -0.008574 0.999963
vn 0.000000 0.000000 1.000000
vn 0.000000 0.000000 1.000000
vn -0.000000 -0.008574 -0.999963
vn -0.000000 -0.008574 -0.999963
vn -0.000000 0.000000 -1.000000
vn -0.000000 0.000000 -1.000000
vn -0.958720 -0.284353 0.000000
vn -0.958720 -0.284353 0.000000
vn 0.000000 -0.284353 0.958720
vn 0.000000 -0.284353 0.958720
vn 0.958720 -0.284353 -0.000000
vn 0.958720 -0.284353 -0.000000
vn -0.000000 -0.284353 -0.958720
vn -0.000000 -0.284353 -0.958720
vn -0.999948 -0.010204 0.000000
vn -0.999948 -0.010204 0.000000
vn -1.000000 0.000000 0.000000
vn -1.000000 0.000000 0.000000
vn 0.000000 1.000000 0.000000
vn 0.000000 1.000000 0.000000
vn 0.000000 1.000000 0.000000
vn 0.000000 1.000000 0.000000
vn 1.000000 0.000000 -0.000000
vn 1.000000 0.000000 -0.000000
vn 0.999948 -0.010204 -0.000000
vn 0.999948 -0.010204 -0.000000
vn 0.000000 -1.000000 0.000000
vn 0.000000 -1.000000 0.000000
vn 0.000000 -1.000000 0.000000
vn 0.000000 -1.000000 0.000000
vn 0.000000 -0.010204 0.999948
vn 0.000000 -0.010204 0.999948
vn 0.000000 -0.000000 1.000000
vn 0.000000 -0.000000 1.000000
vn -0.000000 -0.010204 -0.999948
vn -0.000000 -0.010204 -0.999948
vn -0.000000 -0.000000 -1.000000
vn -0.000000 -0.000000 -1.000000
vn -0.958720 -0.284353 0.000000
vn -0.958720 -0.284353 0.000000
vn 0.000000 -0.284353 0.958720
vn 0.000000 -0.284353 0.958720
vn 0.958720 -0.284353 -0.000000
vn 0.958720 -0.284353 -0.000000
vn -0.000000 -0.284353 -0.958720
vn -0.000000 -0.284353 -0.958720
vn -0.999963 -0.008580 0.000000
vn -0.999963 -0.008580 0.000000
vn -1.000000 0.000000 0.000000
vn -1.000000 0.000000 0.000000
vn 0.000000 1.000000 0.000000
vn 0.000000 1.000000 0.000000
vn 0.000000 1.000000 0.000000
vn 0.000000 1.000000 0.000000
vn 1.000000 0.000000 -0.000000
vn 1.000000 0.000000 -0.000000
vn 0.999963 -0.008580 -0.000000
vn 0.999963 -0.008580 -0.000000
vn 0.000000 -1.000000 0.000000
vn 0.000000 -1.000000 0.000000
vn 0.000000 -1.000000 0.000000
vn 0.000000 -1.000000 0.000000
vn 0.000000 -0.008580 0.999963
vn 0.000000 -0.008580 0.999963
vn 0.000000 -0.000000 1.000000
vn 0.000000 -0.000000 1.000000
vn -0.000000 -0.008580 -0.999963
vn -0.000000 -0.008580 -0.999963
vn -0.000000 -0.000000 -1.000000
vn -0.000000 -0.000000 -1.000000
vn -0.958720 -0.284353 0.000000
vn -0.958720 -0.284353 0.000000
vn 0.000000 -0.284353 0.958720
vn 0.000000 -0.284353 0.958720
vn 0.958720 -0.284353 -0.000000
vn 0.958720 -0.284352 -0.000000
vn -0.000000 -0.284353 -0.958720
vn -0.000000 -0.284353 -0.958720
s 1
g pCube15
usemtl blinn1SG
f 9/15/1 10/16/2 4/4/3 3/3/4
s off
f 3/3/5 4/4/6 6/6/7 5/5/8
s 2
f 5/5/9 6/6/10 11/17/11 12/20/12
s off
f 7/7/13 8/8/14 2/10/15 1/9/16
s 3
f 10/16/17 11/18/18 6/12/19 4/4/20
s 4
f 12/19/21 9/15/22 3/3/23 5/14/24
s 1
f 1/1/25 2/2/26 10/16/2 9/15/1
s 3
f 2/2/27 8/11/28 11/18/18 10/16/17
s 2
f 12/20/12 11/17/11 8/8/29 7/7/30
s 4
f 7/13/31 1/1/32 9/15/22 12/19/21
s off
f 13/21/33 14/22/34 16/23/35 15/24/36
f 15/24/37 16/23/38 18/25/39 17/26/40
f 17/26/41 18/25/42 20/27/43 19/28/44
f 19/28/45 20/27/46 14/29/47 13/30/48
f 14/22/49 20/31/50 18/32/51 16/23/52
f 19/33/53 13/21/54 15/24/55 17/34/56
f 21/35/57 22/36/58 24/37/59 23/38/60
f 23/38/61 24/37/62 26/39/63 25/40/64
f 25/40/65 26/39/66 28/41/67 27/42/68
f 27/42/69 28/41/70 22/43/71 21/44/72
f 22/36/73 28/45/74 26/46/75 24/37/76
f 27/47/77 21/35/78 23/38/79 25/48/80
f 29/49/81 30/50/82 32/51/83 31/52/84
f 31/52/85 32/51/86 34/53/87 33/54/88
f 33/54/89 34/53/90 36/55/91 35/56/92
f 35/56/93 36/55/94 30/57/95 29/58/96
f 30/50/97 36/59/98 34/60/99 32/51/100
f 35/61/101 29/49/102 31/52/103 33/62/104
f 37/63/105 38/64/106 40/65/107 39/66/108
f 39/66/109 40/65/110 42/67/111 41/68/112
f 41/68/113 42/67/114 44/69/115 43/70/116
f 43/70/117 44/69/118 38/71/119 37/72/120
f 38/64/121 44/73/122 42/74/123 40/65/124
f 43/75/125 37/63/126 39/66/127 41/76/128
f 45/77/129 46/78/130 48/79/131 47/80/132
f 47/80/133 48/79/134 50/81/135 49/82/136
f 49/82/137 50/81/138 52/83/139 51/84/140
f 51/84/141 52/83/142 46/85/143 45/86/144
f 46/78/145 52/87/146 50/88/147 48/79/148
f 51/89/149 45/77/150 47/80/151 49/90/152
s 5
f 61/91/153 62/92/154 56/93/155 55/94/156
s off
f 55/94/157 56/93/158 58/95/159 57/96/160
s 6
f 57/96/161 58/95/162 63/97/163 64/98/164
s off
f 59/99/165 60/100/166 54/101/167 53/102/168
s 7
f 62/92/169 63/103/170 58/104/171 56/93/172
s 8
f 64/105/173 61/91/174 55/94/175 57/106/176
s 5
f 53/107/177 54/108/178 62/92/154 61/91/153
s 7
f 54/108/179 60/109/180 63/103/170 62/92/169
s 6
f 64/98/164 63/97/163 60/100/181 59/99/182
s 8
f 59/110/183 53/107/184 61/91/174 64/105/173
s 9
f 73/111/185 74/112/186 68/113/187 67/114/188
s off
f 67/114/189 68/113/190 70/115/191 69/116/192
s 10
f 69/116/193 70/115/194 75/117/195 76/118/196
s off
f 71/119/197 72/120/198 66/121/199 65/122/200
s 11
f 74/112/201 75/123/202 70/124/203 68/113/204
s 12
f 76/125/205 73/111/206 67/114/207 69/126/208
s 9
f 65/127/209 66/128/210 74/112/186 73/111/185
s 11
f 66/128/211 72/129/212 75/123/202 74/112/201
s 10
f 76/118/196 75/117/195 72/120/213 71/119/214
s 12
f 71/130/215 65/127/216 73/111/206 76/125/205
s 13
f 85/131/217 86/132/218 80/133/219 79/134/220
s off
f 79/134/221 80/133/222 82/135/223 81/136/224
s 14
f 81/136/225 82/135/226 87/137/227 88/138/228
s off
f 83/139/229 84/140/230 78/141/231 77/142/232
s 15
f 86/132/233 87/143/234 82/144/235 80/133/236
s 16
f 88/145/237 85/131/238 79/134/239 81/146/240
s 13
f 77/147/241 78/148/242 86/132/218 85/131/217
s 15
f 78/148/243 84/149/244 87/143/234 86/132/233
s 14
f 88/138/228 87/137/227 84/140/245 83/139/246
s 16
f 83/150/247 77/147/248 85/131/238 88/145/237
s 17
f 97/151/249 98/152/250 92/153/251 91/154/252
s off
f 91/154/253 92/153/254 94/155/255 93/156/256
s 18
f 93/156/257 94/155/258 99/157/259 100/158/260
s off
f 95/159/261 96/160/262 90/161/263 89/162/264
s 19
f 98/152/265 99/163/266 94/164/267 92/153/268
s 20
f 100/165/269 97/151/270 91/154/271 93/166/272
s 17
f 89/167/273 90/168/274 98/152/250 97/151/249
s 19
f 90/168/275 96/169/276 99/163/266 98/152/265
s 18
f 100/158/260 99/157/259 96/160/277 95/159/278
s 20
f 95/170/279 89/167/280 97/151/270 100/165/269
