# This file uses centimeters as units for non-parametric coordinates.

mtllib Hand.mtl
g default
v -0.947163 -0.947163 3.544203
v 0.947163 -0.947163 3.544203
v -0.947163 0.947163 3.544203
v 0.947163 0.947163 3.544203
v -0.947163 0.947163 -4.234029
v 0.947163 0.947163 -4.234029
v -0.947163 -0.947163 -4.234029
v 0.947163 -0.947163 -4.234029
v -0.947163 0.947163 -3.106078
v -0.947163 -0.947163 -3.106078
v 0.947163 -0.947163 -3.106078
v 0.947163 0.947163 -3.106078
vt 0.380590 0.022362
vt 0.619410 0.022362
vt 0.380590 0.261181
vt 0.619410 0.261181
vt 0.380590 0.500000
vt 0.619410 0.500000
vt 0.380590 0.738819
vt 0.619410 0.738819
vt 0.380590 0.977638
vt 0.619410 0.977638
vt 0.858229 0.022362
vt 0.858229 0.261181
vt 0.141771 0.022362
vt 0.141771 0.261181
vt 0.173582 0.261181
vt 0.380590 0.468189
vt 0.173582 0.022362
vt 0.380590 0.770630
vt 0.619410 0.770630
vt 0.826418 0.022362
vt 0.619410 0.468189
vt 0.826418 0.261181
vn 0.000000 0.000000 1.000000
vn 0.000000 0.000000 1.000000
vn 0.000000 0.000000 1.000000
vn 0.000000 0.000000 1.000000
vn 0.000000 1.000000 0.000000
vn 0.000000 1.000000 0.000000
vn 0.000000 1.000000 0.000000
vn 0.000000 1.000000 0.000000
vn 0.000000 0.000000 -1.000000
vn 0.000000 0.000000 -1.000000
vn 0.000000 0.000000 -1.000000
vn 0.000000 0.000000 -1.000000
vn 0.000000 -1.000000 0.000000
vn 0.000000 -1.000000 0.000000
vn 0.000000 -1.000000 0.000000
vn 0.000000 -1.000000 0.000000
vn 1.000000 0.000000 0.000000
vn 1.000000 0.000000 0.000000
vn 1.000000 0.000000 0.000000
vn 1.000000 0.000000 0.000000
vn -1.000000 0.000000 0.000000
vn -1.000000 0.000000 0.000000
vn -1.000000 0.000000 0.000000
vn -1.000000 0.000000 0.000000
vn -1.000000 0.000000 0.000000
vn -1.000000 0.000000 0.000000
vn 0.000000 -1.000000 0.000000
vn 0.000000 -1.000000 0.000000
vn 1.000000 0.000000 0.000000
vn 1.000000 0.000000 0.000000
vn 0.000000 1.000000 0.000000
vn 0.000000 1.000000 0.000000
s off
g pCube1
usemtl lambert4SG
f 1/1/1 2/2/2 4/4/3 3/3/4
s 1
f 3/3/5 4/4/6 12/21/7 9/16/8
s off
f 5/5/9 6/6/10 8/8/11 7/7/12
s 2
f 10/18/13 11/19/14 2/10/15 1/9/16
s 3
f 2/2/17 11/20/18 12/22/19 4/4/20
s 4
f 10/17/21 1/1/22 3/3/23 9/15/24
f 7/13/25 10/17/21 9/15/24 5/14/26
s 2
f 7/7/27 8/8/28 11/19/14 10/18/13
s 3
f 12/22/19 11/20/18 8/11/29 6/12/30
s 1
f 9/16/8 12/21/7 6/6/31 5/5/32
