# This file uses centimeters as units for non-parametric coordinates.

mtllib HUD.mtl
g default
v -6.475282 -3.934220 0.177966
v -6.475282 -3.934220 -0.177966
v 6.475282 -3.934220 -0.177966
v 6.475282 -3.934220 0.177966
v -6.475282 4.131376 0.177966
v -6.475282 4.131376 -0.177966
v 6.475282 4.131376 -0.177966
v 6.475282 4.131376 0.177966
vt 0.379349 0.031044
vt 0.138047 0.031044
vt 0.379349 0.727654
vt 0.620651 0.727654
vt 0.861953 0.031044
vt 0.620651 0.031044
vt 0.379349 0.250413
vt 0.138047 0.250413
vt 0.379349 0.508286
vt 0.620651 0.508286
vt 0.861953 0.250413
vt 0.620651 0.250413
vn -1.000000 0.000000 0.000000
vn -1.000000 0.000000 0.000000
vn -1.000000 0.000000 0.000000
vn -1.000000 0.000000 0.000000
vn 0.000000 0.000000 -1.000000
vn 0.000000 0.000000 -1.000000
vn 0.000000 0.000000 -1.000000
vn 0.000000 0.000000 -1.000000
vn 1.000000 0.000000 0.000000
vn 1.000000 0.000000 0.000000
vn 1.000000 0.000000 0.000000
vn 1.000000 0.000000 0.000000
vn 0.000000 0.000000 1.000000
vn 0.000000 0.000000 1.000000
vn 0.000000 0.000000 1.000000
vn 0.000000 0.000000 1.000000
vn 0.000000 -1.000000 0.000000
vn 0.000000 -1.000000 0.000000
vn 0.000000 -1.000000 0.000000
vn 0.000000 -1.000000 0.000000
vn 0.000000 1.000000 0.000000
vn 0.000000 1.000000 0.000000
vn 0.000000 1.000000 0.000000
vn 0.000000 1.000000 0.000000
s off
g pCube1
usemtl lambert2SG
f 2/2/1 1/1/2 5/7/3 6/8/4
f 6/9/5 7/10/6 3/4/7 2/3/8
f 4/6/9 3/5/10 7/11/11 8/12/12
f 1/1/13 4/6/14 8/12/15 5/7/16
f 2/3/17 3/5/18 4/6/19 1/1/20
f 6/8/21 5/7/22 8/12/23 7/10/24
