# This file uses centimeters as units for non-parametric coordinates.

mtllib lavaPool.mtl
g default
v -5.961147 -0.020697 12.397774
v -3.974098 -0.020697 12.397774
v -1.987049 -0.020697 12.397774
v 0.000000 -0.020697 12.397774
v 1.987049 -0.020697 12.397774
v 3.974098 -0.020697 12.397774
v 5.961147 -0.020697 12.397774
v -5.961147 0.163476 12.397774
v -3.974098 0.163476 12.397774
v -1.987049 0.163476 12.397774
v 0.000000 0.163476 12.397774
v 1.987049 0.163476 12.397774
v 3.974098 0.163476 12.397774
v 5.961147 0.163476 12.397774
v -5.961147 0.163476 9.298330
v -3.974098 0.163476 9.298330
v -1.987049 0.163476 9.298330
v 0.000000 0.163476 9.298330
v 1.987049 0.163476 9.298330
v 3.974098 0.163476 9.298330
v 5.961147 0.163476 9.298330
v -5.961147 0.163476 6.198887
v -3.974098 0.163476 6.198887
v -1.987049 0.163476 6.198887
v 0.000000 0.163476 6.198887
v 1.987049 0.163476 6.198887
v 3.974098 0.163476 6.198887
v 5.961147 0.163476 6.198887
v -5.961147 0.163476 3.099443
v -3.974098 0.163476 3.099443
v -1.987049 0.163476 3.099443
v 0.000000 0.163476 3.099443
v 1.987049 0.163476 3.099443
v 3.974098 0.163476 3.099443
v 5.961147 0.163476 3.099443
v -5.961147 0.163476 0.000000
v -3.974098 0.163476 0.000000
v -1.987049 0.163476 0.000000
v 0.000000 0.163476 0.000000
v 1.987049 0.163476 0.000000
v 3.974098 0.163476 0.000000
v 5.961147 0.163476 0.000000
v -5.961147 0.163476 -3.099443
v -3.974098 0.163476 -3.099443
v -1.987049 0.163476 -3.099443
v 0.000000 0.163476 -3.099443
v 1.987049 0.163476 -3.099443
v 3.974098 0.163476 -3.099443
v 5.961147 0.163476 -3.099443
v -5.961147 0.163476 -6.198887
v -3.974098 0.163476 -6.198887
v -1.987049 0.163476 -6.198887
v 0.000000 0.163476 -6.198887
v 1.987049 0.163476 -6.198887
v 3.974098 0.163476 -6.198887
v 5.961147 0.163476 -6.198887
v -5.961147 0.163476 -9.298330
v -3.974098 0.163476 -9.298330
v -1.987049 0.163476 -9.298330
v 0.000000 0.163476 -9.298330
v 1.987049 0.163476 -9.298330
v 3.974098 0.163476 -9.298330
v 5.961147 0.163476 -9.298330
v -5.961147 0.163476 -12.397774
v -3.974098 0.163476 -12.397774
v -1.987049 0.163476 -12.397774
v 0.000000 0.163476 -12.397774
v 1.987049 0.163476 -12.397774
v 3.974098 0.163476 -12.397774
v 5.961147 0.163476 -12.397774
v -5.961147 -0.020697 -12.397774
v -3.974098 -0.020697 -12.397774
v -1.987049 -0.020697 -12.397774
v 0.000000 -0.020697 -12.397774
v 1.987049 -0.020697 -12.397774
v 3.974098 -0.020697 -12.397774
v 5.961147 -0.020697 -12.397774
v -5.961147 -0.020697 -9.298330
v 5.961147 -0.020697 -9.298330
v -5.961147 -0.020697 -6.198887
v 5.961147 -0.020697 -6.198887
v -5.961147 -0.020697 -3.099443
v 5.961147 -0.020697 -3.099443
v -5.961147 -0.020697 0.000000
v 5.961147 -0.020697 0.000000
v -5.961147 -0.020697 3.099443
v 5.961147 -0.020697 3.099443
v -5.961147 -0.020697 6.198887
v 5.961147 -0.020697 6.198887
v -5.961147 -0.020697 9.298330
v 5.961147 -0.020697 9.298330
v -5.961147 1.044988 12.397774
v -3.974098 1.044988 12.397774
v -3.974098 1.044988 9.298330
v -5.961147 1.044988 9.298330
v -1.987049 1.044988 12.397774
v -1.987049 1.044988 9.298330
v 0.000000 1.044988 12.397774
v 0.000000 1.044988 9.298330
v 1.987049 1.044988 12.397774
v 1.987049 1.044988 9.298330
v 3.974098 1.044988 12.397774
v 3.974098 1.044988 9.298330
v 5.961147 1.044988 12.397774
v 5.961147 1.044988 9.298330
v -3.974098 1.044988 6.198887
v -5.961147 1.044988 6.198887
v 5.961147 1.044988 6.198887
v 3.974098 1.044988 6.198887
v -3.974098 1.044988 3.099443
v -5.961147 1.044988 3.099443
v 5.961147 1.044988 3.099443
v 3.974098 1.044988 3.099443
v -3.974098 1.044988 -0.000000
v -5.961147 1.044988 -0.000000
v 5.961147 1.044988 -0.000000
v 3.974098 1.044988 -0.000000
v -3.974098 1.044988 -3.099443
v -5.961147 1.044988 -3.099443
v 5.961147 1.044988 -3.099443
v 3.974098 1.044988 -3.099443
v -3.974098 1.044988 -6.198887
v -5.961147 1.044988 -6.198887
v 5.961147 1.044988 -6.198887
v 3.974098 1.044988 -6.198887
v -3.974098 1.044988 -9.298330
v -5.961147 1.044989 -9.298330
v 5.961147 1.044989 -9.298330
v 3.974098 1.044989 -9.298330
v -3.974098 1.044989 -12.397774
v -5.961147 1.044989 -12.397774
v -1.987049 1.044989 -9.298330
v -1.987049 1.044988 -12.397774
v 0.000000 1.044988 -9.298330
v 0.000000 1.044989 -12.397774
v 1.987049 1.044989 -9.298330
v 1.987049 1.044989 -12.397774
v 3.974098 1.044989 -12.397774
v 5.961147 1.044989 -12.397774
vt 0.342922 0.139479
vt 0.395281 0.139479
vt 0.447641 0.139479
vt 0.500000 0.139479
vt 0.552359 0.139479
vt 0.604719 0.139479
vt 0.657078 0.139479
vt 0.342922 0.453636
vt 0.395281 0.453636
vt 0.447641 0.453636
vt 0.500000 0.453636
vt 0.552359 0.453636
vt 0.604719 0.453636
vt 0.657078 0.453636
vt 0.342922 0.492905
vt 0.395281 0.492905
vt 0.447641 0.492905
vt 0.500000 0.492905
vt 0.552359 0.492905
vt 0.604719 0.492905
vt 0.657078 0.492905
vt 0.342922 0.532175
vt 0.395281 0.532175
vt 0.447641 0.532175
vt 0.500000 0.532175
vt 0.552359 0.532175
vt 0.604719 0.532175
vt 0.657078 0.532175
vt 0.342922 0.571444
vt 0.395281 0.571444
vt 0.447641 0.571444
vt 0.500000 0.571444
vt 0.552359 0.571444
vt 0.604719 0.571444
vt 0.657078 0.571444
vt 0.342922 0.610714
vt 0.395281 0.610714
vt 0.447641 0.610714
vt 0.500000 0.610714
vt 0.552359 0.610714
vt 0.604719 0.610714
vt 0.657078 0.610714
vt 0.342922 0.649983
vt 0.395281 0.649983
vt 0.447641 0.649983
vt 0.500000 0.649983
vt 0.552359 0.649983
vt 0.604719 0.649983
vt 0.657078 0.649983
vt 0.342922 0.689253
vt 0.395281 0.689253
vt 0.447641 0.689253
vt 0.500000 0.689253
vt 0.552359 0.689253
vt 0.604719 0.689253
vt 0.657078 0.689253
vt 0.342922 0.728522
vt 0.395281 0.728522
vt 0.447641 0.728522
vt 0.500000 0.728522
vt 0.552359 0.728522
vt 0.604719 0.728522
vt 0.657078 0.728522
vt 0.342922 0.138476
vt 0.395281 0.138476
vt 0.447641 0.138476
vt 0.500000 0.138476
vt 0.552359 0.138476
vt 0.604719 0.138476
vt 0.657078 0.138476
vt 0.342922 0.452632
vt 0.395281 0.452632
vt 0.447641 0.452632
vt 0.500000 0.452632
vt 0.552359 0.452632
vt 0.604719 0.452632
vt 0.657078 0.452632
vt 0.971235 0.139479
vt 0.931965 0.139479
vt 0.892695 0.139479
vt 0.853426 0.139479
vt 0.814156 0.139479
vt 0.774887 0.139479
vt 0.735617 0.139479
vt 0.696348 0.139479
vt 0.971235 0.453636
vt 0.931965 0.453636
vt 0.892695 0.453636
vt 0.853426 0.453636
vt 0.814156 0.453636
vt 0.774887 0.453636
vt 0.735617 0.453636
vt 0.696348 0.453636
vt 0.028766 0.139479
vt 0.068035 0.139479
vt 0.107305 0.139479
vt 0.146574 0.139479
vt 0.185844 0.139479
vt 0.225113 0.139479
vt 0.264383 0.139479
vt 0.303652 0.139479
vt 0.028766 0.453636
vt 0.068035 0.453636
vt 0.107305 0.453636
vt 0.146574 0.453636
vt 0.185844 0.453636
vt 0.225113 0.453636
vt 0.264383 0.453636
vt 0.303652 0.453636
vt 0.342922 0.453636
vt 0.395281 0.453636
vt 0.342922 0.492905
vt 0.447641 0.453636
vt 0.447641 0.492905
vt 0.395281 0.492905
vt 0.500000 0.453636
vt 0.500000 0.492905
vt 0.552359 0.453636
vt 0.552359 0.492905
vt 0.604719 0.453636
vt 0.604719 0.492905
vt 0.657078 0.453636
vt 0.657078 0.492905
vt 0.395281 0.532175
vt 0.342922 0.532175
vt 0.657078 0.532175
vt 0.604719 0.532175
vt 0.395281 0.571444
vt 0.342922 0.571444
vt 0.657078 0.571444
vt 0.604719 0.571444
vt 0.395281 0.610714
vt 0.342922 0.610714
vt 0.657078 0.610714
vt 0.604719 0.610714
vt 0.395281 0.649983
vt 0.342922 0.649983
vt 0.657078 0.649983
vt 0.604719 0.649983
vt 0.395281 0.689253
vt 0.342922 0.689253
vt 0.657078 0.689253
vt 0.604719 0.689253
vt 0.395281 0.728522
vt 0.342922 0.728522
vt 0.657078 0.728522
vt 0.604719 0.728522
vt 0.395281 0.767792
vt 0.342922 0.767792
vt 0.447641 0.728522
vt 0.447641 0.767792
vt 0.500000 0.728522
vt 0.500000 0.767792
vt 0.552359 0.728522
vt 0.552359 0.767792
vt 0.604719 0.767792
vt 0.657078 0.767792
vn 0.000000 0.000000 1.000000
vn 0.000000 0.000000 1.000000
vn 0.000000 0.000000 1.000000
vn 0.000000 0.000000 1.000000
vn 0.000000 0.000000 1.000000
vn 0.000000 0.000000 1.000000
vn 0.000000 0.000000 1.000000
vn 0.000000 0.000000 1.000000
vn 0.000000 0.000000 1.000000
vn 0.000000 0.000000 1.000000
vn 0.000000 0.000000 1.000000
vn 0.000000 0.000000 1.000000
vn 0.000000 0.000000 1.000000
vn 0.000000 0.000000 1.000000
vn 0.000000 1.000000 0.000000
vn 0.000000 1.000000 0.000000
vn 0.000000 1.000000 0.000000
vn 0.000000 1.000000 0.000000
vn 0.000000 1.000000 0.000000
vn 0.000000 1.000000 0.000000
vn 0.000000 1.000000 0.000000
vn 0.000000 1.000000 0.000000
vn 0.000000 1.000000 0.000000
vn 0.000000 1.000000 0.000000
vn 0.000000 1.000000 0.000000
vn 0.000000 1.000000 0.000000
vn 0.000000 1.000000 0.000000
vn 0.000000 1.000000 0.000000
vn 0.000000 1.000000 0.000000
vn 0.000000 1.000000 0.000000
vn 0.000000 1.000000 0.000000
vn 0.000000 1.000000 0.000000
vn 0.000000 1.000000 0.000000
vn 0.000000 1.000000 0.000000
vn 0.000000 1.000000 0.000000
vn 0.000000 1.000000 0.000000
vn 0.000000 1.000000 0.000000
vn 0.000000 1.000000 0.000000
vn 0.000000 1.000000 0.000000
vn 0.000000 1.000000 0.000000
vn 0.000000 1.000000 0.000000
vn 0.000000 1.000000 0.000000
vn 0.000000 1.000000 0.000000
vn 0.000000 1.000000 0.000000
vn 0.000000 1.000000 0.000000
vn 0.000000 1.000000 0.000000
vn 0.000000 1.000000 0.000000
vn 0.000000 1.000000 0.000000
vn 0.000000 1.000000 0.000000
vn 0.000000 1.000000 0.000000
vn 0.000000 1.000000 0.000000
vn 0.000000 1.000000 0.000000
vn 0.000000 1.000000 0.000000
vn 0.000000 1.000000 0.000000
vn 0.000000 1.000000 0.000000
vn 0.000000 1.000000 0.000000
vn 0.000000 1.000000 0.000000
vn 0.000000 1.000000 0.000000
vn 0.000000 1.000000 0.000000
vn 0.000000 1.000000 0.000000
vn 0.000000 1.000000 0.000000
vn 0.000000 1.000000 0.000000
vn 0.000000 1.000000 0.000000
vn 0.000000 1.000000 0.000000
vn 0.000000 1.000000 0.000000
vn 0.000000 1.000000 0.000000
vn 0.000000 1.000000 0.000000
vn 0.000000 1.000000 0.000000
vn 0.000000 1.000000 0.000000
vn 0.000000 1.000000 0.000000
vn 0.000000 1.000000 0.000000
vn 0.000000 1.000000 0.000000
vn 0.000000 1.000000 0.000000
vn 0.000000 1.000000 0.000000
vn 0.000000 1.000000 0.000000
vn 0.000000 1.000000 0.000000
vn 0.000000 1.000000 0.000000
vn 0.000000 1.000000 0.000000
vn 0.000000 1.000000 0.000000
vn 0.000000 1.000000 0.000000
vn 0.000000 1.000000 0.000000
vn 0.000000 1.000000 0.000000
vn 0.000000 1.000000 0.000000
vn 0.000000 1.000000 0.000000
vn 0.000000 1.000000 0.000000
vn 0.000000 1.000000 0.000000
vn 0.000000 1.000000 0.000000
vn 0.000000 1.000000 0.000000
vn 0.000000 1.000000 0.000000
vn -0.000000 1.000000 0.000000
vn -0.000000 1.000000 0.000000
vn -0.000000 1.000000 0.000000
vn -0.000000 1.000000 0.000000
vn -0.000000 1.000000 0.000000
vn -0.000000 1.000000 0.000000
vn 0.000000 1.000000 0.000000
vn 0.000000 1.000000 0.000000
vn 0.000000 0.000000 -1.000000
vn 0.000000 0.000000 -1.000000
vn 0.000000 0.000000 -1.000000
vn 0.000000 0.000000 -1.000000
vn 0.000000 0.000000 -1.000000
vn 0.000000 0.000000 -1.000000
vn 0.000000 0.000000 -1.000000
vn 0.000000 0.000000 -1.000000
vn 0.000000 0.000000 -1.000000
vn 0.000000 0.000000 -1.000000
vn 0.000000 0.000000 -1.000000
vn 0.000000 0.000000 -1.000000
vn 0.000000 0.000000 -1.000000
vn 0.000000 0.000000 -1.000000
vn 1.000000 0.000000 0.000000
vn 1.000000 0.000000 0.000000
vn 1.000000 0.000000 0.000000
vn 1.000000 0.000000 0.000000
vn 1.000000 0.000000 0.000000
vn 1.000000 0.000000 0.000000
vn 1.000000 0.000000 0.000000
vn 1.000000 -0.000000 0.000000
vn 1.000000 0.000000 0.000000
vn 1.000000 -0.000000 0.000000
vn 1.000000 0.000000 0.000000
vn 1.000000 0.000000 0.000000
vn 1.000000 0.000000 0.000000
vn 1.000000 0.000000 0.000000
vn 1.000000 0.000000 0.000000
vn 1.000000 0.000000 0.000000
vn 1.000000 0.000000 0.000000
vn 1.000000 0.000000 0.000000
vn -1.000000 0.000000 0.000000
vn -1.000000 0.000000 0.000000
vn -1.000000 0.000000 0.000000
vn -1.000000 0.000000 0.000000
vn -1.000000 0.000000 0.000000
vn -1.000000 0.000000 0.000000
vn -1.000000 0.000000 0.000000
vn -1.000000 0.000000 0.000000
vn -1.000000 0.000000 0.000000
vn -1.000000 0.000000 0.000000
vn -1.000000 0.000000 0.000000
vn -1.000000 0.000000 0.000000
vn -1.000000 0.000000 0.000000
vn -1.000000 0.000000 0.000000
vn -1.000000 0.000000 0.000000
vn -1.000000 0.000000 0.000000
vn -1.000000 0.000000 0.000000
vn -1.000000 0.000000 0.000000
vn 0.000000 0.000000 1.000000
vn 0.000000 0.000000 1.000000
vn -1.000000 0.000000 0.000000
vn -1.000000 0.000000 0.000000
vn 0.000000 0.000000 1.000000
vn 0.000000 0.000000 -1.000000
vn 0.000000 0.000000 -1.000000
vn 0.000000 0.000000 -1.000000
vn 0.000000 0.000000 -1.000000
vn 0.000000 0.000000 1.000000
vn 0.000000 0.000000 -1.000000
vn 0.000000 0.000000 -1.000000
vn 0.000000 0.000000 1.000000
vn 0.000000 0.000000 -1.000000
vn 0.000000 0.000000 -1.000000
vn 0.000000 0.000000 1.000000
vn 0.000000 0.000000 -1.000000
vn 0.000000 0.000000 -1.000000
vn 0.000000 0.000000 1.000000
vn 1.000000 0.000000 0.000000
vn 1.000000 0.000000 0.000000
vn 1.000000 0.000000 0.000000
vn 1.000000 0.000000 0.000000
vn 1.000000 0.000000 0.000000
vn 1.000000 0.000000 0.000000
vn -1.000000 0.000000 0.000000
vn 1.000000 0.000000 0.000000
vn -1.000000 0.000000 0.000000
vn -1.000000 0.000000 0.000000
vn -1.000000 0.000000 0.000000
vn -1.000000 0.000000 0.000000
vn 1.000000 0.000000 0.000000
vn 1.000000 0.000000 0.000000
vn -1.000000 0.000000 0.000000
vn 1.000000 0.000000 0.000000
vn -1.000000 -0.000000 0.000000
vn -1.000000 -0.000000 0.000000
vn 1.000000 0.000000 0.000000
vn 1.000000 0.000000 0.000000
vn -1.000000 0.000000 0.000000
vn 1.000000 -0.000000 0.000000
vn -1.000000 -0.000000 0.000000
vn -1.000000 -0.000000 0.000000
vn 1.000000 0.000000 0.000000
vn 1.000000 0.000000 0.000000
vn -1.000000 0.000000 0.000000
vn 1.000000 -0.000000 0.000000
vn -1.000000 0.000000 0.000000
vn -1.000000 0.000000 0.000000
vn 1.000000 0.000000 0.000000
vn 1.000000 0.000000 0.000000
vn -1.000000 0.000000 0.000000
vn 1.000000 0.000000 0.000000
vn -1.000000 0.000000 0.000000
vn -1.000000 0.000000 0.000000
vn 1.000000 0.000000 0.000000
vn 1.000000 0.000000 0.000000
vn -1.000000 0.000000 0.000000
vn 1.000000 0.000000 0.000000
vn -1.000000 0.000000 0.000000
vn -1.000000 0.000000 0.000000
vn 0.000000 0.000000 -1.000000
vn 0.000000 0.000000 -1.000000
vn -1.000000 0.000000 0.000000
vn 0.000000 0.000000 1.000000
vn 0.000000 0.000000 1.000000
vn 0.000000 0.000000 1.000000
vn 0.000000 0.000000 1.000000
vn 0.000000 0.000000 -1.000000
vn 0.000000 0.000000 1.000000
vn 0.000000 0.000000 1.000000
vn 0.000000 0.000000 -1.000000
vn 0.000000 0.000000 1.000000
vn 0.000000 0.000000 1.000000
vn 0.000000 0.000000 -1.000000
vn 0.000000 0.000000 1.000000
vn 0.000000 0.000000 1.000000
vn 0.000000 0.000000 -1.000000
vn 1.000000 0.000000 0.000000
vn 0.000000 0.000000 -1.000000
s 1
g pCube1
usemtl blinn1SG
f 1/1/1 2/2/2 9/9/3 8/8/4
f 2/2/2 3/3/5 10/10/6 9/9/3
f 3/3/5 4/4/7 11/11/8 10/10/6
f 4/4/7 5/5/9 12/12/10 11/11/8
f 5/5/9 6/6/11 13/13/12 12/12/10
f 6/6/11 7/7/13 14/14/14 13/13/12
s 2
f 92/110/15 93/111/16 94/16/17 95/112/18
f 93/111/16 96/113/19 97/114/20 94/115/17
f 96/113/19 98/116/21 99/117/22 97/114/20
f 98/116/21 100/118/23 101/119/24 99/117/22
f 100/118/23 102/120/25 103/121/26 101/119/24
f 102/120/25 104/122/27 105/123/28 103/121/26
f 95/112/18 94/115/17 106/124/29 107/125/30
s 3
f 16/16/31 17/17/32 24/24/33 23/23/34
f 17/17/32 18/18/35 25/25/36 24/24/33
f 18/18/35 19/19/37 26/26/38 25/25/36
f 19/19/37 20/20/39 27/27/40 26/26/38
s 2
f 103/121/26 105/123/28 108/126/41 109/127/42
f 107/125/30 106/124/29 110/128/43 111/129/44
s 3
f 23/23/34 24/24/33 31/31/45 30/30/46
f 24/24/33 25/25/36 32/32/47 31/31/45
f 25/25/36 26/26/38 33/33/48 32/32/47
f 26/26/38 27/27/40 34/34/49 33/33/48
s 2
f 109/127/42 108/126/41 112/130/50 113/131/51
f 111/129/44 110/128/43 114/132/52 115/133/53
s 3
f 30/30/46 31/31/45 38/38/54 37/37/55
f 31/31/45 32/32/47 39/39/56 38/38/54
f 32/32/47 33/33/48 40/40/57 39/39/56
f 33/33/48 34/34/49 41/41/58 40/40/57
s 2
f 113/131/51 112/130/50 116/134/59 117/135/60
f 115/133/53 114/132/52 118/136/61 119/137/62
s 3
f 37/37/55 38/38/54 45/45/63 44/44/64
f 38/38/54 39/39/56 46/46/65 45/45/63
f 39/39/56 40/40/57 47/47/66 46/46/65
f 40/40/57 41/41/58 48/48/67 47/47/66
s 2
f 117/135/60 116/134/59 120/138/68 121/139/69
f 119/137/62 118/136/61 122/140/70 123/141/71
s 3
f 44/44/64 45/45/63 52/52/72 51/51/73
f 45/45/63 46/46/65 53/53/74 52/52/72
f 46/46/65 47/47/66 54/54/75 53/53/74
f 47/47/66 48/48/67 55/55/76 54/54/75
s 2
f 121/139/69 120/138/68 124/142/77 125/143/78
f 123/141/71 122/140/70 126/144/79 127/145/80
s 3
f 51/51/73 52/52/72 59/59/81 58/58/82
f 52/52/72 53/53/74 60/60/83 59/59/81
f 53/53/74 54/54/75 61/61/84 60/60/83
f 54/54/75 55/55/76 62/62/85 61/61/84
s 2
f 125/143/78 124/142/77 128/146/86 129/147/87
f 127/145/80 126/144/79 130/148/88 131/149/89
f 126/144/79 132/150/90 133/151/91 130/148/88
f 132/150/90 134/152/92 135/153/93 133/151/91
f 134/152/92 136/154/94 137/155/95 135/153/93
f 136/154/94 129/147/87 138/156/96 137/155/95
f 129/147/87 128/146/86 139/157/97 138/156/96
s 4
f 64/64/98 65/65/99 72/72/100 71/71/101
f 65/65/99 66/66/102 73/73/103 72/72/100
f 66/66/102 67/67/104 74/74/105 73/73/103
f 67/67/104 68/68/106 75/75/107 74/74/105
f 68/68/106 69/69/108 76/76/109 75/75/107
f 69/69/108 70/70/110 77/77/111 76/76/109
s 5
f 79/79/112 77/78/113 70/86/114 63/87/115
f 81/80/116 79/79/112 63/87/115 56/88/117
f 83/81/118 81/80/116 56/88/117 49/89/119
f 85/82/120 83/81/118 49/89/119 42/90/121
f 87/83/122 85/82/120 42/90/121 35/91/123
f 89/84/124 87/83/122 35/91/123 28/92/125
f 91/85/126 89/84/124 28/92/125 21/93/127
f 7/7/128 91/85/126 21/93/127 14/14/129
s 6
f 71/94/130 78/95/131 57/103/132 64/102/133
f 78/95/131 80/96/134 50/104/135 57/103/132
f 80/96/134 82/97/136 43/105/137 50/104/135
f 82/97/136 84/98/138 36/106/139 43/105/137
f 84/98/138 86/99/140 29/107/141 36/106/139
f 86/99/140 88/100/142 22/108/143 29/107/141
f 88/100/142 90/101/144 15/109/145 22/108/143
f 90/101/144 1/1/146 8/8/147 15/109/145
s 1
f 8/8/4 9/9/3 93/111/148 92/110/149
s 6
f 15/15/145 8/8/147 92/110/150 95/112/151
s 1
f 9/9/3 10/10/6 96/113/152 93/111/148
s 7
f 17/17/153 16/16/154 94/115/155 97/114/156
s 1
f 10/10/6 11/11/8 98/116/157 96/113/152
s 7
f 18/18/158 17/17/153 97/114/156 99/117/159
s 1
f 11/11/8 12/12/10 100/118/160 98/116/157
s 7
f 19/19/161 18/18/158 99/117/159 101/119/162
s 1
f 12/12/10 13/13/12 102/120/163 100/118/160
s 7
f 20/20/164 19/19/161 101/119/162 103/121/165
s 1
f 13/13/12 14/14/14 104/122/166 102/120/163
s 5
f 14/14/129 21/21/127 105/123/167 104/122/168
s 8
f 16/16/169 23/23/170 106/124/171 94/115/172
s 6
f 22/22/143 15/15/145 95/112/151 107/125/173
s 5
f 21/21/127 28/28/125 108/126/174 105/123/167
s 9
f 27/27/175 20/20/176 103/121/177 109/127/178
s 8
f 23/23/170 30/30/179 110/128/180 106/124/171
s 6
f 29/29/141 22/22/143 107/125/173 111/129/181
s 5
f 28/28/125 35/35/123 112/130/182 108/126/174
s 9
f 34/34/183 27/27/175 109/127/178 113/131/184
s 8
f 30/30/179 37/37/185 114/132/186 110/128/180
s 6
f 36/36/139 29/29/141 111/129/181 115/133/187
s 5
f 35/35/123 42/42/121 116/134/188 112/130/182
s 9
f 41/41/189 34/34/183 113/131/184 117/135/190
s 8
f 37/37/185 44/44/191 118/136/192 114/132/186
s 6
f 43/43/137 36/36/139 115/133/187 119/137/193
s 5
f 42/42/121 49/49/119 120/138/194 116/134/188
s 9
f 48/48/195 41/41/189 117/135/190 121/139/196
s 8
f 44/44/191 51/51/197 122/140/198 118/136/192
s 6
f 50/50/135 43/43/137 119/137/193 123/141/199
s 5
f 49/49/119 56/56/117 124/142/200 120/138/194
s 9
f 55/55/201 48/48/195 121/139/196 125/143/202
s 8
f 51/51/197 58/58/203 126/144/204 122/140/198
s 6
f 57/57/132 50/50/135 123/141/199 127/145/205
s 5
f 56/56/117 63/63/115 128/146/206 124/142/200
s 9
f 62/62/207 55/55/201 125/143/202 129/147/208
s 4
f 65/65/99 64/64/98 131/149/209 130/148/210
s 6
f 64/64/133 57/57/132 127/145/205 131/149/211
s 10
f 58/58/212 59/59/213 132/150/214 126/144/215
s 4
f 66/66/102 65/65/99 130/148/210 133/151/216
s 10
f 59/59/213 60/60/217 134/152/218 132/150/214
s 4
f 67/67/104 66/66/102 133/151/216 135/153/219
s 10
f 60/60/217 61/61/220 136/154/221 134/152/218
s 4
f 68/68/106 67/67/104 135/153/219 137/155/222
s 10
f 61/61/220 62/62/223 129/147/224 136/154/221
s 4
f 69/69/108 68/68/106 137/155/222 138/156/225
s 5
f 63/63/115 70/70/114 139/157/226 128/146/206
s 4
f 70/70/110 69/69/108 138/156/225 139/157/227
