# This file uses centimeters as units for non-parametric coordinates.

mtllib mountain.mtl
g default
v 9.689548 1.206085 -9.689548
v -3.170924 3.003012 -9.397880
v -3.005624 7.411962 3.005624
v 9.397880 3.003013 3.170924
v 3.005624 7.411962 3.005624
v 3.170924 3.003013 9.397879
v 9.689548 1.206085 9.689548
v -9.397879 3.003013 3.170924
v -9.689548 1.206085 9.689548
v -3.170924 3.003012 9.397880
v -9.689548 1.206085 -9.689548
v -9.397879 3.003012 -3.170924
v -3.005624 7.411962 -3.005624
v 3.170924 3.003013 -9.397879
v 3.005624 7.411962 -3.005624
v 9.397880 3.003012 -3.170924
v -13.563271 0.452374 10.821916
v 10.821916 0.452374 13.563271
v 13.563271 0.452374 -10.821916
v -10.821916 0.452374 -13.563271
v -13.683615 1.136506 -3.718619
v -3.718619 1.136506 13.683615
v 13.683615 1.136506 3.718619
v 3.718619 1.136506 -13.683615
v 0.000000 3.341412 -9.395796
v 0.000000 8.236997 3.004019
v -9.395796 3.341412 0.000000
v 3.004019 8.236997 0.000000
v -13.683615 1.136506 3.718619
v 3.718619 1.136506 13.683615
v 13.683615 1.136506 -3.718619
v -3.718619 1.136506 -13.683615
v -13.563271 0.452374 -10.821916
v -10.821916 0.452374 13.563271
v 13.563271 0.452374 10.821916
v 10.821916 0.452374 -13.563271
v 0.000000 8.236997 -3.004019
v 0.000000 3.341412 9.395796
v -3.004019 8.236997 0.000000
v 9.395796 3.341412 0.000000
v 6.056774 5.374827 3.026876
v 6.359638 2.171131 9.431107
v 3.026876 5.374827 6.056774
v 9.431107 2.171131 6.359638
v -6.056774 5.374827 3.026876
v -6.359638 2.171131 9.431107
v -9.431107 2.171131 6.359638
v -3.026876 5.374827 6.056774
v -6.359638 2.171131 -9.431107
v -6.056774 5.374827 -3.026876
v -9.431107 2.171131 -6.359638
v -3.026876 5.374827 -6.056774
v 6.359638 2.171131 -9.431107
v 6.056774 5.374827 -3.026876
v 3.026876 5.374827 -6.056774
v 9.431107 2.171131 -6.359638
v -13.555535 0.207732 13.555535
v 13.555535 0.207732 13.555535
v -13.555535 0.207732 -13.555535
v 13.555535 0.207732 -13.555535
v -13.689592 1.268046 0.000000
v 0.000000 1.268046 13.689592
v 13.689592 1.268046 0.000000
v 0.000000 1.268046 -13.689592
v 0.000000 9.152515 0.000000
v -13.647820 0.816395 7.382315
v 7.382315 0.816395 13.647820
v 13.647820 0.816395 -7.382315
v -7.382315 0.816395 -13.647820
v -13.647820 0.816395 -7.382315
v -7.382315 0.816395 13.647820
v 13.647820 0.816395 7.382315
v 7.382315 0.816395 -13.647820
v 0.000000 5.975395 -6.053792
v 0.000000 5.975395 6.053792
v -6.053792 5.975395 0.000000
v 6.053792 5.975395 0.000000
v 6.095613 3.893891 6.095613
v -6.095613 3.893891 6.095613
v -6.095613 3.893891 -6.095613
v 6.095613 3.893891 -6.095613
v -18.433876 0.103951 13.801320
v 13.801320 0.103951 18.433876
v 18.433876 0.103951 -13.801320
v -13.801320 0.103951 -18.433876
v -19.108593 0.270477 -4.832250
v -4.832250 0.270477 19.108593
v 19.108593 0.270477 4.832250
v 4.832250 0.270477 -19.108593
v -19.108593 0.270477 4.832250
v 4.832250 0.270477 19.108593
v 19.108593 0.270477 -4.832250
v -4.832250 0.270477 -19.108593
v -18.433876 0.103951 -13.801320
v -13.801320 0.103951 18.433876
v 18.433876 0.103951 13.801320
v 13.801320 0.103951 -18.433876
v -16.980305 0.050024 16.980305
v 16.980305 0.050024 16.980305
v -16.980305 0.050024 -16.980305
v 16.980305 0.050024 -16.980305
v -19.126793 0.303351 0.000000
v 0.000000 0.303351 19.126793
v 19.126793 0.303351 0.000000
v 0.000000 0.303351 -19.126793
v -18.974672 0.191922 9.544945
v 9.544945 0.191922 18.974672
v 18.974672 0.191922 -9.544945
v -9.544945 0.191922 -18.974672
v -18.974672 0.191922 -9.544945
v -9.544945 0.191922 18.974672
v 18.974672 0.191922 9.544945
v 9.544945 0.191922 -18.974672
v -21.955759 0.019431 16.217083
v 16.217083 0.019431 21.955759
v 21.955759 0.019431 -16.217083
v -16.217083 0.019431 -21.955759
v -23.024908 0.053029 -5.734607
v -5.734607 0.053029 23.024908
v 23.024908 0.053029 5.734607
v 5.734607 0.053029 -23.024908
v -23.024908 0.053029 5.734607
v 5.734607 0.053029 23.024908
v 23.024908 0.053029 -5.734607
v -5.734607 0.053029 -23.024908
v -21.955759 0.019431 -16.217083
v -16.217083 0.019431 21.955759
v 21.955759 0.019431 16.217083
v 16.217083 0.019431 -21.955759
v -19.905548 0.008613 19.905548
v 19.905548 0.008613 19.905548
v -19.905548 0.008613 -19.905548
v 19.905548 0.008613 -19.905548
v -23.062927 0.059854 0.000000
v 0.000000 0.059854 23.062927
v 23.062927 0.059854 0.000000
v 0.000000 0.059854 -23.062927
v -22.791092 0.037110 11.281284
v 11.281284 0.037110 22.791092
v 22.791092 0.037110 -11.281284
v -11.281284 0.037110 -22.791092
v -22.791092 0.037110 -11.281284
v -11.281284 0.037110 22.791092
v 22.791092 0.037110 11.281284
v 11.281284 0.037110 -22.791092
vt 0.311445 0.311990
vt 0.375083 0.314426
vt 0.377323 0.377809
vt 0.314011 0.375662
vt 0.232436 0.358091
vt 0.234404 0.290826
vt 0.235141 0.235848
vt 0.290108 0.234974
vt 0.357355 0.232838
vt 0.561195 0.314138
vt 0.623530 0.314092
vt 0.620641 0.377482
vt 0.559373 0.377408
vt 0.498467 0.377365
vt 0.499035 0.314155
vt 0.499441 0.232123
vt 0.570808 0.232076
vt 0.641688 0.232456
vt 0.559034 0.559200
vt 0.620384 0.559601
vt 0.620962 0.620801
vt 0.559694 0.620453
vt 0.498788 0.620410
vt 0.498133 0.559105
vt 0.497809 0.498224
vt 0.558736 0.498340
vt 0.620150 0.498724
vt 0.314182 0.561810
vt 0.377339 0.559928
vt 0.377644 0.621128
vt 0.314338 0.624109
vt 0.232811 0.642423
vt 0.232232 0.571555
vt 0.232084 0.500193
vt 0.314019 0.499665
vt 0.377105 0.499051
vt 0.437666 0.559363
vt 0.438189 0.620616
vt 0.437369 0.498503
vt 0.437527 0.684826
vt 0.499524 0.684677
vt 0.500147 0.767543
vt 0.428829 0.767629
vt 0.358061 0.767340
vt 0.375572 0.685180
vt 0.311941 0.688136
vt 0.290808 0.765486
vt 0.235838 0.764832
vt 0.234957 0.709783
vt 0.684704 0.561312
vt 0.767593 0.570836
vt 0.767312 0.641705
vt 0.685092 0.623611
vt 0.684541 0.499167
vt 0.767504 0.499473
vt 0.688087 0.687631
vt 0.765468 0.709070
vt 0.764822 0.764121
vt 0.709765 0.764923
vt 0.642393 0.766958
vt 0.624019 0.684846
vt 0.561684 0.684659
vt 0.571514 0.767438
vt 0.687591 0.311485
vt 0.764916 0.290113
vt 0.766937 0.357373
vt 0.684764 0.375164
vt 0.709065 0.234411
vt 0.764124 0.235138
vt 0.684540 0.437154
vt 0.767405 0.428150
vt 0.620224 0.438097
vt 0.558873 0.437832
vt 0.497973 0.437738
vt 0.437038 0.314305
vt 0.437869 0.377571
vt 0.428123 0.232268
vt 0.437506 0.437995
vt 0.377179 0.438423
vt 0.314018 0.437652
vt 0.232044 0.428870
vt 0.499456 0.107784
vt 0.598054 0.107701
vt 0.890793 0.303307
vt 0.891995 0.400860
vt 0.213056 0.117440
vt 0.303314 0.109184
vt 0.107779 0.500505
vt 0.107699 0.401914
vt 0.695624 0.108657
vt 0.785920 0.116670
vt 0.117431 0.786941
vt 0.109177 0.696668
vt 0.500491 0.892173
vt 0.401900 0.892262
vt 0.108659 0.304358
vt 0.116676 0.214077
vt 0.400865 0.107966
vt 0.786931 0.882550
vt 0.696656 0.890791
vt 0.892168 0.499451
vt 0.892255 0.598049
vt 0.304346 0.891318
vt 0.214067 0.883319
vt 0.107959 0.599103
vt 0.882555 0.213048
vt 0.891311 0.695617
vt 0.883311 0.785912
vt 0.599089 0.891997
vt 0.853272 0.145786
vt 0.145795 0.146737
vt 0.146728 0.854214
vt 0.854205 0.853263
vt 0.860076 0.983835
vt 0.748295 0.997227
vt 1.000000 0.499328
vt 0.999997 0.624200
vt 0.015211 0.141217
vt 0.057254 0.058431
vt 0.983844 0.139915
vt 0.997233 0.251694
vt 0.141205 0.984801
vt 0.058421 0.942760
vt 0.251706 0.002774
vt 0.374469 0.000336
vt 0.624212 0.000000
vt 0.746982 0.002109
vt 0.984792 0.858785
vt 0.942750 0.941572
vt 0.002768 0.748307
vt 0.000333 0.625543
vt 0.000004 0.375800
vt 0.002115 0.253031
vt 0.625531 0.999664
vt 0.139927 0.016167
vt 0.375788 1.000000
vt 0.253019 0.997892
vt 0.999667 0.374457
vt 0.016159 0.860087
vt 0.997887 0.746970
vt 0.858798 0.015201
vt 0.499340 0.000000
vt 0.941583 0.057243
vt 0.000000 0.500672
vt 0.500660 1.000000
vn 0.213319 0.953410 -0.213319
vn 0.238534 0.910613 -0.337468
vn 0.393437 0.830912 -0.393437
vn 0.337468 0.910613 -0.238534
vn 0.164421 0.981093 -0.102089
vn 0.096108 0.990472 -0.098631
vn 0.054607 0.997014 -0.054607
vn 0.098631 0.990472 -0.096108
vn 0.102089 0.981093 -0.164421
vn -0.156113 0.877671 -0.453125
vn -0.238534 0.910613 -0.337469
vn -0.393437 0.830912 -0.393437
vn -0.267216 0.806402 -0.527553
vn -0.000000 0.809835 -0.586658
vn -0.000000 0.865114 -0.501576
vn -0.000000 0.963104 -0.269130
vn -0.065617 0.969121 -0.237696
vn -0.102089 0.981093 -0.164421
vn -0.378034 0.845092 0.378034
vn -0.527553 0.806402 0.267216
vn -0.393437 0.830912 0.393437
vn -0.267216 0.806402 0.527553
vn -0.000000 0.809835 0.586658
vn 0.000000 0.900606 0.434637
vn 0.000000 1.000000 0.000000
vn -0.434638 0.900605 0.000000
vn -0.586658 0.809835 -0.000000
vn 0.453125 0.877671 0.156113
vn 0.527553 0.806402 0.267216
vn 0.393437 0.830912 0.393437
vn 0.337468 0.910613 0.238534
vn 0.164421 0.981093 0.102090
vn 0.237696 0.969121 0.065617
vn 0.269130 0.963104 -0.000000
vn 0.501576 0.865113 -0.000000
vn 0.586658 0.809835 -0.000000
vn 0.378034 0.845092 0.378034
vn 0.267216 0.806402 0.527553
vn 0.434638 0.900605 -0.000000
vn 0.156113 0.877671 0.453125
vn -0.000000 0.865114 0.501576
vn -0.000000 0.963104 0.269130
vn 0.065617 0.969121 0.237696
vn 0.102089 0.981093 0.164421
vn 0.238534 0.910613 0.337468
vn 0.213319 0.953410 0.213319
vn 0.098631 0.990472 0.096108
vn 0.054607 0.997014 0.054607
vn 0.096108 0.990472 0.098631
vn -0.453125 0.877671 0.156113
vn -0.237696 0.969121 0.065617
vn -0.164421 0.981093 0.102089
vn -0.337469 0.910613 0.238534
vn -0.501576 0.865114 -0.000000
vn -0.269130 0.963104 -0.000000
vn -0.213319 0.953410 0.213319
vn -0.096108 0.990472 0.098631
vn -0.054607 0.997014 0.054607
vn -0.098631 0.990472 0.096108
vn -0.102089 0.981093 0.164421
vn -0.238534 0.910613 0.337468
vn -0.156113 0.877671 0.453125
vn -0.065617 0.969121 0.237696
vn -0.213319 0.953410 -0.213319
vn -0.096108 0.990472 -0.098631
vn -0.164421 0.981093 -0.102089
vn -0.337468 0.910613 -0.238534
vn -0.098631 0.990472 -0.096108
vn -0.054607 0.997014 -0.054607
vn -0.453125 0.877671 -0.156113
vn -0.237696 0.969121 -0.065617
vn -0.527553 0.806402 -0.267216
vn -0.378035 0.845092 -0.378034
vn 0.000000 0.900606 -0.434638
vn 0.156113 0.877671 -0.453125
vn 0.267216 0.806402 -0.527553
vn 0.065617 0.969121 -0.237696
vn 0.378034 0.845092 -0.378034
vn 0.527553 0.806402 -0.267216
vn 0.453125 0.877671 -0.156113
vn 0.237696 0.969121 -0.065617
vn 0.000000 0.993417 -0.114559
vn -0.022334 0.994817 -0.099196
vn -0.063069 0.997378 -0.035496
vn -0.099196 0.994817 -0.022334
vn 0.034567 0.999009 -0.028050
vn 0.035496 0.997378 -0.063069
vn 0.114559 0.993417 -0.000000
vn 0.099196 0.994817 -0.022334
vn -0.035496 0.997378 -0.063069
vn -0.034567 0.999009 -0.028050
vn 0.028050 0.999009 0.034567
vn 0.063069 0.997378 0.035496
vn 0.000000 0.993417 0.114559
vn 0.022334 0.994817 0.099196
vn 0.063069 0.997378 -0.035496
vn 0.028050 0.999009 -0.034567
vn 0.022334 0.994817 -0.099196
vn -0.034567 0.999009 0.028050
vn -0.035496 0.997378 0.063069
vn -0.114559 0.993417 0.000000
vn -0.099196 0.994817 0.022334
vn 0.035496 0.997378 0.063069
vn 0.034567 0.999009 0.028050
vn 0.099196 0.994817 0.022334
vn -0.028050 0.999009 -0.034567
vn -0.063069 0.997378 0.035496
vn -0.028050 0.999009 0.034567
vn -0.022334 0.994817 0.099196
vn -0.020457 0.999582 -0.020457
vn 0.020457 0.999582 -0.020457
vn 0.020457 0.999582 0.020457
vn -0.020457 0.999582 0.020457
vn -0.014277 0.999782 0.015241
vn -0.013304 0.999382 0.032524
vn -0.058135 0.998309 0.000000
vn -0.050496 0.998694 0.007807
vn 0.015241 0.999782 -0.014277
vn 0.010935 0.999880 -0.010935
vn -0.015241 0.999782 -0.014277
vn -0.032524 0.999382 -0.013304
vn 0.014277 0.999782 0.015241
vn 0.010935 0.999880 0.010935
vn 0.013304 0.999382 -0.032524
vn 0.007807 0.998694 -0.050496
vn -0.007807 0.998694 -0.050496
vn -0.013304 0.999382 -0.032524
vn -0.015241 0.999782 0.014277
vn -0.010935 0.999880 0.010935
vn 0.032524 0.999382 0.013304
vn 0.050496 0.998694 0.007807
vn 0.050496 0.998694 -0.007807
vn 0.032524 0.999382 -0.013304
vn -0.007807 0.998694 0.050496
vn 0.014277 0.999782 -0.015241
vn 0.007807 0.998694 0.050496
vn 0.013304 0.999382 0.032524
vn -0.050496 0.998694 -0.007807
vn 0.015241 0.999782 0.014277
vn -0.032524 0.999382 0.013304
vn -0.014277 0.999782 -0.015241
vn 0.000000 0.998309 -0.058135
vn -0.010935 0.999880 -0.010935
vn 0.058135 0.998309 -0.000000
vn 0.000000 0.998309 0.058135
s 1
g Mountain:Mesh
usemtl Mountain:Material
f 1/1/1 53/2/2 81/3/3 56/4/4
f 1/1/1 56/4/4 68/5/5 19/6/6
f 1/1/1 19/6/6 60/7/7 36/8/8
f 1/1/1 36/8/8 73/9/9 53/2/2
f 2/10/10 49/11/11 80/12/12 52/13/13
f 2/10/10 52/13/13 74/14/14 25/15/15
f 2/10/10 25/15/15 64/16/16 32/17/17
f 2/10/10 32/17/17 69/18/18 49/11/11
f 3/19/19 45/20/20 79/21/21 48/22/22
f 3/19/19 48/22/22 75/23/23 26/24/24
f 3/19/19 26/24/24 65/25/25 39/26/26
f 3/19/19 39/26/26 76/27/27 45/20/20
f 4/28/28 41/29/29 78/30/30 44/31/31
f 4/28/28 44/31/31 72/32/32 23/33/33
f 4/28/28 23/33/33 63/34/34 40/35/35
f 4/28/28 40/35/35 77/36/36 41/29/29
f 5/37/37 26/24/24 75/23/23 43/38/38
f 5/37/37 43/38/38 78/30/30 41/29/29
f 5/37/37 41/29/29 77/36/36 28/39/39
f 5/37/37 28/39/39 65/25/25 26/24/24
f 6/40/40 38/41/41 62/42/42 30/43/43
f 6/40/40 30/43/43 67/44/44 42/45/45
f 6/40/40 42/45/45 78/30/30 43/38/38
f 6/40/40 43/38/38 75/23/23 38/41/41
f 7/46/46 42/45/45 67/44/44 18/47/47
f 7/46/46 18/47/47 58/48/48 35/49/49
f 7/46/46 35/49/49 72/32/32 44/31/31
f 7/46/46 44/31/31 78/30/30 42/45/45
f 8/50/50 29/51/51 66/52/52 47/53/53
f 8/50/50 47/53/53 79/21/21 45/20/20
f 8/50/50 45/20/20 76/27/27 27/54/54
f 8/50/50 27/54/54 61/55/55 29/51/51
f 9/56/56 17/57/57 57/58/58 34/59/59
f 9/56/56 34/59/59 71/60/60 46/61/61
f 9/56/56 46/61/61 79/21/21 47/53/53
f 9/56/56 47/53/53 66/52/52 17/57/57
f 10/62/62 46/61/61 71/60/60 22/63/63
f 10/62/62 22/63/63 62/42/42 38/41/41
f 10/62/62 38/41/41 75/23/23 48/22/22
f 10/62/62 48/22/22 79/21/21 46/61/61
f 11/64/64 33/65/65 70/66/66 51/67/67
f 11/64/64 51/67/67 80/12/12 49/11/11
f 11/64/64 49/11/11 69/18/18 20/68/68
f 11/64/64 20/68/68 59/69/69 33/65/65
f 12/70/70 21/71/71 61/55/55 27/54/54
f 12/70/70 27/54/54 76/27/27 50/72/72
f 12/70/70 50/72/72 80/12/12 51/67/67
f 12/70/70 51/67/67 70/66/66 21/71/71
f 13/73/73 50/72/72 76/27/27 39/26/26
f 13/73/73 39/26/26 65/25/25 37/74/74
f 13/73/73 37/74/74 74/14/14 52/13/13
f 13/73/73 52/13/13 80/12/12 50/72/72
f 14/75/75 25/15/15 74/14/14 55/76/76
f 14/75/75 55/76/76 81/3/3 53/2/2
f 14/75/75 53/2/2 73/9/9 24/77/77
f 14/75/75 24/77/77 64/16/16 25/15/15
f 15/78/78 37/74/74 65/25/25 28/39/39
f 15/78/78 28/39/39 77/36/36 54/79/79
f 15/78/78 54/79/79 81/3/3 55/76/76
f 15/78/78 55/76/76 74/14/14 37/74/74
f 16/80/80 54/79/79 77/36/36 40/35/35
f 16/80/80 40/35/35 63/34/34 31/81/81
f 16/80/80 31/81/81 68/5/5 56/4/4
f 16/80/80 56/4/4 81/3/3 54/79/79
f 32/17/17 64/16/16 105/82/82 93/83/83
f 21/71/71 70/66/66 110/84/84 86/85/85
f 73/9/9 36/8/8 97/86/86 113/87/87
f 31/81/81 63/34/34 104/88/88 92/89/89
f 20/68/68 69/18/18 109/90/90 85/91/91
f 72/32/32 35/49/49 96/92/92 112/93/93
f 30/43/43 62/42/42 103/94/94 91/95/95
f 19/6/6 68/5/5 108/96/96 84/97/97
f 64/16/16 24/77/77 89/98/98 105/82/82
f 71/60/60 34/59/59 95/99/99 111/100/100
f 29/51/51 61/55/55 102/101/101 90/102/102
f 18/47/47 67/44/44 107/103/103 83/104/104
f 63/34/34 23/33/33 88/105/105 104/88/88
f 70/66/66 33/65/65 94/106/106 110/84/84
f 17/57/57 66/52/52 106/107/107 82/108/108
f 62/42/42 22/63/63 87/109/109 103/94/94
f 69/18/18 32/17/17 93/83/83 109/90/90
f 61/55/55 21/71/71 86/85/85 102/101/101
f 68/5/5 31/81/81 92/89/89 108/96/96
f 59/69/69 20/68/68 85/91/91 100/110/110
f 36/8/8 60/7/7 101/111/111 97/86/86
f 67/44/44 30/43/43 91/95/95 107/103/103
f 60/7/7 19/6/6 84/97/97 101/111/111
f 35/49/49 58/48/48 99/112/112 96/92/92
f 66/52/52 29/51/51 90/102/102 106/107/107
f 58/48/48 18/47/47 83/104/104 99/112/112
f 24/77/77 73/9/9 113/87/87 89/98/98
f 34/59/59 57/58/58 98/113/113 95/99/99
f 57/58/58 17/57/57 82/108/108 98/113/113
f 23/33/33 72/32/32 112/93/93 88/105/105
f 33/65/65 59/69/69 100/110/110 94/106/106
f 22/63/63 71/60/60 111/100/100 87/109/109
f 111/100/100 95/99/99 127/114/114 143/115/115
f 90/102/102 102/101/101 134/116/116 122/117/117
f 101/111/111 84/97/97 116/118/118 133/119/119
f 110/84/84 94/106/106 126/120/120 142/121/121
f 99/112/112 83/104/104 115/122/122 131/123/123
f 89/98/98 113/87/87 145/124/124 121/125/125
f 109/90/90 93/83/83 125/126/126 141/127/127
f 98/113/113 82/108/108 114/128/128 130/129/129
f 88/105/105 112/93/93 144/130/130 120/131/131
f 108/96/96 92/89/89 124/132/132 140/133/133
f 87/109/109 111/100/100 143/115/115 119/134/134
f 97/86/86 101/111/111 133/119/119 129/135/135
f 107/103/103 91/95/95 123/136/136 139/137/137
f 86/85/85 110/84/84 142/121/121 118/138/138
f 96/92/92 99/112/112 131/123/123 128/139/139
f 106/107/107 90/102/102 122/117/117 138/140/140
f 85/91/91 109/90/90 141/127/127 117/141/141
f 95/99/99 98/113/113 130/129/129 127/114/114
f 84/97/97 108/96/96 140/133/133 116/118/118
f 105/82/82 89/98/98 121/125/125 137/142/142
f 94/106/106 100/110/110 132/143/143 126/120/120
f 83/104/104 107/103/103 139/137/137 115/122/122
f 104/88/88 88/105/105 120/131/131 136/144/144
f 93/83/83 105/82/82 137/142/142 125/126/126
f 82/108/108 106/107/107 138/140/140 114/128/128
f 103/94/94 87/109/109 119/134/134 135/145/145
f 113/87/87 97/86/86 129/135/135 145/124/124
f 92/89/89 104/88/88 136/144/144 124/132/132
f 102/101/101 86/85/85 118/138/138 134/116/116
f 112/93/93 96/92/92 128/139/139 144/130/130
f 91/95/95 103/94/94 135/145/145 123/136/136
f 100/110/110 85/91/91 117/141/141 132/143/143
