# This file uses centimeters as units for non-parametric coordinates.

mtllib pipe.mtl
g default
v 0.414101 1.044578 0.000000
v 0.393833 1.044578 -0.127964
v 0.335015 1.044578 -0.243402
v 0.243402 1.044578 -0.335015
v 0.127964 1.044578 -0.393833
v -0.000000 1.044578 -0.414101
v -0.127964 1.044578 -0.393833
v -0.243402 1.044578 -0.335015
v -0.335015 1.044578 -0.243402
v -0.393833 1.044578 -0.127964
v -0.414101 1.044578 0.000000
v -0.393833 1.044578 0.127964
v -0.335015 1.044578 0.243403
v -0.243403 1.044578 0.335015
v -0.127964 1.044578 0.393834
v -0.000000 1.044578 0.414101
v 0.127964 1.044578 0.393834
v 0.243403 1.044578 0.335015
v 0.335015 1.044578 0.243403
v 0.393834 1.044578 0.127964
v 0.828202 1.044578 0.000000
v 0.787667 1.044578 -0.255928
v 0.670029 1.044578 -0.486805
v 0.486805 1.044578 -0.670029
v 0.255928 1.044578 -0.787667
v -0.000000 1.044578 -0.828202
v -0.255929 1.044578 -0.787667
v -0.486805 1.044578 -0.670029
v -0.670029 1.044578 -0.486805
v -0.787667 1.044578 -0.255928
v -0.828202 1.044578 0.000000
v -0.787667 1.044578 0.255929
v -0.670030 1.044578 0.486805
v -0.486805 1.044578 0.670030
v -0.255929 1.044578 0.787667
v -0.000000 1.044578 0.828202
v 0.255929 1.044578 0.787667
v 0.486805 1.044578 0.670030
v 0.670030 1.044578 0.486805
v 0.787667 1.044578 0.255929
v 1.000000 -1.016858 -0.000000
v 0.951057 -1.016858 -0.309017
v 0.809017 -1.016858 -0.587785
v 0.587785 -1.016858 -0.809017
v 0.309017 -1.016858 -0.951057
v -0.000000 -1.016858 -1.000000
v -0.309017 -1.016858 -0.951057
v -0.587785 -1.016858 -0.809017
v -0.809017 -1.016858 -0.587785
v -0.951057 -1.016858 -0.309017
v -1.000000 -1.016858 -0.000000
v -0.951057 -1.016858 0.309017
v -0.809017 -1.016858 0.587785
v -0.587785 -1.016858 0.809017
v -0.309017 -1.016858 0.951057
v 0.000000 -1.016858 1.000000
v 0.309017 -1.016858 0.951057
v 0.587786 -1.016858 0.809017
v 0.809018 -1.016858 0.587786
v 0.951057 -1.016858 0.309017
v 1.000000 0.699932 0.000000
v 0.951057 0.699932 0.309017
v 0.809018 0.699932 0.587786
v 0.587786 0.699932 0.809018
v 0.309017 0.699932 0.951057
v 0.000000 0.699932 1.000000
v -0.309017 0.699932 0.951057
v -0.587785 0.699932 0.809017
v -0.809017 0.699932 0.587785
v -0.951057 0.699932 0.309017
v -1.000000 0.699932 0.000000
v -0.951057 0.699932 -0.309017
v -0.809017 0.699932 -0.587785
v -0.587785 0.699932 -0.809017
v -0.309017 0.699932 -0.951057
v -0.000000 0.699932 -1.000000
v 0.309017 0.699932 -0.951057
v 0.587785 0.699932 -0.809017
v 0.809017 0.699932 -0.587785
v 0.951057 0.699932 -0.309017
v 1.345304 1.082546 0.437116
v 1.414536 1.082546 -0.000000
v 1.345304 0.634243 0.437116
v 1.414536 0.634243 -0.000000
v 1.144384 1.082546 0.831443
v 1.144384 0.634243 0.831443
v 0.831443 1.082546 1.144384
v 0.831443 0.634243 1.144384
v 0.437116 1.082546 1.345304
v 0.437116 0.634243 1.345304
v 0.000000 1.082546 1.414536
v 0.000000 0.634243 1.414536
v -0.437116 1.082546 1.345304
v -0.437116 0.634243 1.345304
v -0.831443 1.082546 1.144383
v -0.831443 0.634243 1.144383
v -1.144383 1.082546 0.831443
v -1.144383 0.634243 0.831443
v -1.345304 1.082546 0.437116
v -1.345304 0.634243 0.437116
v -1.414536 1.082546 -0.000000
v -1.414536 0.634243 -0.000000
v -1.345304 1.082546 -0.437116
v -1.345304 0.634243 -0.437116
v -1.144383 1.082546 -0.831443
v -1.144383 0.634243 -0.831443
v -0.831443 1.082546 -1.144384
v -0.831443 0.634243 -1.144384
v -0.437116 1.082546 -1.345303
v -0.437116 0.634243 -1.345303
v 0.000000 1.082546 -1.414536
v 0.000000 0.634243 -1.414536
v 0.437115 1.082546 -1.345303
v 0.437115 0.634243 -1.345303
v 0.831443 1.082546 -1.144383
v 0.831443 0.634243 -1.144383
v 1.144383 1.082546 -0.831443
v 1.144383 0.634243 -0.831443
v 1.345303 1.082546 -0.437116
v 1.345303 0.634243 -0.437116
vt 0.301646 0.643506
vt 0.301646 0.728943
vt 0.068250 0.728943
vt 0.068250 0.643506
vt 0.301646 0.814381
vt 0.068250 0.814381
vt 0.301646 0.566431
vt 0.068250 0.566431
vt 0.301646 0.891456
vt 0.068250 0.891456
vt 0.301646 0.505264
vt 0.068250 0.505264
vt 0.301646 0.952623
vt 0.068250 0.952623
vt 0.296595 0.810709
vt 0.296595 0.887783
vt 0.063198 0.887783
vt 0.063198 0.810709
vt 0.296595 0.948950
vt 0.063198 0.948950
vt 0.296595 0.725271
vt 0.063198 0.725271
vt 0.296595 0.639833
vt 0.063198 0.639833
vt 0.296595 0.562758
vt 0.063198 0.562758
vt 0.296595 0.501591
vt 0.063198 0.501591
vt 0.508413 0.713248
vt 0.508413 0.809947
vt 0.459648 0.809947
vt 0.459648 0.713248
vt 0.508413 0.897180
vt 0.459648 0.897180
vt 0.508413 0.616549
vt 0.459648 0.616549
vt 0.508413 0.966409
vt 0.459648 0.966409
vt 0.508413 0.529315
vt 0.459648 0.529315
vt 0.508413 0.460086
vt 0.459648 0.460086
vt 0.509391 0.529699
vt 0.509391 0.616932
vt 0.460626 0.616932
vt 0.460626 0.529699
vt 0.509391 0.713632
vt 0.460626 0.713632
vt 0.509391 0.460470
vt 0.460626 0.460470
vt 0.509391 0.810330
vt 0.460626 0.810330
vt 0.509391 0.897564
vt 0.460626 0.897564
vt 0.509391 0.966793
vt 0.460626 0.966793
vt 0.297110 0.253547
vt 0.300417 0.232663
vt 0.367997 0.232663
vt 0.361382 0.274430
vt 0.297110 0.211780
vt 0.361382 0.190897
vt 0.463684 0.232663
vt 0.452386 0.303999
vt 0.287511 0.272386
vt 0.342184 0.312108
vt 0.287511 0.192941
vt 0.342184 0.153219
vt 0.452386 0.161328
vt 0.419596 0.368351
vt 0.272560 0.287336
vt 0.312282 0.342009
vt 0.272560 0.177990
vt 0.312282 0.123318
vt 0.419596 0.096976
vt 0.368526 0.419422
vt 0.253721 0.296935
vt 0.274604 0.361207
vt 0.253721 0.168392
vt 0.274604 0.104120
vt 0.368526 0.045905
vt 0.304173 0.452211
vt 0.232838 0.300243
vt 0.232838 0.367822
vt 0.232838 0.165084
vt 0.232838 0.097504
vt 0.304173 0.013116
vt 0.232838 0.463509
vt 0.211955 0.296935
vt 0.191072 0.361207
vt 0.211955 0.168392
vt 0.191072 0.104120
vt 0.232838 0.001817
vt 0.161503 0.452211
vt 0.193116 0.287336
vt 0.153394 0.342009
vt 0.193116 0.177990
vt 0.153394 0.123318
vt 0.161503 0.013116
vt 0.097150 0.419422
vt 0.178165 0.272386
vt 0.123492 0.312108
vt 0.178165 0.192941
vt 0.123492 0.153219
vt 0.097150 0.045905
vt 0.046080 0.368351
vt 0.168566 0.253547
vt 0.104294 0.274430
vt 0.168566 0.211780
vt 0.104294 0.190897
vt 0.046080 0.096976
vt 0.013290 0.303999
vt 0.165259 0.232663
vt 0.097679 0.232663
vt 0.013290 0.161328
vt 0.001992 0.232663
vt 0.855990 0.283094
vt 0.863977 0.232663
vt 0.931628 0.232663
vt 0.920329 0.303999
vt 0.855990 0.182233
vt 0.920329 0.161328
vt 0.832810 0.328587
vt 0.887540 0.368351
vt 0.832810 0.136739
vt 0.887540 0.096976
vt 0.796706 0.364691
vt 0.836469 0.419422
vt 0.796705 0.100635
vt 0.836469 0.045905
vt 0.751212 0.387872
vt 0.772117 0.452211
vt 0.751212 0.077455
vt 0.772117 0.013116
vt 0.700782 0.395859
vt 0.700782 0.463509
vt 0.700782 0.069468
vt 0.700782 0.001817
vt 0.650351 0.387872
vt 0.629446 0.452211
vt 0.650351 0.077455
vt 0.629446 0.013116
vt 0.604858 0.364691
vt 0.565094 0.419422
vt 0.604858 0.100635
vt 0.565094 0.045905
vt 0.568753 0.328587
vt 0.514023 0.368351
vt 0.568754 0.136739
vt 0.514023 0.096976
vt 0.545573 0.283094
vt 0.481234 0.303999
vt 0.545573 0.182233
vt 0.481234 0.161328
vt 0.537586 0.232663
vt 0.469936 0.232663
vt 0.069165 0.574993
vt 0.069165 0.497918
vt 0.302562 0.497918
vt 0.302562 0.574993
vt 0.069165 0.660431
vt 0.302562 0.660431
vt 0.069165 0.745869
vt 0.302562 0.745869
vt 0.069165 0.822943
vt 0.302562 0.822943
vt 0.300811 0.747093
vt 0.300811 0.824168
vt 0.067415 0.824168
vt 0.067415 0.747093
vt 0.300811 0.661656
vt 0.067415 0.661656
vt 0.300811 0.576218
vt 0.067415 0.576218
vt 0.300811 0.499143
vt 0.067415 0.499143
vt 0.515840 0.459506
vt 0.515840 0.546740
vt 0.467075 0.546740
vt 0.467075 0.459506
vt 0.515840 0.643439
vt 0.467075 0.643439
vt 0.515840 0.740138
vt 0.467075 0.740138
vt 0.515840 0.827371
vt 0.467075 0.827371
vt 0.462891 0.827371
vt 0.462891 0.740138
vt 0.511656 0.740138
vt 0.511656 0.827371
vt 0.462891 0.643439
vt 0.511656 0.643439
vt 0.462891 0.546740
vt 0.511656 0.546740
vt 0.462891 0.459506
vt 0.511656 0.459506
vn 0.000000 1.000000 0.000000
vn 0.000000 1.000000 0.000000
vn 0.000000 1.000000 0.000000
vn 0.000000 1.000000 0.000000
vn 0.000000 1.000000 0.000000
vn 0.000000 1.000000 0.000000
vn 0.000000 1.000000 0.000000
vn 0.000000 1.000000 0.000000
vn 0.000000 1.000000 0.000000
vn 0.000000 1.000000 0.000000
vn 0.000000 1.000000 0.000000
vn 0.000000 1.000000 0.000000
vn 0.000000 1.000000 -0.000000
vn 0.000000 1.000000 -0.000000
vn 0.000000 1.000000 0.000000
vn 0.000000 1.000000 0.000000
vn 0.000000 1.000000 0.000000
vn 0.000000 1.000000 0.000000
vn 0.000000 1.000000 0.000000
vn 0.000000 1.000000 0.000000
vn 0.000000 1.000000 0.000000
vn 0.000000 1.000000 0.000000
vn 0.000000 1.000000 0.000000
vn 0.000000 1.000000 0.000000
vn 0.000000 1.000000 0.000000
vn 0.000000 1.000000 0.000000
vn 0.000000 1.000000 0.000000
vn 0.000000 1.000000 0.000000
vn 0.000000 1.000000 0.000000
vn 0.000000 1.000000 0.000000
vn 0.000000 1.000000 -0.000000
vn 0.000000 1.000000 -0.000000
vn 0.000000 1.000000 -0.000000
vn 0.000000 1.000000 -0.000000
vn 0.000000 1.000000 -0.000000
vn 0.000000 1.000000 -0.000000
vn 0.000000 1.000000 -0.000000
vn 0.000000 1.000000 0.000000
vn 0.000000 1.000000 0.000000
vn 0.000000 1.000000 0.000000
vn 0.951057 0.000000 -0.309017
vn 1.000000 -0.000000 -0.000001
vn 1.000000 -0.000000 -0.000001
vn 0.951057 0.000000 -0.309017
vn 0.809017 0.000000 -0.587785
vn 0.809017 0.000000 -0.587785
vn 0.587785 0.000000 -0.809017
vn 0.587785 0.000000 -0.809017
vn 0.309017 0.000000 -0.951057
vn 0.309017 0.000000 -0.951057
vn 0.000000 0.000000 -1.000000
vn 0.000000 0.000000 -1.000000
vn -0.309017 -0.000000 -0.951057
vn -0.309017 -0.000000 -0.951057
vn -0.587785 -0.000000 -0.809017
vn -0.587785 -0.000000 -0.809017
vn -0.809017 -0.000000 -0.587785
vn -0.809017 -0.000000 -0.587785
vn -0.951057 -0.000000 -0.309017
vn -0.951057 -0.000000 -0.309017
vn -1.000000 -0.000000 0.000000
vn -1.000000 -0.000000 0.000000
vn -0.951057 -0.000000 0.309017
vn -0.951057 -0.000000 0.309017
vn -0.809017 -0.000000 0.587785
vn -0.809017 -0.000000 0.587785
vn -0.587785 0.000000 0.809017
vn -0.587785 0.000000 0.809017
vn -0.309017 0.000000 0.951056
vn -0.309017 0.000000 0.951056
vn -0.000000 0.000000 1.000000
vn -0.000000 0.000000 1.000000
vn 0.309017 -0.000000 0.951057
vn 0.309017 -0.000000 0.951057
vn 0.587785 -0.000000 0.809017
vn 0.587785 -0.000000 0.809017
vn 0.809017 -0.000000 0.587785
vn 0.809017 -0.000000 0.587785
vn 0.951057 -0.000000 0.309016
vn 0.951057 -0.000000 0.309016
vn 1.000000 0.000000 -0.000001
vn 0.951057 0.000000 0.309016
vn 0.951057 0.000000 0.309016
vn 1.000000 0.000000 -0.000001
vn 0.809017 0.000000 0.587785
vn 0.809017 0.000000 0.587785
vn 0.587785 0.000000 0.809017
vn 0.587785 0.000000 0.809017
vn 0.309017 0.000000 0.951057
vn 0.309017 0.000000 0.951057
vn -0.000000 0.000000 1.000000
vn -0.000000 0.000000 1.000000
vn -0.309017 0.000000 0.951056
vn -0.309017 0.000000 0.951056
vn -0.587786 0.000000 0.809017
vn -0.587786 0.000000 0.809017
vn -0.809017 0.000000 0.587785
vn -0.809017 0.000000 0.587785
vn -0.951056 0.000000 0.309017
vn -0.951056 0.000000 0.309017
vn -1.000000 0.000000 0.000000
vn -1.000000 0.000000 0.000000
vn -0.951056 0.000000 -0.309017
vn -0.951056 0.000000 -0.309017
vn -0.809017 0.000000 -0.587785
vn -0.809017 0.000000 -0.587785
vn -0.587785 0.000000 -0.809017
vn -0.587785 0.000000 -0.809017
vn -0.309017 0.000000 -0.951057
vn -0.309017 0.000000 -0.951057
vn 0.000000 0.000000 -1.000000
vn 0.000000 0.000000 -1.000000
vn 0.309017 0.000000 -0.951056
vn 0.309017 0.000000 -0.951056
vn 0.587785 0.000000 -0.809017
vn 0.587785 0.000000 -0.809017
vn 0.809017 0.000000 -0.587785
vn 0.809017 0.000000 -0.587785
vn 0.951056 0.000000 -0.309017
vn 0.951056 0.000000 -0.309017
vn -0.064616 0.997858 -0.010234
vn -0.064616 0.997858 -0.010234
vn -0.064616 0.997858 -0.010234
vn -0.064616 0.997858 -0.010234
vn -0.156462 -0.987373 -0.024781
vn -0.156462 -0.987373 -0.024781
vn -0.156462 -0.987373 -0.024781
vn -0.156462 -0.987373 -0.024781
vn -0.058291 0.997858 -0.029701
vn -0.058291 0.997858 -0.029701
vn -0.058291 0.997858 -0.029701
vn -0.058291 0.997858 -0.029701
vn -0.141146 -0.987373 -0.071918
vn -0.141146 -0.987373 -0.071918
vn -0.141146 -0.987373 -0.071918
vn -0.141146 -0.987373 -0.071918
vn -0.046260 0.997858 -0.046260
vn -0.046260 0.997858 -0.046260
vn -0.046260 0.997858 -0.046260
vn -0.046260 0.997858 -0.046260
vn -0.112014 -0.987373 -0.112014
vn -0.112014 -0.987373 -0.112014
vn -0.112014 -0.987373 -0.112014
vn -0.112014 -0.987373 -0.112014
vn -0.029701 0.997858 -0.058291
vn -0.029701 0.997858 -0.058291
vn -0.029701 0.997858 -0.058291
vn -0.029701 0.997858 -0.058291
vn -0.071918 -0.987373 -0.141146
vn -0.071918 -0.987373 -0.141146
vn -0.071918 -0.987373 -0.141146
vn -0.071918 -0.987373 -0.141146
vn -0.010234 0.997858 -0.064616
vn -0.010234 0.997858 -0.064616
vn -0.010234 0.997858 -0.064616
vn -0.010234 0.997858 -0.064616
vn -0.024781 -0.987373 -0.156462
vn -0.024781 -0.987373 -0.156462
vn -0.024781 -0.987373 -0.156462
vn -0.024781 -0.987373 -0.156462
vn 0.010234 0.997858 -0.064616
vn 0.010234 0.997858 -0.064616
vn 0.010234 0.997858 -0.064616
vn 0.010234 0.997858 -0.064616
vn 0.024781 -0.987373 -0.156462
vn 0.024781 -0.987373 -0.156462
vn 0.024781 -0.987373 -0.156462
vn 0.024781 -0.987373 -0.156462
vn 0.029701 0.997858 -0.058291
vn 0.029701 0.997858 -0.058291
vn 0.029701 0.997858 -0.058291
vn 0.029701 0.997858 -0.058291
vn 0.071918 -0.987373 -0.141147
vn 0.071918 -0.987373 -0.141147
vn 0.071918 -0.987373 -0.141147
vn 0.071918 -0.987373 -0.141147
vn 0.046260 0.997858 -0.046260
vn 0.046260 0.997858 -0.046260
vn 0.046260 0.997858 -0.046260
vn 0.046260 0.997858 -0.046260
vn 0.112015 -0.987373 -0.112015
vn 0.112015 -0.987373 -0.112015
vn 0.112015 -0.987373 -0.112015
vn 0.112015 -0.987373 -0.112015
vn 0.058291 0.997858 -0.029701
vn 0.058291 0.997858 -0.029701
vn 0.058291 0.997858 -0.029701
vn 0.058291 0.997858 -0.029701
vn 0.141146 -0.987373 -0.071918
vn 0.141146 -0.987373 -0.071918
vn 0.141146 -0.987373 -0.071918
vn 0.141146 -0.987373 -0.071918
vn 0.064616 0.997858 -0.010234
vn 0.064616 0.997858 -0.010234
vn 0.064616 0.997858 -0.010234
vn 0.064616 0.997858 -0.010234
vn 0.156462 -0.987373 -0.024781
vn 0.156462 -0.987373 -0.024781
vn 0.156462 -0.987373 -0.024781
vn 0.156462 -0.987373 -0.024781
vn 0.064616 0.997858 0.010234
vn 0.064616 0.997858 0.010234
vn 0.064616 0.997858 0.010234
vn 0.064616 0.997858 0.010234
vn 0.156462 -0.987373 0.024781
vn 0.156462 -0.987373 0.024781
vn 0.156462 -0.987373 0.024781
vn 0.156462 -0.987373 0.024781
vn 0.058291 0.997858 0.029701
vn 0.058291 0.997858 0.029701
vn 0.058291 0.997858 0.029701
vn 0.058291 0.997858 0.029701
vn 0.141146 -0.987373 0.071918
vn 0.141146 -0.987373 0.071918
vn 0.141146 -0.987373 0.071918
vn 0.141146 -0.987373 0.071918
vn 0.046260 0.997858 0.046260
vn 0.046260 0.997858 0.046260
vn 0.046260 0.997858 0.046260
vn 0.046260 0.997858 0.046260
vn 0.112015 -0.987373 0.112014
vn 0.112015 -0.987373 0.112014
vn 0.112015 -0.987373 0.112014
vn 0.112015 -0.987373 0.112014
vn 0.029701 0.997858 0.058291
vn 0.029701 0.997858 0.058291
vn 0.029701 0.997858 0.058291
vn 0.029701 0.997858 0.058291
vn 0.071918 -0.987373 0.141146
vn 0.071918 -0.987373 0.141146
vn 0.071918 -0.987373 0.141146
vn 0.071918 -0.987373 0.141146
vn 0.010234 0.997858 0.064616
vn 0.010234 0.997858 0.064616
vn 0.010234 0.997858 0.064616
vn 0.010234 0.997858 0.064616
vn 0.024781 -0.987373 0.156462
vn 0.024781 -0.987373 0.156462
vn 0.024781 -0.987373 0.156462
vn 0.024781 -0.987373 0.156462
vn -0.010234 0.997858 0.064616
vn -0.010234 0.997858 0.064616
vn -0.010234 0.997858 0.064616
vn -0.010234 0.997858 0.064616
vn -0.024781 -0.987373 0.156462
vn -0.024781 -0.987373 0.156462
vn -0.024781 -0.987373 0.156462
vn -0.024781 -0.987373 0.156462
vn -0.029701 0.997858 0.058291
vn -0.029701 0.997858 0.058291
vn -0.029701 0.997858 0.058291
vn -0.029701 0.997858 0.058291
vn -0.071918 -0.987373 0.141146
vn -0.071918 -0.987373 0.141146
vn -0.071918 -0.987373 0.141146
vn -0.071918 -0.987373 0.141146
vn -0.046260 0.997858 0.046260
vn -0.046260 0.997858 0.046260
vn -0.046260 0.997858 0.046260
vn -0.046260 0.997858 0.046260
vn -0.112015 -0.987373 0.112015
vn -0.112015 -0.987373 0.112015
vn -0.112015 -0.987373 0.112015
vn -0.112015 -0.987373 0.112015
vn -0.058291 0.997858 0.029701
vn -0.058291 0.997858 0.029701
vn -0.058291 0.997858 0.029701
vn -0.058291 0.997858 0.029701
vn -0.141146 -0.987373 0.071918
vn -0.141146 -0.987373 0.071918
vn -0.141146 -0.987373 0.071918
vn -0.141146 -0.987373 0.071918
vn -0.064616 0.997858 0.010234
vn -0.064616 0.997858 0.010234
vn -0.064616 0.997858 0.010234
vn -0.064616 0.997858 0.010234
vn -0.156462 -0.987373 0.024781
vn -0.156462 -0.987373 0.024781
vn -0.156462 -0.987373 0.024781
vn -0.156462 -0.987373 0.024781
s 1
g pPipe1
usemtl initialShadingGroup
f 2/57/1 1/58/2 21/59/3 22/60/4
f 3/65/5 2/57/1 22/60/4 23/66/6
f 4/71/7 3/65/5 23/66/6 24/72/8
f 5/77/9 4/71/7 24/72/8 25/78/10
f 6/83/11 5/77/9 25/78/10 26/84/12
f 7/89/13 6/83/11 26/84/12 27/90/14
f 8/95/15 7/89/13 27/90/14 28/96/16
f 9/101/17 8/95/15 28/96/16 29/102/18
f 10/107/19 9/101/17 29/102/18 30/108/20
f 11/113/21 10/107/19 30/108/20 31/114/22
f 12/109/23 11/113/21 31/114/22 32/110/24
f 13/103/25 12/109/23 32/110/24 33/104/26
f 14/97/27 13/103/25 33/104/26 34/98/28
f 15/91/29 14/97/27 34/98/28 35/92/30
f 16/85/31 15/91/29 35/92/30 36/86/32
f 17/79/33 16/85/31 36/86/32 37/80/34
f 18/73/35 17/79/33 37/80/34 38/74/36
f 19/67/37 18/73/35 38/74/36 39/68/38
f 20/61/39 19/67/37 39/68/38 40/62/40
f 1/58/2 20/61/39 40/62/40 21/59/3
s 2
f 80/1/41 61/2/42 41/3/43 42/4/44
f 79/7/45 80/1/41 42/4/44 43/8/46
f 78/11/47 79/7/45 43/8/46 44/12/48
f 77/157/49 78/158/47 44/159/48 45/160/50
f 76/161/51 77/157/49 45/160/50 46/162/52
f 75/163/53 76/161/51 46/162/52 47/164/54
f 74/165/55 75/163/53 47/164/54 48/166/56
f 73/16/57 74/19/55 48/20/56 49/17/58
f 72/15/59 73/16/57 49/17/58 50/18/60
f 71/21/61 72/15/59 50/18/60 51/22/62
f 70/23/63 71/21/61 51/22/62 52/24/64
f 69/25/65 70/23/63 52/24/64 53/26/66
f 68/27/67 69/25/65 53/26/66 54/28/68
f 67/167/69 68/168/67 54/169/68 55/170/70
f 66/171/71 67/167/69 55/170/70 56/172/72
f 65/173/73 66/171/71 56/172/72 57/174/74
f 64/175/75 65/173/73 57/174/74 58/176/76
f 63/9/77 64/13/75 58/14/76 59/10/78
f 62/5/79 63/9/77 59/10/78 60/6/80
f 61/2/42 62/5/79 60/6/80 41/3/43
s 3
f 82/29/81 81/30/82 83/31/83 84/32/84
f 81/30/82 85/33/85 86/34/86 83/31/83
f 85/33/85 87/37/87 88/38/88 86/34/86
f 87/177/87 89/178/89 90/179/90 88/180/88
f 89/178/89 91/181/91 92/182/92 90/179/90
f 91/181/91 93/183/93 94/184/94 92/182/92
f 93/183/93 95/185/95 96/186/96 94/184/94
f 95/49/95 97/43/97 98/46/98 96/50/96
f 97/43/97 99/44/99 100/45/100 98/46/98
f 99/44/99 101/47/101 102/48/102 100/45/100
f 101/47/101 103/51/103 104/52/104 102/48/102
f 103/51/103 105/53/105 106/54/106 104/52/104
f 105/53/105 107/55/107 108/56/108 106/54/106
f 107/187/107 109/188/109 110/189/110 108/190/108
f 109/188/109 111/191/111 112/192/112 110/189/110
f 111/191/111 113/193/113 114/194/114 112/192/112
f 113/193/113 115/195/115 116/196/116 114/194/114
f 115/41/115 117/39/117 118/40/118 116/42/116
f 117/39/117 119/35/119 120/36/120 118/40/118
f 119/35/119 82/29/81 84/32/84 120/36/120
s off
f 21/59/121 40/62/122 81/69/123 82/63/124
f 62/117/125 61/118/126 84/119/127 83/120/128
f 40/62/129 39/68/130 85/75/131 81/69/132
f 63/123/133 62/117/134 83/120/135 86/124/136
f 39/68/137 38/74/138 87/81/139 85/75/140
f 64/127/141 63/123/142 86/124/143 88/128/144
f 38/74/145 37/80/146 89/87/147 87/81/148
f 65/131/149 64/127/150 88/128/151 90/132/152
f 37/80/153 36/86/154 91/93/155 89/87/156
f 66/135/157 65/131/158 90/132/159 92/136/160
f 36/86/161 35/92/162 93/99/163 91/93/164
f 67/139/165 66/135/166 92/136/167 94/140/168
f 35/92/169 34/98/170 95/105/171 93/99/172
f 68/143/173 67/139/174 94/140/175 96/144/176
f 34/98/177 33/104/178 97/111/179 95/105/180
f 69/147/181 68/143/182 96/144/183 98/148/184
f 33/104/185 32/110/186 99/115/187 97/111/188
f 70/151/189 69/147/190 98/148/191 100/152/192
f 32/110/193 31/114/194 101/116/195 99/115/196
f 71/155/197 70/151/198 100/152/199 102/156/200
f 31/114/201 30/108/202 103/112/203 101/116/204
f 72/153/205 71/155/206 102/156/207 104/154/208
f 30/108/209 29/102/210 105/106/211 103/112/212
f 73/149/213 72/153/214 104/154/215 106/150/216
f 29/102/217 28/96/218 107/100/219 105/106/220
f 74/145/221 73/149/222 106/150/223 108/146/224
f 28/96/225 27/90/226 109/94/227 107/100/228
f 75/141/229 74/145/230 108/146/231 110/142/232
f 27/90/233 26/84/234 111/88/235 109/94/236
f 76/137/237 75/141/238 110/142/239 112/138/240
f 26/84/241 25/78/242 113/82/243 111/88/244
f 77/133/245 76/137/246 112/138/247 114/134/248
f 25/78/249 24/72/250 115/76/251 113/82/252
f 78/129/253 77/133/254 114/134/255 116/130/256
f 24/72/257 23/66/258 117/70/259 115/76/260
f 79/125/261 78/129/262 116/130/263 118/126/264
f 23/66/265 22/60/266 119/64/267 117/70/268
f 80/121/269 79/125/270 118/126/271 120/122/272
f 22/60/273 21/59/274 82/63/275 119/64/276
f 61/118/277 80/121/278 120/122/279 84/119/280
