# This file uses centimeters as units for non-parametric coordinates.

mtllib Pointer.mtl
g default
v -1.463145 1.538441 -0.475405
v -1.244625 1.538441 -0.904273
v -0.904273 1.538441 -1.244625
v -0.475405 1.538441 -1.463145
v -0.000000 1.538441 -1.538441
v 0.475405 1.538441 -1.463145
v 0.904273 1.538441 -1.244625
v 1.244625 1.538441 -0.904273
v 1.463144 1.538441 -0.475404
v 1.538441 1.538441 0.000000
v 1.463144 1.538441 0.475404
v 1.244625 1.538441 0.904273
v 0.904273 1.538441 1.244625
v 0.475404 1.538441 1.463144
v 0.000000 1.538441 1.538441
v -0.475404 1.538441 1.463144
v -0.904273 1.538441 1.244625
v -1.244625 1.538441 0.904273
v -1.463144 1.538441 0.475404
v -1.538441 1.538441 0.000000
v 0.000000 -1.538441 0.000000
vt 0.691559 0.236342
vt 0.662950 0.180193
vt 0.618390 0.135633
vt 0.562241 0.107024
vt 0.500000 0.097166
vt 0.437759 0.107024
vt 0.381610 0.135633
vt 0.337050 0.180193
vt 0.308441 0.236342
vt 0.298583 0.298583
vt 0.308441 0.360824
vt 0.337050 0.416973
vt 0.381610 0.461533
vt 0.437759 0.490142
vt 0.500000 0.500000
vt 0.562241 0.490142
vt 0.618390 0.461533
vt 0.662950 0.416973
vt 0.691559 0.360824
vt 0.701417 0.298583
vt 0.298583 0.500000
vt 0.318725 0.500000
vt 0.338866 0.500000
vt 0.359008 0.500000
vt 0.379150 0.500000
vt 0.399292 0.500000
vt 0.419433 0.500000
vt 0.439575 0.500000
vt 0.459717 0.500000
vt 0.479858 0.500000
vt 0.500000 0.500000
vt 0.520142 0.500000
vt 0.540283 0.500000
vt 0.560425 0.500000
vt 0.580567 0.500000
vt 0.600708 0.500000
vt 0.620850 0.500000
vt 0.640992 0.500000
vt 0.661133 0.500000
vt 0.681275 0.500000
vt 0.701417 0.500000
vt 0.500000 0.902834
vn -0.000000 1.000000 -0.000000
vn -0.000000 1.000000 -0.000000
vn -0.000000 1.000000 -0.000000
vn -0.000000 1.000000 -0.000000
vn -0.000000 1.000000 -0.000000
vn -0.000000 1.000000 -0.000000
vn -0.000000 1.000000 -0.000000
vn -0.000000 1.000000 -0.000000
vn -0.000000 1.000000 -0.000000
vn -0.000000 1.000000 -0.000000
vn -0.000000 1.000000 -0.000000
vn -0.000000 1.000000 -0.000000
vn -0.000000 1.000000 -0.000000
vn -0.000000 1.000000 -0.000000
vn -0.000000 1.000000 -0.000000
vn -0.000000 1.000000 -0.000000
vn -0.000000 1.000000 -0.000000
vn -0.000000 1.000000 -0.000000
vn -0.000000 1.000000 -0.000000
vn -0.000000 1.000000 -0.000000
vn -0.850651 -0.447214 -0.276392
vn -0.723607 -0.447214 -0.525731
vn 0.000000 -1.000000 -0.000001
vn -0.525731 -0.447214 -0.723607
vn -0.276393 -0.447214 -0.850651
vn 0.000000 -0.447214 -0.894427
vn 0.276393 -0.447214 -0.850651
vn 0.525731 -0.447214 -0.723607
vn 0.723607 -0.447214 -0.525731
vn 0.850651 -0.447214 -0.276393
vn 0.894427 -0.447214 0.000000
vn 0.850651 -0.447214 0.276393
vn 0.723607 -0.447214 0.525731
vn 0.525731 -0.447214 0.723607
vn 0.276393 -0.447214 0.850651
vn -0.000000 -0.447214 0.894427
vn -0.276393 -0.447214 0.850651
vn -0.525731 -0.447214 0.723607
vn -0.723607 -0.447214 0.525731
vn -0.850651 -0.447214 0.276393
vn -0.894427 -0.447214 0.000001
s off
g pCone1
usemtl initialShadingGroup
f 1/1/1 20/20/2 19/19/3 18/18/4 17/17/5 16/16/6 15/15/7 14/14/8 13/13/9 12/12/10 11/11/11 10/10/12 9/9/13 8/8/14 7/7/15 6/6/16 5/5/17 4/4/18 3/3/19 2/2/20
s 1
f 1/21/21 2/22/22 21/42/23
f 2/22/22 3/23/24 21/42/23
f 3/23/24 4/24/25 21/42/23
f 4/24/25 5/25/26 21/42/23
f 5/25/26 6/26/27 21/42/23
f 6/26/27 7/27/28 21/42/23
f 7/27/28 8/28/29 21/42/23
f 8/28/29 9/29/30 21/42/23
f 9/29/30 10/30/31 21/42/23
f 10/30/31 11/31/32 21/42/23
f 11/31/32 12/32/33 21/42/23
f 12/32/33 13/33/34 21/42/23
f 13/33/34 14/34/35 21/42/23
f 14/34/35 15/35/36 21/42/23
f 15/35/36 16/36/37 21/42/23
f 16/36/37 17/37/38 21/42/23
f 17/37/38 18/38/39 21/42/23
f 18/38/39 19/39/40 21/42/23
f 19/39/40 20/40/41 21/42/23
f 20/40/41 1/41/21 21/42/23
