# This file uses centimeters as units for non-parametric coordinates.

mtllib Spacemask.mtl
g default
v -8.084946 -5.729124 0.063951
v 8.084946 -5.729124 0.063951
v -8.084946 5.729124 0.063951
v 8.084946 5.729124 0.063951
v -8.084946 5.729124 -0.063951
v 8.084946 5.729124 -0.063951
v -8.084946 -5.729124 -0.063951
v 8.084946 -5.729124 -0.063951
vt 0.378738 0.014949
vt 0.621262 0.014949
vt 0.621262 0.257474
vt 0.378738 0.257474
vt 0.621262 0.500000
vt 0.378738 0.500000
vt 0.621262 0.742526
vt 0.378738 0.742526
vt 0.621262 0.985051
vt 0.378738 0.985051
vt 0.863788 0.014949
vt 0.863788 0.257474
vt 0.136212 0.014949
vt 0.136212 0.257474
vn 0.000000 0.000000 1.000000
vn 0.000000 0.000000 1.000000
vn 0.000000 0.000000 1.000000
vn 0.000000 0.000000 1.000000
vn 0.000000 1.000000 0.000000
vn 0.000000 1.000000 0.000000
vn 0.000000 1.000000 0.000000
vn 0.000000 1.000000 0.000000
vn 0.000000 0.000000 -1.000000
vn 0.000000 0.000000 -1.000000
vn 0.000000 0.000000 -1.000000
vn 0.000000 0.000000 -1.000000
vn -0.000000 -1.000000 0.000000
vn -0.000000 -1.000000 0.000000
vn -0.000000 -1.000000 0.000000
vn -0.000000 -1.000000 0.000000
vn 1.000000 -0.000000 0.000000
vn 1.000000 -0.000000 0.000000
vn 1.000000 -0.000000 0.000000
vn 1.000000 -0.000000 0.000000
vn -1.000000 0.000000 0.000000
vn -1.000000 0.000000 0.000000
vn -1.000000 0.000000 0.000000
vn -1.000000 0.000000 0.000000
s off
g Spacemask:pCube1
usemtl lambert2SG
f 1/1/1 2/2/2 4/3/3 3/4/4
f 3/4/5 4/3/6 6/5/7 5/6/8
f 5/6/9 6/5/10 8/7/11 7/8/12
f 7/8/13 8/7/14 2/9/15 1/10/16
f 2/2/17 8/11/18 6/12/19 4/3/20
f 7/13/21 1/1/22 3/4/23 5/14/24
