# This file uses centimeters as units for non-parametric coordinates.

mtllib switch.mtl
g default
v -0.256473 -0.331723 0.041239
v -0.085491 -0.331723 0.041239
v 0.085491 -0.331723 0.041239
v 0.256473 -0.331723 0.041239
v -0.256473 -0.110574 0.041239
v -0.085491 -0.110574 0.041239
v 0.085491 -0.110574 0.041239
v 0.256473 -0.110574 0.041239
v -0.256473 0.110574 0.041239
v -0.085491 0.110574 0.041239
v 0.085491 0.110574 0.041239
v 0.256473 0.110574 0.041239
v -0.256473 0.331723 0.041239
v -0.085491 0.331723 0.041239
v 0.085491 0.331723 0.041239
v 0.256473 0.331723 0.041239
v -0.256473 0.331723 -0.041239
v -0.085491 0.331723 -0.041239
v 0.085491 0.331723 -0.041239
v 0.256473 0.331723 -0.041239
v -0.256473 0.110574 -0.041239
v -0.085491 0.110574 -0.041239
v 0.085491 0.110574 -0.041239
v 0.256473 0.110574 -0.041239
v -0.256473 -0.110574 -0.041239
v -0.085491 -0.110574 -0.041239
v 0.085491 -0.110574 -0.041239
v 0.256473 -0.110574 -0.041239
v -0.256473 -0.331723 -0.041239
v -0.085491 -0.331723 -0.041239
v 0.085491 -0.331723 -0.041239
v 0.256473 -0.331723 -0.041239
v -0.085491 -0.110574 0.041239
v 0.085491 -0.110574 0.041239
v 0.085491 0.110574 0.041239
v -0.085491 0.110574 0.041239
v 0.085491 0.331723 0.041239
v -0.085491 0.331723 0.041239
v -0.085491 -0.110574 0.096283
v 0.085491 -0.110574 0.096283
v 0.085491 0.110574 0.096283
v -0.085491 0.110574 0.096283
v -0.028070 0.246766 0.349241
v 0.028070 0.246766 0.349241
v -0.028070 0.285382 0.307351
v 0.028070 0.285382 0.307351
v -0.028070 -0.051755 -0.003438
v 0.028070 -0.051755 -0.003438
v -0.028070 -0.090371 0.038452
v 0.028070 -0.090371 0.038452
vt 0.226036 0.638960
vt 0.270191 0.638960
vt 0.226036 0.683116
vt 0.270191 0.683116
vt 0.226036 0.727271
vt 0.270191 0.727271
vt 0.226036 0.638960
vt 0.270191 0.638960
vt 0.270191 0.683116
vt 0.226036 0.683116
vt 0.270191 0.727271
vt 0.226036 0.727271
vt 0.918442 0.543062
vt 0.984314 0.543062
vt 0.984314 0.675662
vt 0.918442 0.675662
vt 0.984314 0.808262
vt 0.918442 0.808262
vt 0.984314 0.940861
vt 0.918442 0.940861
vt 0.918084 0.543062
vt 0.983956 0.543062
vt 0.983956 0.675662
vt 0.918084 0.675662
vt 0.983956 0.808262
vt 0.918084 0.808262
vt 0.983956 0.940861
vt 0.918084 0.940861
vt 0.266652 0.649389
vt 0.266652 0.826010
vt 0.222691 0.826010
vt 0.222691 0.649389
vt 0.220339 0.822658
vt 0.220339 0.646038
vt 0.264300 0.646038
vt 0.264300 0.822658
vt 0.707668 0.900688
vt 0.455779 0.631432
vt 0.421828 0.662273
vt 0.673717 0.931528
vt 0.456593 0.631432
vt 0.704805 0.900688
vt 0.671350 0.931528
vt 0.423138 0.662273
vt 0.917446 0.945452
vt 0.917446 0.808897
vt 0.983318 0.808897
vt 0.983318 0.945452
vt 0.917446 0.672342
vt 0.983318 0.672342
vt 0.917446 0.535787
vt 0.983318 0.535787
vt 0.915670 0.945452
vt 0.915670 0.808897
vt 0.981541 0.808897
vt 0.981541 0.945452
vt 0.915670 0.672342
vt 0.981541 0.672342
vt 0.915670 0.535787
vt 0.981541 0.535787
vt 0.227552 0.785080
vt 0.227552 0.648525
vt 0.271513 0.648525
vt 0.271513 0.785080
vt 0.269161 0.642149
vt 0.269161 0.778704
vt 0.225200 0.778704
vt 0.225200 0.642149
vt 0.031399 0.022371
vt 0.167954 0.022371
vt 0.167954 0.198992
vt 0.031399 0.198992
vt 0.304509 0.022371
vt 0.304509 0.198992
vt 0.167954 0.375612
vt 0.031399 0.375612
vt 0.441064 0.022371
vt 0.441064 0.198992
vt 0.167954 0.552233
vt 0.031399 0.552233
vt 0.441064 0.375612
vt 0.304509 0.375612
vt 0.441064 0.552233
vt 0.304509 0.552233
vt 0.029543 0.377628
vt 0.166098 0.377628
vt 0.166098 0.554249
vt 0.029543 0.554249
vt 0.028211 0.376456
vt 0.164766 0.376456
vt 0.164766 0.553076
vt 0.028211 0.553076
vt 0.448288 0.022371
vt 0.584843 0.022371
vt 0.584843 0.198992
vt 0.448288 0.198992
vt 0.721399 0.022371
vt 0.721399 0.198992
vt 0.584843 0.375613
vt 0.448288 0.375613
vt 0.857954 0.022371
vt 0.857954 0.198992
vt 0.721399 0.375613
vt 0.584843 0.552233
vt 0.448288 0.552233
vt 0.857954 0.375613
vt 0.721399 0.552233
vt 0.857954 0.552233
vt 0.441992 0.684105
vt 0.474907 0.653658
vt 0.497625 0.678218
vt 0.464710 0.708664
vt 0.610542 0.866315
vt 0.643456 0.835868
vt 0.666174 0.860427
vt 0.633260 0.890874
vn 0.000000 0.000000 1.000000
vn 0.000000 0.000000 1.000000
vn 0.000000 0.000000 1.000000
vn 0.000000 0.000000 1.000000
vn 0.000000 0.000000 1.000000
vn 0.000000 0.000000 1.000000
vn 0.000000 0.000000 1.000000
vn 0.000000 0.000000 1.000000
vn 0.000000 0.000000 1.000000
vn 0.000000 0.000000 1.000000
vn 0.000000 0.000000 1.000000
vn 0.000000 0.000000 1.000000
vn 0.000000 0.000000 1.000000
vn 0.000000 0.000000 1.000000
vn 0.000000 0.000000 1.000000
vn 0.000000 0.000000 1.000000
vn 0.000000 0.000000 1.000000
vn 0.000000 0.000000 1.000000
vn 0.000000 0.000000 1.000000
vn 0.000000 0.000000 1.000000
vn 0.000000 0.000000 1.000000
vn 0.000000 0.000000 1.000000
vn 0.000000 0.000000 1.000000
vn 0.000000 0.000000 1.000000
vn 0.000000 1.000000 0.000000
vn 0.000000 1.000000 0.000000
vn 0.000000 1.000000 0.000000
vn 0.000000 1.000000 0.000000
vn 0.000000 1.000000 0.000000
vn 0.000000 1.000000 0.000000
vn 0.000000 1.000000 0.000000
vn 0.000000 1.000000 0.000000
vn 0.000000 0.000000 -1.000000
vn 0.000000 0.000000 -1.000000
vn 0.000000 0.000000 -1.000000
vn 0.000000 0.000000 -1.000000
vn 0.000000 0.000000 -1.000000
vn 0.000000 0.000000 -1.000000
vn 0.000000 0.000000 -1.000000
vn 0.000000 0.000000 -1.000000
vn 0.000000 0.000000 -1.000000
vn 0.000000 0.000000 -1.000000
vn 0.000000 0.000000 -1.000000
vn 0.000000 0.000000 -1.000000
vn 0.000000 0.000000 -1.000000
vn 0.000000 0.000000 -1.000000
vn 0.000000 0.000000 -1.000000
vn 0.000000 0.000000 -1.000000
vn 0.000000 -1.000000 0.000000
vn 0.000000 -1.000000 0.000000
vn 0.000000 -1.000000 0.000000
vn 0.000000 -1.000000 0.000000
vn 0.000000 -1.000000 0.000000
vn 0.000000 -1.000000 0.000000
vn 0.000000 -1.000000 0.000000
vn 0.000000 -1.000000 0.000000
vn 1.000000 0.000000 0.000000
vn 1.000000 0.000000 0.000000
vn 1.000000 0.000000 0.000000
vn 1.000000 0.000000 0.000000
vn 1.000000 0.000000 0.000000
vn 1.000000 0.000000 0.000000
vn 1.000000 0.000000 0.000000
vn 1.000000 0.000000 0.000000
vn -1.000000 0.000000 0.000000
vn -1.000000 0.000000 0.000000
vn -1.000000 0.000000 0.000000
vn -1.000000 0.000000 0.000000
vn -1.000000 0.000000 0.000000
vn -1.000000 0.000000 0.000000
vn -1.000000 0.000000 0.000000
vn -1.000000 0.000000 0.000000
vn 0.000000 0.000000 0.000000
vn 0.000000 0.000000 0.000000
vn 0.000000 0.000000 0.000000
vn 0.000000 0.000000 0.000000
vn 0.000000 0.000000 0.000000
vn 0.000000 0.000000 0.000000
vn 0.000000 0.000000 0.000000
vn 0.000000 0.000000 0.000000
vn 0.000000 0.000000 0.000000
vn 0.000000 0.000000 0.000000
vn 0.000000 0.000000 0.000000
vn 0.000000 0.000000 0.000000
vn 0.000000 0.000000 0.000000
vn 0.000000 0.000000 0.000000
vn 0.000000 0.000000 0.000000
vn 0.000000 0.000000 0.000000
vn 0.000000 0.000000 0.000000
vn 0.000000 0.000000 0.000000
vn 0.000000 0.000000 0.000000
vn 0.000000 0.000000 0.000000
vn 0.000000 0.000000 0.000000
vn 0.000000 0.000000 0.000000
vn 0.000000 0.000000 0.000000
vn 0.000000 0.000000 0.000000
vn 0.000000 -1.000000 0.000000
vn 0.000000 -1.000000 0.000000
vn 0.000000 -1.000000 0.000000
vn 0.000000 -1.000000 0.000000
vn 1.000000 0.000000 0.000000
vn 1.000000 0.000000 0.000000
vn 1.000000 0.000000 0.000000
vn 1.000000 0.000000 0.000000
vn 0.000000 1.000000 0.000000
vn 0.000000 1.000000 0.000000
vn 0.000000 1.000000 0.000000
vn 0.000000 1.000000 0.000000
vn -1.000000 0.000000 0.000000
vn -1.000000 0.000000 0.000000
vn -1.000000 0.000000 0.000000
vn -1.000000 0.000000 0.000000
vn 0.000000 0.735254 0.677792
vn 0.000000 0.735254 0.677792
vn 0.000000 0.735254 0.677792
vn 0.000000 0.735254 0.677792
vn 0.000000 0.677792 -0.735254
vn 0.000000 0.677792 -0.735254
vn 0.000000 0.677792 -0.735254
vn 0.000000 0.677792 -0.735254
vn 0.000000 -0.677792 0.735254
vn 0.000000 -0.677792 0.735254
vn 0.000000 -0.677792 0.735254
vn 0.000000 -0.677792 0.735254
vn 1.000000 0.000000 0.000000
vn 1.000000 0.000000 0.000000
vn 1.000000 0.000000 0.000000
vn 1.000000 0.000000 0.000000
vn -1.000000 0.000000 0.000000
vn -1.000000 0.000000 0.000000
vn -1.000000 0.000000 0.000000
vn -1.000000 0.000000 0.000000
s 1
g pCube3
usemtl initialShadingGroup
f 1/69/1 2/70/2 6/71/3 5/72/4
f 2/70/2 3/73/5 7/74/6 6/71/3
f 3/73/5 4/77/7 8/78/8 7/74/6
f 5/72/4 6/71/3 10/75/9 9/76/10
s off
f 39/85/11 40/86/12 41/87/13 42/88/14
s 1
f 7/74/6 8/78/8 12/81/15 11/82/16
f 9/76/10 10/75/9 14/79/17 13/80/18
s off
f 36/89/19 35/90/20 37/91/21 38/92/22
s 1
f 11/82/16 12/81/15 16/83/23 15/84/24
s 2
f 13/45/25 14/46/26 18/47/27 17/48/28
f 14/46/26 15/49/29 19/50/30 18/47/27
f 15/49/29 16/51/31 20/52/32 19/50/30
s 3
f 17/93/33 18/94/34 22/95/35 21/96/36
f 18/94/34 19/97/37 23/98/38 22/95/35
f 19/97/37 20/101/39 24/102/40 23/98/38
f 21/96/36 22/95/35 26/99/41 25/100/42
f 22/95/35 23/98/38 27/103/43 26/99/41
f 23/98/38 24/102/40 28/106/44 27/103/43
f 25/100/42 26/99/41 30/104/45 29/105/46
f 26/99/41 27/103/43 31/107/47 30/104/45
f 27/103/43 28/106/44 32/108/48 31/107/47
s 4
f 29/53/49 30/54/50 2/55/51 1/56/52
f 30/54/50 31/57/53 3/58/54 2/55/51
f 31/57/53 32/59/55 4/60/56 3/58/54
s 5
f 4/13/57 32/14/58 28/15/59 8/16/60
f 8/16/60 28/15/59 24/17/61 12/18/62
f 12/18/62 24/17/61 20/19/63 16/20/64
s 6
f 29/21/65 1/22/66 5/23/67 25/24/68
f 25/24/68 5/23/67 9/25/69 21/26/70
f 21/26/70 9/25/69 13/27/71 17/28/72
s off
f 6/1/73 7/2/74 34/8/75 33/7/76
f 7/2/77 11/4/78 35/9/79 34/8/80
f 10/3/81 6/1/82 33/7/83 36/10/84
f 11/4/85 15/6/86 37/11/87 35/9/88
f 15/6/89 14/5/90 38/12/91 37/11/92
f 14/5/93 10/3/94 36/10/95 38/12/96
f 33/61/97 34/62/98 40/63/99 39/64/100
f 34/29/101 35/30/102 41/31/103 40/32/104
f 35/65/105 36/66/106 42/67/107 41/68/108
f 36/33/109 33/34/110 39/35/111 42/36/112
f 43/109/113 44/110/114 46/111/115 45/112/116
f 45/112/117 46/111/118 48/115/119 47/116/120
f 49/113/121 50/114/122 44/110/123 43/109/124
f 44/37/125 50/38/126 48/39/127 46/40/128
f 49/41/129 43/42/130 45/43/131 47/44/132
