# This file uses centimeters as units for non-parametric coordinates.

mtllib TradingPost.mtl
g default
v -2.670287 0.121678 0.962329
v 0.202461 0.121678 0.962329
v -2.670287 1.879796 0.962329
v 0.202461 1.879796 0.962329
v -2.670287 1.879796 -0.037671
v 0.202461 1.879796 -0.037671
v -2.670287 0.121678 -0.037671
v 0.202461 0.121678 -0.037671
v -2.652310 0.159487 0.027441
v -2.413260 0.159487 0.027441
v -2.652310 3.983953 0.027441
v -2.413260 3.983953 0.027441
v -2.652310 3.983953 -2.293292
v -2.413260 3.983953 -2.293292
v -2.652310 0.159487 -2.293292
v -2.413260 0.159487 -2.293292
v -0.066561 0.159487 0.027441
v 0.172489 0.159487 0.027441
v -0.066561 3.983953 0.027441
v 0.172489 3.983953 0.027441
v -0.066561 3.983953 -2.293292
v 0.172489 3.983953 -2.293292
v -0.066561 0.159487 -2.293292
v 0.172489 0.159487 -2.293292
v -2.670287 0.124376 -2.075077
v 0.202461 0.124376 -2.075077
v -2.670287 4.098006 -2.075077
v 0.202461 4.098006 -2.075077
v -2.670287 4.098006 -2.354974
v 0.202461 4.098006 -2.354974
v -2.670287 0.124376 -2.354974
v 0.202461 0.124376 -2.354974
v -2.626179 1.775926 0.887946
v -2.465191 1.775926 0.887946
v -2.626179 3.297131 0.887946
v -2.465191 3.297131 0.887946
v -2.626179 3.297131 0.726958
v -2.465191 3.297131 0.726958
v -2.626179 1.775926 0.726958
v -2.465191 1.775926 0.726958
v -0.060274 1.775926 0.887946
v 0.100714 1.775926 0.887946
v -0.060274 3.297131 0.887946
v 0.100714 3.297131 0.887946
v -0.060274 3.297131 0.726958
v 0.100714 3.297131 0.726958
v -0.060274 1.775926 0.726958
v 0.100714 1.775926 0.726958
v -2.645712 3.074675 0.980867
v 0.177886 3.074675 0.980867
v -2.645712 4.074675 0.980867
v 0.177886 4.074675 0.980867
v -2.645712 4.074675 0.623825
v 0.177886 4.074675 0.623825
v -2.645712 3.074675 0.623825
v 0.177886 3.074675 0.623825
v -2.434030 0.340202 0.868222
v -0.033797 0.340202 0.868222
v -2.434030 0.152729 0.868222
v -0.033797 0.152729 0.868222
v -2.434030 0.152729 -2.284170
v -0.033797 0.152729 -2.284170
v -2.434030 0.340202 -2.284170
v -0.033797 0.340202 -2.284170
v -2.434030 4.038844 0.868222
v -0.033797 4.038844 0.868222
v -2.434030 3.851371 0.868222
v -0.033797 3.851371 0.868222
v -2.434030 3.851371 -2.284170
v -0.033797 3.851371 -2.284170
v -2.434030 4.038844 -2.284170
v -0.033797 4.038844 -2.284170
vt 0.814462 0.342776
vt 0.896828 0.342776
vt 0.814462 0.425141
vt 0.896828 0.425141
vt 0.814462 0.507507
vt 0.896828 0.507507
vt 0.814462 0.589872
vt 0.896828 0.589872
vt 0.814462 0.672237
vt 0.896828 0.672237
vt 0.979193 0.342776
vt 0.979193 0.425141
vt 0.732097 0.342776
vt 0.732097 0.425141
vt 0.812673 0.342776
vt 0.895038 0.342776
vt 0.895038 0.425141
vt 0.812673 0.425141
vt 0.895038 0.507507
vt 0.812673 0.507507
vt 0.895038 0.589872
vt 0.812673 0.589872
vt 0.895038 0.672237
vt 0.812673 0.672237
vt 0.977403 0.342776
vt 0.977403 0.425141
vt 0.730307 0.342776
vt 0.730307 0.425141
vt 0.816749 0.342776
vt 0.899115 0.342776
vt 0.899115 0.425141
vt 0.816749 0.425141
vt 0.899115 0.507507
vt 0.816749 0.507507
vt 0.899115 0.589872
vt 0.816749 0.589872
vt 0.899115 0.672237
vt 0.816749 0.672237
vt 0.981480 0.342776
vt 0.981480 0.425141
vt 0.734384 0.342776
vt 0.734384 0.425141
vt 0.814589 0.340248
vt 0.896954 0.340248
vt 0.896954 0.422613
vt 0.814589 0.422613
vt 0.896954 0.504978
vt 0.814589 0.504978
vt 0.896954 0.587344
vt 0.814589 0.587344
vt 0.896954 0.669709
vt 0.814589 0.669709
vt 0.979319 0.340248
vt 0.979319 0.422613
vt 0.732224 0.340248
vt 0.732224 0.422613
vt 0.091456 0.335270
vt 0.173821 0.335270
vt 0.173821 0.417635
vt 0.091456 0.417635
vt 0.173821 0.500000
vt 0.091456 0.500000
vt 0.173821 0.582365
vt 0.091456 0.582365
vt 0.173821 0.664731
vt 0.091456 0.664731
vt 0.256186 0.335270
vt 0.256186 0.417635
vt 0.009091 0.335270
vt 0.009091 0.417635
vt 0.089666 0.335270
vt 0.172031 0.335270
vt 0.172031 0.417635
vt 0.089666 0.417635
vt 0.172031 0.500000
vt 0.089666 0.500000
vt 0.172031 0.582365
vt 0.089666 0.582365
vt 0.172031 0.664731
vt 0.089666 0.664731
vt 0.254397 0.335270
vt 0.254397 0.417635
vt 0.007301 0.335270
vt 0.007301 0.417635
vt 0.091346 0.330713
vt 0.173711 0.330713
vt 0.173711 0.413078
vt 0.091346 0.413078
vt 0.173711 0.495443
vt 0.091346 0.495443
vt 0.173711 0.577809
vt 0.091346 0.577809
vt 0.173711 0.660174
vt 0.091346 0.660174
vt 0.256076 0.330713
vt 0.256076 0.413078
vt 0.008981 0.330713
vt 0.008981 0.413078
vt 0.897745 0.350498
vt 0.815380 0.350498
vt 0.815380 0.432863
vt 0.897745 0.432863
vt 0.815380 0.515228
vt 0.897745 0.515228
vt 0.815380 0.597594
vt 0.897745 0.597594
vt 0.815380 0.679959
vt 0.897745 0.679959
vt 0.733015 0.350498
vt 0.733015 0.432863
vt 0.980111 0.350498
vt 0.980111 0.432863
vt 0.894799 0.343991
vt 0.812434 0.343991
vt 0.812434 0.426356
vt 0.894799 0.426356
vt 0.812434 0.508721
vt 0.894799 0.508721
vt 0.812434 0.591086
vt 0.894799 0.591086
vt 0.812434 0.673452
vt 0.894799 0.673452
vt 0.730069 0.343991
vt 0.730069 0.426356
vt 0.977164 0.343991
vt 0.977164 0.426356
vn 0.000000 0.000000 1.000000
vn 0.000000 0.000000 1.000000
vn 0.000000 0.000000 1.000000
vn 0.000000 0.000000 1.000000
vn 0.000000 1.000000 0.000000
vn 0.000000 1.000000 0.000000
vn 0.000000 1.000000 0.000000
vn 0.000000 1.000000 0.000000
vn 0.000000 0.000000 -1.000000
vn 0.000000 0.000000 -1.000000
vn 0.000000 0.000000 -1.000000
vn 0.000000 0.000000 -1.000000
vn 0.000000 -1.000000 0.000000
vn 0.000000 -1.000000 0.000000
vn 0.000000 -1.000000 0.000000
vn 0.000000 -1.000000 0.000000
vn 1.000000 0.000000 0.000000
vn 1.000000 0.000000 0.000000
vn 1.000000 0.000000 0.000000
vn 1.000000 0.000000 0.000000
vn -1.000000 0.000000 0.000000
vn -1.000000 0.000000 0.000000
vn -1.000000 0.000000 0.000000
vn -1.000000 0.000000 0.000000
vn 0.000000 0.000000 1.000000
vn 0.000000 0.000000 1.000000
vn 0.000000 0.000000 1.000000
vn 0.000000 0.000000 1.000000
vn 0.000000 1.000000 0.000000
vn 0.000000 1.000000 0.000000
vn 0.000000 1.000000 0.000000
vn 0.000000 1.000000 0.000000
vn 0.000000 0.000000 -1.000000
vn 0.000000 0.000000 -1.000000
vn 0.000000 0.000000 -1.000000
vn 0.000000 0.000000 -1.000000
vn 0.000000 -1.000000 0.000000
vn 0.000000 -1.000000 0.000000
vn 0.000000 -1.000000 0.000000
vn 0.000000 -1.000000 0.000000
vn 1.000000 0.000000 0.000000
vn 1.000000 0.000000 0.000000
vn 1.000000 0.000000 0.000000
vn 1.000000 0.000000 0.000000
vn -1.000000 0.000000 0.000000
vn -1.000000 0.000000 0.000000
vn -1.000000 0.000000 0.000000
vn -1.000000 0.000000 0.000000
vn 0.000000 0.000000 1.000000
vn 0.000000 0.000000 1.000000
vn 0.000000 0.000000 1.000000
vn 0.000000 0.000000 1.000000
vn 0.000000 1.000000 0.000000
vn 0.000000 1.000000 0.000000
vn 0.000000 1.000000 0.000000
vn 0.000000 1.000000 0.000000
vn 0.000000 0.000000 -1.000000
vn 0.000000 0.000000 -1.000000
vn 0.000000 0.000000 -1.000000
vn 0.000000 0.000000 -1.000000
vn 0.000000 -1.000000 0.000000
vn 0.000000 -1.000000 0.000000
vn 0.000000 -1.000000 0.000000
vn 0.000000 -1.000000 0.000000
vn 1.000000 0.000000 0.000000
vn 1.000000 0.000000 0.000000
vn 1.000000 0.000000 0.000000
vn 1.000000 0.000000 0.000000
vn -1.000000 0.000000 0.000000
vn -1.000000 0.000000 0.000000
vn -1.000000 0.000000 0.000000
vn -1.000000 0.000000 0.000000
vn 0.000000 0.000000 1.000000
vn 0.000000 0.000000 1.000000
vn 0.000000 0.000000 1.000000
vn 0.000000 0.000000 1.000000
vn 0.000000 1.000000 0.000000
vn 0.000000 1.000000 0.000000
vn 0.000000 1.000000 0.000000
vn 0.000000 1.000000 0.000000
vn 0.000000 0.000000 -1.000000
vn 0.000000 0.000000 -1.000000
vn 0.000000 0.000000 -1.000000
vn 0.000000 0.000000 -1.000000
vn 0.000000 -1.000000 0.000000
vn 0.000000 -1.000000 0.000000
vn 0.000000 -1.000000 0.000000
vn 0.000000 -1.000000 0.000000
vn 1.000000 0.000000 0.000000
vn 1.000000 0.000000 0.000000
vn 1.000000 0.000000 0.000000
vn 1.000000 0.000000 0.000000
vn -1.000000 0.000000 0.000000
vn -1.000000 0.000000 0.000000
vn -1.000000 0.000000 0.000000
vn -1.000000 0.000000 0.000000
vn 0.000000 0.000000 1.000000
vn 0.000000 0.000000 1.000000
vn 0.000000 0.000000 1.000000
vn 0.000000 0.000000 1.000000
vn 0.000000 1.000000 0.000000
vn 0.000000 1.000000 0.000000
vn 0.000000 1.000000 0.000000
vn 0.000000 1.000000 0.000000
vn 0.000000 0.000000 -1.000000
vn 0.000000 0.000000 -1.000000
vn 0.000000 0.000000 -1.000000
vn 0.000000 0.000000 -1.000000
vn 0.000000 -1.000000 0.000000
vn 0.000000 -1.000000 0.000000
vn 0.000000 -1.000000 0.000000
vn 0.000000 -1.000000 0.000000
vn 1.000000 0.000000 0.000000
vn 1.000000 0.000000 0.000000
vn 1.000000 0.000000 0.000000
vn 1.000000 0.000000 0.000000
vn -1.000000 0.000000 0.000000
vn -1.000000 0.000000 0.000000
vn -1.000000 0.000000 0.000000
vn -1.000000 0.000000 0.000000
vn 0.000000 0.000000 1.000000
vn 0.000000 0.000000 1.000000
vn 0.000000 0.000000 1.000000
vn 0.000000 0.000000 1.000000
vn 0.000000 1.000000 0.000000
vn 0.000000 1.000000 0.000000
vn 0.000000 1.000000 0.000000
vn 0.000000 1.000000 0.000000
vn 0.000000 0.000000 -1.000000
vn 0.000000 0.000000 -1.000000
vn 0.000000 0.000000 -1.000000
vn 0.000000 0.000000 -1.000000
vn 0.000000 -1.000000 0.000000
vn 0.000000 -1.000000 0.000000
vn 0.000000 -1.000000 0.000000
vn 0.000000 -1.000000 0.000000
vn 1.000000 0.000000 0.000000
vn 1.000000 0.000000 0.000000
vn 1.000000 0.000000 0.000000
vn 1.000000 0.000000 0.000000
vn -1.000000 0.000000 0.000000
vn -1.000000 0.000000 0.000000
vn -1.000000 0.000000 0.000000
vn -1.000000 0.000000 0.000000
vn 0.000000 0.000000 1.000000
vn 0.000000 0.000000 1.000000
vn 0.000000 0.000000 1.000000
vn 0.000000 0.000000 1.000000
vn 0.000000 1.000000 0.000000
vn 0.000000 1.000000 0.000000
vn 0.000000 1.000000 0.000000
vn 0.000000 1.000000 0.000000
vn 0.000000 0.000000 -1.000000
vn 0.000000 0.000000 -1.000000
vn 0.000000 0.000000 -1.000000
vn 0.000000 0.000000 -1.000000
vn 0.000000 -1.000000 0.000000
vn 0.000000 -1.000000 0.000000
vn 0.000000 -1.000000 0.000000
vn 0.000000 -1.000000 0.000000
vn 1.000000 0.000000 0.000000
vn 1.000000 0.000000 0.000000
vn 1.000000 0.000000 0.000000
vn 1.000000 0.000000 0.000000
vn -1.000000 0.000000 0.000000
vn -1.000000 0.000000 0.000000
vn -1.000000 0.000000 0.000000
vn -1.000000 0.000000 0.000000
vn 0.000000 0.000000 1.000000
vn 0.000000 0.000000 1.000000
vn 0.000000 0.000000 1.000000
vn 0.000000 0.000000 1.000000
vn 0.000000 -1.000000 0.000000
vn 0.000000 -1.000000 0.000000
vn 0.000000 -1.000000 0.000000
vn 0.000000 -1.000000 0.000000
vn 0.000000 0.000000 -1.000000
vn 0.000000 0.000000 -1.000000
vn 0.000000 0.000000 -1.000000
vn 0.000000 0.000000 -1.000000
vn 0.000000 1.000000 0.000000
vn 0.000000 1.000000 0.000000
vn 0.000000 1.000000 0.000000
vn 0.000000 1.000000 0.000000
vn 1.000000 0.000000 0.000000
vn 1.000000 0.000000 0.000000
vn 1.000000 0.000000 0.000000
vn 1.000000 0.000000 0.000000
vn -1.000000 0.000000 0.000000
vn -1.000000 0.000000 0.000000
vn -1.000000 0.000000 0.000000
vn -1.000000 0.000000 0.000000
vn 0.000000 0.000000 1.000000
vn 0.000000 0.000000 1.000000
vn 0.000000 0.000000 1.000000
vn 0.000000 0.000000 1.000000
vn 0.000000 -1.000000 0.000000
vn 0.000000 -1.000000 0.000000
vn 0.000000 -1.000000 0.000000
vn 0.000000 -1.000000 0.000000
vn 0.000000 0.000000 -1.000000
vn 0.000000 0.000000 -1.000000
vn 0.000000 0.000000 -1.000000
vn 0.000000 0.000000 -1.000000
vn 0.000000 1.000000 0.000000
vn 0.000000 1.000000 0.000000
vn 0.000000 1.000000 0.000000
vn 0.000000 1.000000 0.000000
vn 1.000000 0.000000 0.000000
vn 1.000000 0.000000 0.000000
vn 1.000000 0.000000 0.000000
vn 1.000000 0.000000 0.000000
vn -1.000000 0.000000 0.000000
vn -1.000000 0.000000 0.000000
vn -1.000000 0.000000 0.000000
vn -1.000000 0.000000 0.000000
s off
g pCube6
usemtl initialShadingGroup
f 1/1/1 2/2/2 4/4/3 3/3/4
f 3/3/5 4/4/6 6/6/7 5/5/8
f 5/5/9 6/6/10 8/8/11 7/7/12
f 7/7/13 8/8/14 2/10/15 1/9/16
f 2/2/17 8/11/18 6/12/19 4/4/20
f 7/13/21 1/1/22 3/3/23 5/14/24
f 9/15/25 10/16/26 12/17/27 11/18/28
f 11/18/29 12/17/30 14/19/31 13/20/32
f 13/20/33 14/19/34 16/21/35 15/22/36
f 15/22/37 16/21/38 10/23/39 9/24/40
f 10/16/41 16/25/42 14/26/43 12/17/44
f 15/27/45 9/15/46 11/18/47 13/28/48
f 17/29/49 18/30/50 20/31/51 19/32/52
f 19/32/53 20/31/54 22/33/55 21/34/56
f 21/34/57 22/33/58 24/35/59 23/36/60
f 23/36/61 24/35/62 18/37/63 17/38/64
f 18/30/65 24/39/66 22/40/67 20/31/68
f 23/41/69 17/29/70 19/32/71 21/42/72
f 25/43/73 26/44/74 28/45/75 27/46/76
f 27/46/77 28/45/78 30/47/79 29/48/80
f 29/48/81 30/47/82 32/49/83 31/50/84
f 31/50/85 32/49/86 26/51/87 25/52/88
f 26/44/89 32/53/90 30/54/91 28/45/92
f 31/55/93 25/43/94 27/46/95 29/56/96
f 33/57/97 34/58/98 36/59/99 35/60/100
f 35/60/101 36/59/102 38/61/103 37/62/104
f 37/62/105 38/61/106 40/63/107 39/64/108
f 39/64/109 40/63/110 34/65/111 33/66/112
f 34/58/113 40/67/114 38/68/115 36/59/116
f 39/69/117 33/57/118 35/60/119 37/70/120
f 41/71/121 42/72/122 44/73/123 43/74/124
f 43/74/125 44/73/126 46/75/127 45/76/128
f 45/76/129 46/75/130 48/77/131 47/78/132
f 47/78/133 48/77/134 42/79/135 41/80/136
f 42/72/137 48/81/138 46/82/139 44/73/140
f 47/83/141 41/71/142 43/74/143 45/84/144
f 49/85/145 50/86/146 52/87/147 51/88/148
f 51/88/149 52/87/150 54/89/151 53/90/152
f 53/90/153 54/89/154 56/91/155 55/92/156
f 55/92/157 56/91/158 50/93/159 49/94/160
f 50/86/161 56/95/162 54/96/163 52/87/164
f 55/97/165 49/85/166 51/88/167 53/98/168
f 57/99/169 59/102/170 60/101/171 58/100/172
f 59/102/173 61/104/174 62/103/175 60/101/176
f 61/104/177 63/106/178 64/105/179 62/103/180
f 63/106/181 57/108/182 58/107/183 64/105/184
f 58/100/185 60/101/186 62/110/187 64/109/188
f 63/111/189 61/112/190 59/102/191 57/99/192
f 65/113/193 67/116/194 68/115/195 66/114/196
f 67/116/197 69/118/198 70/117/199 68/115/200
f 69/118/201 71/120/202 72/119/203 70/117/204
f 71/120/205 65/122/206 66/121/207 72/119/208
f 66/114/209 68/115/210 70/124/211 72/123/212
f 71/125/213 69/126/214 67/116/215 65/113/216
