# This file uses centimeters as units for non-parametric coordinates.

mtllib wallTop.mtl
g default
v 2.443916 2.364420 0.231121
v -2.443917 2.364420 0.231121
v -2.324303 2.836296 0.226861
v -1.977171 3.261981 0.223018
v -1.436498 3.599807 0.219968
v -0.755212 3.816704 0.218010
v 0.000000 3.891442 0.217336
v 0.755212 3.816704 0.218010
v 1.436499 3.599806 0.219968
v 1.977171 3.261981 0.223018
v 2.324304 2.836296 0.226861
v 2.443916 2.360248 -0.231121
v -2.443917 2.360248 -0.231121
v -2.324303 2.832123 -0.235381
v -1.977171 3.257808 -0.239224
v -1.436498 3.595634 -0.242273
v -0.755212 3.812531 -0.244231
v 0.000000 3.887269 -0.244906
v 0.755212 3.812531 -0.244231
v 1.436499 3.595634 -0.242273
v 1.977171 3.257808 -0.239224
v 2.324304 2.832123 -0.235381
v 3.491309 2.360248 -0.231121
v -3.491310 2.360248 -0.231121
v -3.320433 3.034355 -0.237206
v -2.824529 3.642476 -0.242696
v -2.052141 4.125084 -0.247053
v -1.078874 4.434937 -0.249850
v 0.000000 4.541706 -0.250814
v 1.078874 4.434938 -0.249850
v 2.052141 4.125085 -0.247053
v 2.824530 3.642476 -0.242696
v 3.320435 3.034355 -0.237206
v 3.491309 2.364420 0.231121
v -3.491310 2.364420 0.231121
v -3.320433 3.038528 0.225035
v -2.824529 3.646649 0.219545
v -2.052141 4.129257 0.215189
v -1.078874 4.439111 0.212391
v 0.000000 4.545878 0.211428
v 1.078874 4.439111 0.212391
v 2.052141 4.129258 0.215189
v 2.824530 3.646650 0.219545
v 3.320435 3.038528 0.225035
v -2.052141 4.140004 1.405602
v -1.078874 4.449858 1.402805
v -1.436498 3.610553 1.410381
v -0.755212 3.827450 1.408423
v 0.000000 4.556626 1.401841
v 0.000000 3.902188 1.407749
v 1.078874 4.449858 1.402805
v 0.755212 3.827450 1.408423
v 2.052141 4.140005 1.405602
v 1.436499 3.610553 1.410381
v -3.491310 2.375026 1.405934
v -3.320433 3.049134 1.399848
v -2.443917 2.375026 1.405934
v -2.324303 2.846902 1.401674
v 3.320435 3.049134 1.399848
v 3.491309 2.375026 1.405934
v 2.324304 2.846901 1.401674
v 2.443916 2.375026 1.405934
v 2.443916 2.364420 1.847806
v -2.443917 2.364421 1.847806
v -2.324303 2.836296 1.843546
v -1.977171 3.261981 1.839703
v -1.436498 3.599807 1.836654
v -0.755212 3.816704 1.834696
v 0.000000 3.891442 1.834021
v 0.755212 3.816704 1.834696
v 1.436499 3.599806 1.836654
v 1.977171 3.261981 1.839703
v 2.324304 2.836296 1.843546
v 2.443917 2.360248 1.385564
v -2.443917 2.360248 1.385564
v -2.324303 2.832123 1.381305
v -1.977171 3.257808 1.377462
v -1.436498 3.595634 1.374412
v -0.755212 3.812531 1.372454
v 0.000000 3.887269 1.371779
v 0.755212 3.812531 1.372454
v 1.436499 3.595634 1.374412
v 1.977171 3.257808 1.377462
v 2.324304 2.832123 1.381305
v 3.491309 2.360248 1.385564
v -3.491310 2.360248 1.385564
v -3.320433 3.034355 1.379479
v -2.824529 3.642477 1.373989
v -2.052141 4.125084 1.369632
v -1.078874 4.434938 1.366835
v 0.000000 4.541706 1.365871
v 1.078874 4.434938 1.366835
v 2.052141 4.125085 1.369632
v 2.824530 3.642477 1.373989
v 3.320435 3.034355 1.379479
v 3.491309 2.364421 1.847806
v -3.491310 2.364420 1.847806
v -3.320433 3.038528 1.841721
v -2.824529 3.646649 1.836231
v -2.052141 4.129257 1.831874
v -1.078874 4.439111 1.829077
v 0.000000 4.545879 1.828113
v 1.078874 4.439111 1.829077
v 2.052141 4.129258 1.831874
v 2.824530 3.646650 1.836231
v 3.320435 3.038528 1.841721
vt 0.500000 1.000000
vt 0.550000 1.000000
vt 0.600000 1.000000
vt 0.650000 1.000000
vt 0.700000 1.000000
vt 0.750000 1.000000
vt 0.800000 1.000000
vt 0.850000 1.000000
vt 0.900000 1.000000
vt 0.950000 1.000000
vt 1.000000 1.000000
vt 0.500000 0.750000
vt 0.550000 0.750000
vt 0.600000 0.750000
vt 0.650000 0.750000
vt 0.700000 0.750000
vt 0.750000 0.750000
vt 0.800000 0.750000
vt 0.850000 0.750000
vt 0.900000 0.750000
vt 0.950000 0.750000
vt 1.000000 0.750000
vt 0.500000 0.500000
vt 0.550000 0.500000
vt 0.600000 0.500000
vt 0.650000 0.500000
vt 0.700000 0.500000
vt 0.750000 0.500000
vt 0.800000 0.500000
vt 0.850000 0.500000
vt 0.900000 0.500000
vt 0.950000 0.500000
vt 1.000000 0.500000
vt 0.500000 0.250000
vt 0.550000 0.250000
vt 0.600000 0.250000
vt 0.650000 0.250000
vt 0.700000 0.250000
vt 0.750000 0.250000
vt 0.800000 0.250000
vt 0.850000 0.250000
vt 0.900000 0.250000
vt 0.950000 0.250000
vt 1.000000 0.250000
vt 0.500000 0.000000
vt 0.550000 0.000000
vt 0.600000 0.000000
vt 0.650000 0.000000
vt 0.700000 0.000000
vt 0.750000 0.000000
vt 0.800000 0.000000
vt 0.850000 0.000000
vt 0.900000 0.000000
vt 0.950000 0.000000
vt 1.000000 0.000000
vt 0.700000 0.250000
vt 0.650000 0.250000
vt 0.650000 0.000000
vt 0.700000 0.000000
vt 0.750000 0.250000
vt 0.750000 0.000000
vt 0.800000 0.250000
vt 0.800000 0.000000
vt 0.850000 0.250000
vt 0.850000 0.000000
vt 0.550000 0.250000
vt 0.500000 0.250000
vt 0.500000 0.000000
vt 0.550000 0.000000
vt 1.000000 0.250000
vt 0.950000 0.250000
vt 0.950000 0.000000
vt 1.000000 0.000000
vt 0.550000 1.000000
vt 0.500000 1.000000
vt 0.500000 0.750000
vt 0.550000 0.750000
vt 0.600000 1.000000
vt 0.600000 0.750000
vt 0.650000 1.000000
vt 0.650000 0.750000
vt 0.700000 1.000000
vt 0.700000 0.750000
vt 0.750000 1.000000
vt 0.750000 0.750000
vt 0.800000 1.000000
vt 0.800000 0.750000
vt 0.850000 1.000000
vt 0.850000 0.750000
vt 0.900000 1.000000
vt 0.900000 0.750000
vt 0.950000 1.000000
vt 0.950000 0.750000
vt 1.000000 1.000000
vt 1.000000 0.750000
vt 0.500000 0.500000
vt 0.550000 0.500000
vt 0.600000 0.500000
vt 0.650000 0.500000
vt 0.700000 0.500000
vt 0.750000 0.500000
vt 0.800000 0.500000
vt 0.850000 0.500000
vt 0.900000 0.500000
vt 0.950000 0.500000
vt 1.000000 0.500000
vt 0.500000 0.250000
vt 0.550000 0.250000
vt 0.600000 0.250000
vt 0.650000 0.250000
vt 0.700000 0.250000
vt 0.750000 0.250000
vt 0.800000 0.250000
vt 0.850000 0.250000
vt 0.900000 0.250000
vt 0.950000 0.250000
vt 1.000000 0.250000
vt 0.500000 0.000000
vt 0.550000 0.000000
vt 0.600000 0.000000
vt 0.650000 0.000000
vt 0.700000 0.000000
vt 0.750000 0.000000
vt 0.800000 0.000000
vt 0.850000 0.000000
vt 0.900000 0.000000
vt 0.950000 0.000000
vt 1.000000 0.000000
vn 0.938605 -0.344979 0.003114
vn 0.969345 -0.245695 0.002218
vn 0.969345 -0.245694 0.002218
vn 0.887219 -0.461330 0.004165
vn 0.652054 -0.758142 0.006845
vn 0.652054 -0.758142 0.006845
vn 0.350341 -0.936584 0.008455
vn 0.413377 -0.910523 0.008220
vn 0.198967 -0.979966 0.008847
vn 0.198967 -0.979966 0.008847
vn -0.000000 -0.999959 0.009027
vn -0.000000 -0.999959 0.009028
vn -0.198967 -0.979966 0.008847
vn -0.198967 -0.979966 0.008847
vn -0.350341 -0.936584 0.008455
vn -0.413377 -0.910523 0.008220
vn -0.652054 -0.758142 0.006844
vn -0.652054 -0.758142 0.006844
vn -0.938606 -0.344977 0.003114
vn -0.887219 -0.461329 0.004165
vn -0.969346 -0.245691 0.002218
vn -0.969346 -0.245691 0.002218
vn 0.000000 -0.009027 -0.999959
vn -0.000000 -0.009027 -0.999959
vn -0.000000 -0.009027 -0.999959
vn 0.000000 -0.009027 -0.999959
vn 0.000000 -0.009027 -0.999959
vn 0.000000 -0.009027 -0.999959
vn 0.000000 -0.009027 -0.999959
vn 0.000000 -0.009027 -0.999959
vn -0.000000 -0.009027 -0.999959
vn 0.000000 -0.009027 -0.999959
vn 0.000000 -0.009027 -0.999959
vn -0.000000 -0.009027 -0.999959
vn 0.000000 -0.009027 -0.999959
vn -0.000000 -0.009027 -0.999959
vn -0.000000 -0.009027 -0.999959
vn -0.000000 -0.009027 -0.999959
vn -0.000000 -0.009027 -0.999959
vn -0.000000 -0.009027 -0.999959
vn -0.000000 -0.009027 -0.999959
vn 0.000000 -0.009027 -0.999959
vn 0.000000 -0.009027 -0.999959
vn 0.000000 -0.009027 -0.999959
vn -0.887219 0.461331 -0.004165
vn -0.969345 0.245695 -0.002218
vn -0.969345 0.245695 -0.002218
vn -0.938605 0.344979 -0.003114
vn -0.652054 0.758142 -0.006844
vn -0.652054 0.758142 -0.006844
vn -0.413377 0.910523 -0.008220
vn -0.350341 0.936584 -0.008455
vn -0.198967 0.979966 -0.008846
vn -0.198967 0.979966 -0.008847
vn -0.000000 0.999959 -0.009026
vn -0.000000 0.999959 -0.009027
vn 0.198967 0.979966 -0.008846
vn 0.198967 0.979966 -0.008847
vn 0.413377 0.910523 -0.008220
vn 0.350341 0.936584 -0.008455
vn 0.652054 0.758142 -0.006845
vn 0.652053 0.758142 -0.006845
vn 0.887219 0.461330 -0.004165
vn 0.938606 0.344977 -0.003114
vn 0.969345 0.245692 -0.002218
vn 0.969345 0.245692 -0.002218
vn 0.000000 0.009027 0.999959
vn 0.000000 0.009027 0.999959
vn 0.000000 0.009027 0.999959
vn 0.000000 0.009027 0.999959
vn -0.000000 0.009027 0.999959
vn -0.000000 0.009027 0.999959
vn -0.000000 0.009027 0.999959
vn -0.000000 0.009027 0.999959
vn -0.000000 0.009027 0.999959
vn -0.000000 0.009027 0.999959
vn -0.000000 0.009027 0.999959
vn -0.000000 0.009027 0.999959
vn -0.000000 0.009027 0.999959
vn -0.000000 0.009027 0.999959
vn -0.000000 0.009027 0.999959
vn 0.000000 0.009027 0.999959
vn -0.000000 0.009027 0.999959
vn 0.000000 0.009027 0.999959
vn -0.000000 0.009027 0.999959
vn -0.000000 0.009027 0.999959
vn 0.000000 0.009027 0.999959
vn 0.000000 0.009027 0.999959
vn 0.000000 0.009027 0.999959
vn 0.000000 0.009027 0.999959
vn 0.000000 0.009027 0.999959
vn 0.000000 0.009027 0.999959
vn -0.000000 0.009027 0.999959
vn -0.000000 0.009027 0.999959
vn -0.000000 0.009027 0.999959
vn -0.000000 0.009027 0.999959
vn -0.303373 0.952833 -0.008602
vn -0.198967 0.979966 -0.008847
vn -0.652053 -0.758142 0.006844
vn -0.652053 -0.758142 0.006844
vn -0.652053 -0.758142 0.006844
vn -0.652053 -0.758142 0.006844
vn 0.198967 -0.979966 0.008846
vn 0.303373 -0.952833 0.008602
vn 0.000000 0.999959 -0.009028
vn 0.000000 -0.999959 0.009027
vn 0.198967 0.979966 -0.008847
vn -0.198967 -0.979966 0.008846
vn 0.303373 0.952833 -0.008602
vn -0.303373 -0.952833 0.008602
vn 0.652054 -0.758142 0.006844
vn 0.652054 -0.758142 0.006844
vn 0.652054 -0.758142 0.006844
vn 0.652054 -0.758142 0.006844
vn -0.969345 0.245695 -0.002218
vn -0.969345 0.245695 -0.002218
vn 0.000000 -0.999959 0.009028
vn 0.000000 -0.999959 0.009028
vn 0.000000 -0.999959 0.009028
vn 0.000000 -0.999959 0.009028
vn 0.969345 -0.245695 0.002218
vn 0.969345 -0.245695 0.002218
vn 0.198967 0.979966 -0.008847
vn 0.198967 0.979966 -0.008847
vn 0.198967 0.979966 -0.008847
vn 0.198967 0.979966 -0.008847
vn 0.969345 0.245692 -0.002218
vn 0.969345 0.245692 -0.002218
vn -0.198968 0.979966 -0.008847
vn -0.198968 0.979966 -0.008847
vn -0.198968 0.979966 -0.008847
vn -0.198968 0.979966 -0.008847
vn -0.969346 -0.245691 0.002218
vn -0.969346 -0.245691 0.002218
vn 0.000000 -0.999959 0.009027
vn 0.000000 -0.999959 0.009027
vn 0.000000 -0.999959 0.009027
vn 0.000000 -0.999959 0.009027
vn 0.887218 -0.461331 0.004165
vn 0.969345 -0.245695 0.002218
vn 0.969345 -0.245695 0.002218
vn 0.887218 -0.461331 0.004165
vn 0.652054 -0.758142 0.006845
vn 0.652054 -0.758142 0.006845
vn 0.413376 -0.910523 0.008221
vn 0.413376 -0.910523 0.008221
vn 0.198967 -0.979966 0.008847
vn 0.198967 -0.979966 0.008847
vn -0.000000 -0.999959 0.009027
vn -0.000000 -0.999959 0.009027
vn -0.198967 -0.979966 0.008847
vn -0.198967 -0.979966 0.008847
vn -0.413377 -0.910523 0.008220
vn -0.413377 -0.910523 0.008220
vn -0.652054 -0.758142 0.006844
vn -0.652054 -0.758142 0.006844
vn -0.887219 -0.461330 0.004164
vn -0.887219 -0.461330 0.004164
vn -0.969345 -0.245692 0.002218
vn -0.969345 -0.245692 0.002218
vn -0.000000 -0.009027 -0.999959
vn 0.000000 -0.009027 -0.999959
vn 0.000000 -0.009027 -0.999959
vn 0.000000 -0.009027 -0.999959
vn 0.000000 -0.009027 -0.999959
vn -0.000000 -0.009027 -0.999959
vn -0.000000 -0.009027 -0.999959
vn 0.000000 -0.009027 -0.999959
vn 0.000000 -0.009027 -0.999959
vn -0.000000 -0.009027 -0.999959
vn -0.000000 -0.009027 -0.999959
vn 0.000000 -0.009027 -0.999959
vn 0.000000 -0.009027 -0.999959
vn 0.000000 -0.009027 -0.999959
vn 0.000000 -0.009027 -0.999959
vn 0.000000 -0.009027 -0.999959
vn -0.000000 -0.009027 -0.999959
vn 0.000000 -0.009027 -0.999959
vn 0.000000 -0.009027 -0.999959
vn 0.000000 -0.009027 -0.999959
vn 0.000000 -0.009027 -0.999959
vn 0.000000 -0.009027 -0.999959
vn -0.887218 0.461331 -0.004165
vn -0.969345 0.245695 -0.002218
vn -0.969345 0.245695 -0.002218
vn -0.887218 0.461331 -0.004165
vn -0.652054 0.758142 -0.006844
vn -0.652054 0.758142 -0.006844
vn -0.413377 0.910523 -0.008219
vn -0.413377 0.910523 -0.008219
vn -0.198967 0.979966 -0.008846
vn -0.198967 0.979966 -0.008846
vn -0.000000 0.999959 -0.009026
vn -0.000000 0.999959 -0.009026
vn 0.198967 0.979966 -0.008846
vn 0.198967 0.979966 -0.008846
vn 0.413376 0.910523 -0.008220
vn 0.413376 0.910523 -0.008220
vn 0.652054 0.758142 -0.006844
vn 0.652053 0.758142 -0.006844
vn 0.887219 0.461330 -0.004165
vn 0.887219 0.461330 -0.004165
vn 0.969345 0.245692 -0.002218
vn 0.969345 0.245692 -0.002218
vn -0.000000 0.009027 0.999959
vn -0.000000 0.009027 0.999959
vn -0.000000 0.009027 0.999959
vn -0.000000 0.009027 0.999959
vn 0.000000 0.009027 0.999959
vn 0.000000 0.009027 0.999959
vn 0.000000 0.009027 0.999959
vn 0.000000 0.009027 0.999959
vn 0.000000 0.009027 0.999959
vn 0.000000 0.009027 0.999959
vn 0.000000 0.009027 0.999959
vn 0.000000 0.009027 0.999959
vn -0.000000 0.009027 0.999959
vn -0.000000 0.009027 0.999959
vn -0.000000 0.009027 0.999959
vn -0.000000 0.009027 0.999959
vn -0.000000 0.009027 0.999959
vn -0.000000 0.009027 0.999959
vn 0.000000 0.009027 0.999959
vn 0.000000 0.009027 0.999959
vn 0.000000 0.009027 0.999959
vn 0.000000 0.009027 0.999959
s 1
g pPipe3
usemtl blinn1SG
f 3/2/1 2/1/2 13/12/3 14/13/4
f 4/3/5 3/2/1 14/13/4 15/14/6
f 5/4/7 4/3/5 15/14/6 16/15/8
f 6/5/9 5/4/7 16/15/8 17/16/10
f 7/6/11 6/5/9 17/16/10 18/17/12
f 8/7/13 7/6/11 18/17/12 19/18/14
f 9/8/15 8/7/13 19/18/14 20/19/16
f 10/9/17 9/8/15 20/19/16 21/20/18
f 11/10/19 10/9/17 21/20/18 22/21/20
f 1/11/21 11/10/19 22/21/20 12/22/22
s 2
f 14/13/23 13/12/24 24/23/25 25/24/26
f 15/14/27 14/13/23 25/24/26 26/25/28
f 16/15/29 15/14/27 26/25/28 27/26/30
f 17/16/31 16/15/29 27/26/30 28/27/32
f 18/17/33 17/16/31 28/27/32 29/28/34
f 19/18/35 18/17/33 29/28/34 30/29/36
f 20/19/37 19/18/35 30/29/36 31/30/38
f 21/20/39 20/19/37 31/30/38 32/31/40
f 22/21/41 21/20/39 32/31/40 33/32/42
f 12/22/43 22/21/41 33/32/42 23/33/44
s 3
f 25/24/45 24/23/46 35/34/47 36/35/48
f 26/25/49 25/24/45 36/35/48 37/36/50
f 27/26/51 26/25/49 37/36/50 38/37/52
f 28/27/53 27/26/51 38/37/52 39/38/54
f 29/28/55 28/27/53 39/38/54 40/39/56
f 30/29/57 29/28/55 40/39/56 41/40/58
f 31/30/59 30/29/57 41/40/58 42/41/60
f 32/31/61 31/30/59 42/41/60 43/42/62
f 33/32/63 32/31/61 43/42/62 44/43/64
usemtl initialShadingGroup
f 23/33/65 33/32/63 44/43/64 34/44/66
s off
usemtl blinn1SG
f 56/66/67 55/67/68 57/68/69 58/69/70
s 4
f 37/36/71 36/35/72 3/46/73 4/47/74
f 38/37/75 37/36/71 4/47/74 5/48/76
s 5
f 46/56/77 45/57/78 47/58/79 48/59/80
f 49/60/81 46/56/77 48/59/80 50/61/82
f 51/62/83 49/60/81 50/61/82 52/63/84
f 53/64/85 51/62/83 52/63/84 54/65/86
s 6
f 43/42/87 42/41/88 9/52/89 10/53/90
f 44/43/91 43/42/87 10/53/90 11/54/92
s off
f 60/70/93 59/71/94 61/72/95 62/73/96
s 3
f 39/38/54 38/37/52 45/57/97 46/56/98
s off
f 38/37/99 5/48/100 47/58/101 45/57/102
s 1
f 5/48/7 6/49/9 48/59/103 47/58/104
s 3
f 40/39/56 39/38/54 46/56/98 49/60/105
s 1
f 6/49/9 7/50/11 50/61/106 48/59/103
s 3
f 41/40/58 40/39/56 49/60/105 51/62/107
s 1
f 7/50/11 8/51/13 52/63/108 50/61/106
s 3
f 42/41/60 41/40/58 51/62/107 53/64/109
s 1
f 8/51/13 9/52/15 54/65/110 52/63/108
s off
f 9/52/111 42/41/112 53/64/113 54/65/114
s 3
f 36/35/48 35/34/47 55/67/115 56/66/116
s off
f 35/34/117 2/45/118 57/68/119 55/67/120
s 1
f 2/45/2 3/46/1 58/69/121 57/68/122
s off
f 3/46/123 36/35/124 56/66/125 58/69/126
s 3
f 34/44/66 44/43/64 59/71/127 60/70/128
s off
f 44/43/129 11/54/130 61/72/131 59/71/132
s 1
f 11/54/19 1/55/21 62/73/133 61/72/134
s off
f 1/55/135 34/44/136 60/70/137 62/73/138
s 7
f 65/74/139 64/75/140 75/76/141 76/77/142
f 66/78/143 65/74/139 76/77/142 77/79/144
f 67/80/145 66/78/143 77/79/144 78/81/146
f 68/82/147 67/80/145 78/81/146 79/83/148
f 69/84/149 68/82/147 79/83/148 80/85/150
f 70/86/151 69/84/149 80/85/150 81/87/152
f 71/88/153 70/86/151 81/87/152 82/89/154
f 72/90/155 71/88/153 82/89/154 83/91/156
f 73/92/157 72/90/155 83/91/156 84/93/158
f 63/94/159 73/92/157 84/93/158 74/95/160
s 8
f 76/77/161 75/76/162 86/96/163 87/97/164
f 77/79/165 76/77/161 87/97/164 88/98/166
f 78/81/167 77/79/165 88/98/166 89/99/168
f 79/83/169 78/81/167 89/99/168 90/100/170
f 80/85/171 79/83/169 90/100/170 91/101/172
f 81/87/173 80/85/171 91/101/172 92/102/174
f 82/89/175 81/87/173 92/102/174 93/103/176
f 83/91/177 82/89/175 93/103/176 94/104/178
f 84/93/179 83/91/177 94/104/178 95/105/180
f 74/95/181 84/93/179 95/105/180 85/106/182
s 9
f 87/97/183 86/96/184 97/107/185 98/108/186
f 88/98/187 87/97/183 98/108/186 99/109/188
f 89/99/189 88/98/187 99/109/188 100/110/190
f 90/100/191 89/99/189 100/110/190 101/111/192
f 91/101/193 90/100/191 101/111/192 102/112/194
f 92/102/195 91/101/193 102/112/194 103/113/196
f 93/103/197 92/102/195 103/113/196 104/114/198
f 94/104/199 93/103/197 104/114/198 105/115/200
f 95/105/201 94/104/199 105/115/200 106/116/202
f 85/106/203 95/105/201 106/116/202 96/117/204
s 10
f 98/108/205 97/107/206 64/118/207 65/119/208
f 99/109/209 98/108/205 65/119/208 66/120/210
f 100/110/211 99/109/209 66/120/210 67/121/212
f 101/111/213 100/110/211 67/121/212 68/122/214
f 102/112/215 101/111/213 68/122/214 69/123/216
f 103/113/217 102/112/215 69/123/216 70/124/218
f 104/114/219 103/113/217 70/124/218 71/125/220
f 105/115/221 104/114/219 71/125/220 72/126/222
f 106/116/223 105/115/221 72/126/222 73/127/224
f 96/117/225 106/116/223 73/127/224 63/128/226
