# This file uses centimeters as units for non-parametric coordinates.

mtllib cupboard.mtl
g default
v -0.500000 0.000000 3.000000
v 0.500000 0.000000 3.000000
v 0.500000 4.000000 3.000000
v -0.500000 4.000000 3.000000
v -0.500000 0.000000 -3.000000
v -0.500000 4.000000 -3.000000
v 0.500000 0.000000 -3.000000
v 0.500000 1.700000 -2.800000
v 0.500000 1.700000 2.800000
v 0.500000 2.700000 2.800000
v 0.500000 4.000000 -3.000000
v 0.500000 2.700000 -2.800000
v 0.500000 2.800000 -2.800000
v 0.500000 2.800000 2.800000
v 0.500000 3.800000 2.800000
v 0.500000 3.800000 -2.800000
v -0.300000 1.700000 -2.800000
v -0.300000 1.700000 2.800000
v -0.300000 2.700000 2.800000
v -0.300000 2.700000 -2.800000
v -0.300000 2.800000 2.800000
v -0.300000 3.800000 2.800000
v -0.300000 3.800000 -2.800000
v -0.300000 2.800000 -2.800000
vt 0.469015 0.363170
vt 0.863666 0.363170
vt 0.863666 0.626270
vt 0.469015 0.626270
vt 0.061731 0.362896
vt 0.456382 0.362896
vt 0.443227 0.474714
vt 0.074886 0.474714
vt 0.074886 0.540489
vt 0.061731 0.625997
vt 0.074886 0.612842
vt 0.443227 0.612842
vt 0.443227 0.547066
vt 0.443227 0.540489
vt 0.456382 0.625997
vt 0.074886 0.547066
vt 0.926263 0.715902
vt 0.926263 0.781677
vt 0.557922 0.781677
vt 0.557922 0.715902
vt 0.441554 0.715902
vt 0.441554 0.781677
vt 0.073213 0.781677
vt 0.073214 0.715902
vt 0.064953 0.242314
vt 0.064953 0.176539
vt 0.459603 0.176539
vt 0.459603 0.242314
vt 0.065327 0.323789
vt 0.065328 0.258014
vt 0.459978 0.258016
vt 0.459978 0.323791
vt 0.557922 0.663282
vt 0.926263 0.663282
vt 0.926263 0.834297
vt 0.557922 0.834297
vt 0.441554 0.834297
vt 0.073213 0.834297
vt 0.073213 0.663282
vt 0.441554 0.663282
vt 0.722704 0.176540
vt 0.722704 0.242315
vt 0.723079 0.258016
vt 0.723079 0.323791
vt 0.505302 0.781677
vt 0.505302 0.715902
vt 0.978883 0.715902
vt 0.978883 0.781677
vt 0.020593 0.781676
vt 0.020594 0.715901
vt 0.494174 0.715901
vt 0.494175 0.781677
vn 0.000000 0.000000 1.000000
vn 0.000000 0.000000 1.000000
vn 0.000000 0.000000 1.000000
vn 0.000000 0.000000 1.000000
vn -1.000000 0.000000 0.000000
vn -1.000000 0.000000 0.000000
vn -1.000000 0.000000 0.000000
vn -1.000000 0.000000 0.000000
vn 0.000000 -1.000000 0.000000
vn 0.000000 -1.000000 0.000000
vn 0.000000 -1.000000 0.000000
vn 0.000000 -1.000000 0.000000
vn 1.000000 -0.000000 0.000000
vn 1.000000 -0.000000 0.000000
vn 1.000000 0.000000 0.000000
vn 1.000000 -0.000000 0.000000
vn 1.000000 -0.000000 0.000000
vn 1.000000 0.000000 0.000000
vn 0.000000 1.000000 0.000000
vn 0.000000 1.000000 0.000000
vn 0.000000 1.000000 0.000000
vn 0.000000 1.000000 0.000000
vn 0.000000 0.000000 -1.000000
vn 0.000000 0.000000 -1.000000
vn 0.000000 0.000000 -1.000000
vn 0.000000 0.000000 -1.000000
vn 1.000000 0.000000 0.000000
vn 1.000000 0.000000 0.000000
vn 1.000000 0.000000 0.000000
vn 1.000000 -0.000000 0.000000
vn 1.000000 0.000000 0.000000
vn 1.000000 0.000000 0.000000
vn 0.000000 1.000000 0.000000
vn 0.000000 1.000000 0.000000
vn 0.000000 1.000000 0.000000
vn 0.000000 1.000000 0.000000
vn 0.000000 0.000000 -1.000000
vn 0.000000 0.000000 -1.000000
vn 0.000000 0.000000 -1.000000
vn 0.000000 0.000000 -1.000000
vn 0.000000 -1.000000 0.000000
vn 0.000000 -1.000000 0.000000
vn 0.000000 -1.000000 0.000000
vn 0.000000 -1.000000 0.000000
vn 0.000000 0.000000 1.000000
vn 0.000000 0.000000 1.000000
vn 0.000000 0.000000 1.000000
vn 0.000000 0.000000 1.000000
vn 1.000000 0.000000 0.000000
vn 1.000000 0.000000 0.000000
vn 1.000000 0.000000 0.000000
vn 1.000000 0.000000 0.000000
vn 0.000000 0.000000 -1.000000
vn 0.000000 0.000000 -1.000000
vn 0.000000 0.000000 -1.000000
vn 0.000000 0.000000 -1.000000
vn 0.000000 -1.000000 0.000000
vn 0.000000 -1.000000 0.000000
vn 0.000000 -1.000000 0.000000
vn 0.000000 -1.000000 0.000000
vn 1.000000 0.000000 0.000000
vn 1.000000 0.000000 0.000000
vn 1.000000 0.000000 0.000000
vn 1.000000 0.000000 0.000000
vn 0.000000 1.000000 0.000000
vn 0.000000 1.000000 0.000000
vn 0.000000 1.000000 0.000000
vn 0.000000 1.000000 0.000000
vn 0.000000 0.000000 1.000000
vn 0.000000 0.000000 1.000000
vn 0.000000 0.000000 1.000000
vn 0.000000 0.000000 1.000000
s 1
g pCube5
usemtl blinn1SG
f 1/28/1 2/27/2 4/42/3
f 4/42/3 2/27/2 3/41/4
s 2
f 5/1/5 1/2/6 6/4/7
f 6/4/7 1/2/6 4/3/8
s 3
f 5/25/9 7/26/10 1/28/11
f 1/28/11 7/26/10 2/27/12
s 4
f 3/10/13 2/5/14 10/9/15
f 10/9/15 2/5/14 9/8/16
f 2/5/14 7/6/17 9/8/16
f 7/6/17 8/7/18 9/8/16
s 5
f 4/29/19 3/30/20 6/32/21
f 6/32/21 3/30/20 11/31/22
s 6
f 6/32/23 11/31/24 5/44/25
f 5/44/25 11/31/24 7/43/26
s 4
f 12/14/27 13/13/28 10/9/15
f 13/13/28 14/16/29 10/9/15
f 10/9/15 14/16/29 3/10/13
f 14/16/29 15/11/30 3/10/13
f 7/6/17 11/15/31 8/7/18
f 8/7/18 11/15/31 12/14/27
f 12/14/27 11/15/31 13/13/28
f 13/13/28 11/15/31 16/12/32
f 11/15/31 3/10/13 16/12/32
f 15/11/30 16/12/32 3/10/13
s 8
f 9/33/33 8/34/34 18/20/35
f 18/20/35 8/34/34 17/17/36
s 9
f 10/45/37 9/46/38 19/19/39
f 19/19/39 9/46/38 18/20/40
s 10
f 12/35/41 10/36/42 20/18/43
f 20/18/43 10/36/42 19/19/44
s 11
f 8/47/45 12/48/46 17/17/47
f 17/17/47 12/48/46 20/18/48
s 12
f 17/17/49 20/18/50 18/20/51
f 18/20/51 20/18/50 19/19/52
s 13
f 15/49/53 14/50/54 22/23/55
f 22/23/55 14/50/54 21/24/56
s 14
f 16/37/57 15/38/58 23/22/59
f 23/22/59 15/38/58 22/23/60
s 15
f 24/21/61 23/22/62 21/24/63
f 21/24/63 23/22/62 22/23/64
s 16
f 14/39/65 13/40/66 21/24/67
f 21/24/67 13/40/66 24/21/68
s 17
f 13/51/69 16/52/70 24/21/71
f 24/21/71 16/52/70 23/22/72
g default
v -0.500000 0.000000 3.000000
v 0.500000 0.000000 3.000000
v 0.500000 4.000000 3.000000
v -0.500000 4.000000 3.000000
v -0.500000 0.000000 -3.000000
v -0.500000 4.000000 -3.000000
v 0.500000 0.000000 -3.000000
v 0.500000 1.700000 -2.800000
v 0.500000 1.700000 2.800000
v 0.500000 2.700000 2.800000
v 0.500000 4.000000 -3.000000
v 0.500000 2.700000 -2.800000
v 0.500000 2.800000 -2.800000
v 0.500000 2.800000 2.800000
v 0.500000 3.800000 2.800000
v 0.500000 3.800000 -2.800000
v -0.300000 1.700000 -2.800000
v -0.300000 1.700000 2.800000
v -0.300000 2.700000 2.800000
v -0.300000 2.700000 -2.800000
v -0.300000 2.800000 2.800000
v -0.300000 3.800000 2.800000
v -0.300000 3.800000 -2.800000
v -0.300000 2.800000 -2.800000
vt 0.469015 0.363170
vt 0.863666 0.363170
vt 0.863666 0.626270
vt 0.469015 0.626270
vt 0.061731 0.362896
vt 0.456382 0.362896
vt 0.443227 0.474714
vt 0.074886 0.474714
vt 0.074886 0.540489
vt 0.061731 0.625997
vt 0.074886 0.612842
vt 0.443227 0.612842
vt 0.443227 0.547066
vt 0.443227 0.540489
vt 0.456382 0.625997
vt 0.074886 0.547066
vt 0.926263 0.715902
vt 0.926263 0.781677
vt 0.557922 0.781677
vt 0.557922 0.715902
vt 0.441554 0.715902
vt 0.441554 0.781677
vt 0.073213 0.781677
vt 0.073214 0.715902
vt 0.064953 0.242314
vt 0.064953 0.176539
vt 0.459603 0.176539
vt 0.459603 0.242314
vt 0.065327 0.323789
vt 0.065328 0.258014
vt 0.459978 0.258016
vt 0.459978 0.323791
vt 0.557922 0.663282
vt 0.926263 0.663282
vt 0.926263 0.834297
vt 0.557922 0.834297
vt 0.441554 0.834297
vt 0.073213 0.834297
vt 0.073213 0.663282
vt 0.441554 0.663282
vt 0.722704 0.176540
vt 0.722704 0.242315
vt 0.723079 0.258016
vt 0.723079 0.323791
vt 0.505302 0.781677
vt 0.505302 0.715902
vt 0.978883 0.715902
vt 0.978883 0.781677
vt 0.020593 0.781676
vt 0.020594 0.715901
vt 0.494174 0.715901
vt 0.494175 0.781677
vn 0.000000 0.000000 1.000000
vn 0.000000 0.000000 1.000000
vn 0.000000 0.000000 1.000000
vn 0.000000 0.000000 1.000000
vn -1.000000 0.000000 0.000000
vn -1.000000 0.000000 0.000000
vn -1.000000 0.000000 0.000000
vn -1.000000 0.000000 0.000000
vn 0.000000 -1.000000 0.000000
vn 0.000000 -1.000000 0.000000
vn 0.000000 -1.000000 0.000000
vn 0.000000 -1.000000 0.000000
vn 1.000000 -0.000000 0.000000
vn 1.000000 -0.000000 0.000000
vn 1.000000 0.000000 0.000000
vn 1.000000 -0.000000 0.000000
vn 1.000000 -0.000000 0.000000
vn 1.000000 0.000000 0.000000
vn 0.000000 1.000000 0.000000
vn 0.000000 1.000000 0.000000
vn 0.000000 1.000000 0.000000
vn 0.000000 1.000000 0.000000
vn 0.000000 0.000000 -1.000000
vn 0.000000 0.000000 -1.000000
vn 0.000000 0.000000 -1.000000
vn 0.000000 0.000000 -1.000000
vn 1.000000 0.000000 0.000000
vn 1.000000 0.000000 0.000000
vn 1.000000 0.000000 0.000000
vn 1.000000 -0.000000 0.000000
vn 1.000000 0.000000 0.000000
vn 1.000000 0.000000 0.000000
vn 0.000000 1.000000 0.000000
vn 0.000000 1.000000 0.000000
vn 0.000000 1.000000 0.000000
vn 0.000000 1.000000 0.000000
vn 0.000000 0.000000 -1.000000
vn 0.000000 0.000000 -1.000000
vn 0.000000 0.000000 -1.000000
vn 0.000000 0.000000 -1.000000
vn 0.000000 -1.000000 0.000000
vn 0.000000 -1.000000 0.000000
vn 0.000000 -1.000000 0.000000
vn 0.000000 -1.000000 0.000000
vn 0.000000 0.000000 1.000000
vn 0.000000 0.000000 1.000000
vn 0.000000 0.000000 1.000000
vn 0.000000 0.000000 1.000000
vn 1.000000 0.000000 0.000000
vn 1.000000 0.000000 0.000000
vn 1.000000 0.000000 0.000000
vn 1.000000 0.000000 0.000000
vn 0.000000 0.000000 -1.000000
vn 0.000000 0.000000 -1.000000
vn 0.000000 0.000000 -1.000000
vn 0.000000 0.000000 -1.000000
vn 0.000000 -1.000000 0.000000
vn 0.000000 -1.000000 0.000000
vn 0.000000 -1.000000 0.000000
vn 0.000000 -1.000000 0.000000
vn 1.000000 0.000000 0.000000
vn 1.000000 0.000000 0.000000
vn 1.000000 0.000000 0.000000
vn 1.000000 0.000000 0.000000
vn 0.000000 1.000000 0.000000
vn 0.000000 1.000000 0.000000
vn 0.000000 1.000000 0.000000
vn 0.000000 1.000000 0.000000
vn 0.000000 0.000000 1.000000
vn 0.000000 0.000000 1.000000
vn 0.000000 0.000000 1.000000
vn 0.000000 0.000000 1.000000
s 1
g pCube5
f 25/80/73 26/79/74 28/94/75
f 28/94/75 26/79/74 27/93/76
s 2
f 29/53/77 25/54/78 30/56/79
f 30/56/79 25/54/78 28/55/80
s 3
f 29/77/81 31/78/82 25/80/83
f 25/80/83 31/78/82 26/79/84
s 4
f 27/62/85 26/57/86 34/61/87
f 34/61/87 26/57/86 33/60/88
f 26/57/86 31/58/89 33/60/88
f 31/58/89 32/59/90 33/60/88
s 5
f 28/81/91 27/82/92 30/84/93
f 30/84/93 27/82/92 35/83/94
s 6
f 30/84/95 35/83/96 29/96/97
f 29/96/97 35/83/96 31/95/98
s 4
f 36/66/99 37/65/100 34/61/87
f 37/65/100 38/68/101 34/61/87
f 34/61/87 38/68/101 27/62/85
f 38/68/101 39/63/102 27/62/85
f 31/58/89 35/67/103 32/59/90
f 32/59/90 35/67/103 36/66/99
f 36/66/99 35/67/103 37/65/100
f 37/65/100 35/67/103 40/64/104
f 35/67/103 27/62/85 40/64/104
f 39/63/102 40/64/104 27/62/85
s 8
f 33/85/105 32/86/106 42/72/107
f 42/72/107 32/86/106 41/69/108
s 9
f 34/97/109 33/98/110 43/71/111
f 43/71/111 33/98/110 42/72/112
s 10
f 36/87/113 34/88/114 44/70/115
f 44/70/115 34/88/114 43/71/116
s 11
f 32/99/117 36/100/118 41/69/119
f 41/69/119 36/100/118 44/70/120
s 12
f 41/69/121 44/70/122 42/72/123
f 42/72/123 44/70/122 43/71/124
s 13
f 39/101/125 38/102/126 46/75/127
f 46/75/127 38/102/126 45/76/128
s 14
f 40/89/129 39/90/130 47/74/131
f 47/74/131 39/90/130 46/75/132
s 15
f 48/73/133 47/74/134 45/76/135
f 45/76/135 47/74/134 46/75/136
s 16
f 38/91/137 37/92/138 45/76/139
f 45/76/139 37/92/138 48/73/140
s 17
f 37/103/141 40/104/142 48/73/143
f 48/73/143 40/104/142 47/74/144
